<?xml version="1.0" standalone="no"?>
<!DOCTYPE svg PUBLIC "-//W3C//DTD SVG 1.1//EN" "http://www.w3.org/Graphics/SVG/1.1/DTD/svg11.dtd" >
<svg xmlns="http://www.w3.org/2000/svg">
<metadata></metadata>
<defs>
<font id="draconian_typewriterregular" horiz-adv-x="1705" >
<font-face units-per-em="2048" ascent="1536" descent="-512" />
<missing-glyph horiz-adv-x="1024" />
<glyph horiz-adv-x="0" />
<glyph unicode="&#xd;" horiz-adv-x="1024" />
<glyph unicode=" "  horiz-adv-x="1024" />
<glyph unicode="&#x09;" horiz-adv-x="1024" />
<glyph unicode="&#xa0;" horiz-adv-x="1024" />
<glyph unicode="!" d="M883 1550q29 -8 62.5 -6t55.5 -14q10 -10 19.5 -41t15.5 -67t10.5 -66.5t4.5 -42.5q0 -8 -15.5 -21.5t-15.5 -36.5q0 -16 9 -29.5t1 -19.5q-8 -27 -21.5 -49t-20.5 -42.5t-2 -39t34 -37.5q-29 -37 -38 -85t28 -93q-23 0 -30 -17.5t-6 -39t11 -40t25 -22.5 q-18 -25 -26.5 -48t-11.5 -45.5t-2 -47.5t1 -55q-18 12 -29.5 14t-22 1t-22.5 -6t-35 -9q8 -25 2 -39t-17 -22.5t-26.5 -13.5t-25.5 -13q25 -25 53.5 -25t56 10.5t53 22.5t43.5 12q6 -18 5.5 -28.5t-6 -18.5t-13.5 -14t-16 -19q8 -4 14 -10t14.5 -11t20.5 -8t31 1 q37 -27 34.5 -60t-16.5 -66.5t-25.5 -63t7.5 -48.5q-4 -25 -21.5 -34t-36 -16t-32 -20.5t-9.5 -46.5q-18 -4 -49 -3t-61.5 2t-55 2t-30.5 -1q-16 6 -18.5 16.5t-2.5 32.5q-23 -8 -38 -1.5t-29 20.5q-8 0 -6 -3t5 -8t5 -12.5t-4 -15.5h-50q-4 10 -2 16.5t6.5 12.5t6.5 12 t-2 18q14 14 22 7t37 -7q0 59 -15.5 105.5t-23.5 91.5q47 18 70.5 51t38 72t25 79t32.5 74q-14 0 -32.5 19.5t-55.5 19.5q0 23 7 36.5t13.5 24.5t8.5 26.5t-9 39.5h-77q6 16 -2.5 20.5t-8.5 20.5q23 -4 36.5 -1t23.5 8.5t18 11.5t21 10v70q0 8 -5.5 11t-11.5 4t-13 4t-9 9 q-4 18 2 30.5t15 22t17.5 17.5t12.5 20q4 29 -9.5 35t-33 6t-38.5 3.5t-26 25.5q29 29 29 69v76q-4 8 -12 9.5t-17.5 1.5t-17.5 1t-12 9q4 41 19.5 71.5t34.5 56.5t39.5 49.5t35.5 49.5q20 0 40.5 -7t39 -10t35 3t30.5 33q8 0 9 -6.5t1 -12.5h21q8 -8 9 -11t-2 -4t-8 -4 t-9 -11q4 -8 12 -9.5t14 -3.5t8 -7t-4 -19q33 6 36 21.5t-6 32.5t-21.5 34.5t-8.5 29.5q-16 4 -21 -2t-9 -12t-9.5 -10t-19.5 4q6 8 3 11t-9 7t-9 13.5t5 27.5zM854 330q14 0 35.5 -6.5t21.5 16.5q-14 14 -32.5 16.5t-24.5 -26.5zM795 299q14 8 31.5 17.5t17.5 31.5 q-29 0 -43 -9t-6 -40z" />
<glyph unicode="&#x22;" d="M645 1540q20 0 33.5 -4t19.5 -20q0 -20 -30 -21q-4 -10 0 -15t8 -10.5t5 -9.5t-5 -10q33 6 47 -14q4 4 6 10t6 12q-6 16 -11 13t-22 -3q10 10 5 11.5t-5 15.5q14 -10 27.5 -12t28 -1t30 2t33.5 -3q-14 -14 -14 -24.5t6 -20t12 -21.5t4 -29q-14 4 -18 -4t-18 -4 q-2 -45 -6.5 -78.5t-6.5 -63.5t4.5 -59.5t26.5 -64.5q-35 -20 -63.5 -29.5t-57.5 -33.5q-14 4 -24.5 13t-20.5 23q-2 10 1 15.5t7 8.5t5 6t-5 9q0 14 -9 4t-17 -4q4 23 8 42.5t18 29.5q-4 10 -15 14t-11 19q0 14 7 22.5t11 18.5q2 25 -4 46t-14.5 41.5t-15.5 40t-7 38.5 q0 16 7 27.5t15.5 22.5t14.5 23.5t4 30.5zM702 1102q27 0 33 18q-10 -4 -12 2t-10 11q-4 -6 -7.5 -11.5t-3.5 -19.5zM1047 1026q-18 31 -46 12q-10 10 -25 28.5t-26.5 37t-13.5 33t16 20.5q4 16 -6 19.5t-18 7.5q2 14 8 29.5t9 29.5t-1 25.5t-24 17.5q8 23 9 39t-2 29.5 t-10.5 28t-15.5 30.5q10 6 12 24.5t2 35.5q12 6 24.5 18t12.5 37q16 -4 19.5 -18.5t7.5 -28.5q12 -4 16 5t19 5q0 -16 2 -26.5t16 -14.5q23 4 22 29.5t5 48.5q16 -18 29.5 -35.5t33.5 -24.5q4 -35 5 -64.5t18 -53.5q-27 -18 -32 -53t-6 -73t-8 -75t-40 -59q14 -6 14 -12.5 t-4 -12.5t-6 -13.5t6 -13.5q-2 -4 -6 -2t-7 4t-6 0t-3 -14z" />
<glyph unicode="#" d="M1356 1343q-4 -2 -5 -9t-3 -14t-6.5 -12t-14.5 -1q6 -10 5 -32t11 -28q-29 -35 -41 -79t-12 -78q-2 -8 -7 -7.5t-11 4t-13.5 4.5t-13.5 -8q8 -18 12.5 -29.5t5.5 -21.5t2 -21.5t3 -31.5q41 6 62.5 -8.5t25.5 -42.5q-2 -8 -7.5 -14.5t-9.5 -13.5t-4 -16.5t8 -23.5 q-29 10 -50 9t-40.5 -6t-37 -10t-37.5 -1q-29 -51 -58.5 -99t-52.5 -110q8 -8 19.5 -13t22.5 -11.5t18.5 -13.5t7.5 -21q39 -4 57 9t31 36q12 -6 18 -16.5t14.5 -21.5t19.5 -18.5t30 -3.5q2 -12 -1.5 -17t-7.5 -8t-5 -7.5t7 -12.5q10 10 18.5 24.5t18.5 20.5q8 -4 10.5 -12 t4.5 -18.5t5 -18.5t11 -10q-4 -29 -27.5 -36t-54.5 -8t-62.5 -2t-50.5 -15q0 8 -5 11t-11 4t-9 4t3 11q-16 0 -14 -15t-9 -15q-6 6 -11 15t-11 15q-25 -18 -57.5 -31.5t-61.5 -35t-47 -57.5t-12 -99q-23 -6 -43.5 -13t-32.5 -24q12 -23 10 -39t-7 -30.5t-8 -30t5 -35.5 q-16 -6 -30.5 -28.5t1.5 -39.5q-12 -18 -26.5 -25t-32 -9t-36.5 -4.5t-38 -12.5q8 23 7 37t-6 26.5t-12 22.5t-11 25q37 12 50 32.5t19 48t9.5 62.5t17.5 74q18 0 25.5 8t6.5 20.5t-6.5 24.5t-11.5 21q23 6 36 21t24 32q-25 10 -54.5 21.5t-58.5 17.5t-57.5 5t-53.5 -15 q-23 -14 -31 -34t-11 -43.5t-7 -47t-18 -45.5h-29q8 -12 8 -18.5t-5 -10.5t-12 -7t-13 -10q8 -25 0.5 -46t-19.5 -41.5t-23.5 -44t-11.5 -54.5q-41 -12 -51 -43q-23 8 -39 28.5t-20 47t4 52.5t33 42q-4 29 -7.5 55.5t13.5 49.5q23 6 33 -5.5t20 -17.5q-6 29 -9 55.5 t-14 48.5h37q-4 18 -1 35t5 29t1 22.5t-13 18.5q-4 0 -4 -4t4 -4q-4 -16 -25.5 -12t-33.5 4q6 18 7 43.5t1 48t1 36t7 7.5q23 -4 35 -4t47 -11q14 0 19.5 7.5t8.5 14.5t9 9t22 -8q12 16 20.5 44t18 52.5t22.5 40.5t36 10q0 29 -9.5 45.5t-19.5 22.5q0 12 3 17t6 9.5t3 9.5 t-6 17q-8 10 -24.5 14.5t-35 7.5t-33.5 7t-24 16q-14 -14 -34.5 -20t-41 -3t-39 14t-28.5 32q23 10 36 6t23 0q0 10 -7 14t-7 17q14 8 32.5 11t37 -2t32 -16.5t17.5 -29.5q2 10 13 13t21.5 6t17.5 9.5t1 22.5h60q0 -10 -10.5 -16.5t-6.5 -28.5q0 -6 7 -6t16.5 1t17.5 3t10 2 q-31 25 -22.5 44t32 34.5t53.5 29t44 25.5q-4 25 1 43t11 32.5t13.5 29t11.5 30.5q4 0 10 -5t12 -9q8 18 45 45q-12 10 -13 16t1 10.5t1 11.5t-11 21q2 8 9 13.5t14 11.5t11.5 16t2.5 27q10 0 13 -4t9 -4q0 23 -3 30t3 29q16 -14 27.5 -16t21 3t18.5 14t23 15q0 -53 23 -61 q-12 -23 -23.5 -40t-20.5 -36.5t-17.5 -42t-14.5 -53.5q-16 0 -22.5 -6t-22.5 0q-4 -45 -10 -94.5t-35 -77.5q0 -10 6 -15.5t13.5 -9.5t13.5 -8t6 -12q10 6 26.5 14t16.5 31q23 0 28 -16.5t11 -28.5q43 6 71.5 27.5t61.5 33.5q-4 18 7 35.5t24.5 36t27 39t15.5 45.5 q12 -25 53 -17q-18 16 -30.5 42t-6.5 79q35 4 56.5 25.5t33.5 54.5q16 8 18.5 -4t2.5 -25q23 -4 25.5 8.5t19.5 8.5q20 0 24 -12.5t21 -18.5q0 -10 -13.5 2t-25.5 12zM827 1149h39q0 16 3 24.5t-19 14.5q4 -12 1 -16.5t-8 -6.5t-10.5 -5t-5.5 -11zM776 889q0 -23 -10 -38 t-4 -44q-35 6 -40 -16.5t-5 -51.5q-10 -2 -15.5 -3t-9.5 -1h-8t-12 -2q12 -39 8 -77t-8 -72q14 0 20 8t8 19.5t5.5 22.5t11.5 15h37q-6 -10 3 -14t5 -21q-12 0 -17.5 1t-5.5 -9q16 -23 42 -27t55 -10q20 33 51 60.5t58.5 58.5t43 70t4.5 94q-12 8 -29.5 8t-34 2t-26.5 8.5 t-8 26.5q-18 -6 -32.5 -11t-27 -8.5t-27 -1t-32.5 12.5zM449 293h28q0 16 -5 23.5t-17 15.5q0 -12 -3 -19.5t-3 -19.5z" />
<glyph unicode="$" d="M1219 573q0 8 2 7.5t6 -4t9 -6.5t11 3q16 -33 14.5 -54t8.5 -54q-10 0 -14.5 -3t-14.5 -3q4 -16 12.5 -30.5t8.5 -43.5q-23 -4 -33 -27.5t-19.5 -46t-24 -38t-40.5 -3.5q8 -16 -1 -27.5t-25.5 -18.5t-34 -15t-25.5 -19q-6 -14 -2 -25t9 -19.5t9 -13.5t0 -7 q0 -14 -5 -16.5t-11 -1t-13.5 0t-9.5 -11.5q-2 -16 2 -26.5t10.5 -20.5t9.5 -20.5t1 -26.5q-25 -8 -40 -6t-25.5 11t-17.5 21.5t-18 24.5q-8 10 -19 18.5t-17.5 16.5t-4 17.5t18.5 19.5q-14 10 -14 22q-31 8 -49.5 11.5t-34 2.5t-29.5 -8.5t-33 -21.5q-6 -23 -2 -39t10 -33 q-23 4 -26.5 -15t-9.5 -36q-33 -10 -49.5 2.5t-39.5 12.5q-10 55 -26.5 106t-44.5 90q-8 2 -11.5 -2t-5.5 -8t-7 -7t-19 3q8 8 11 12t3 10t-3 16.5t-5 26.5q-10 -16 -19.5 -12t-19.5 13.5t-23.5 16.5t-31.5 -5q0 35 -16.5 51t-26.5 39q0 16 5 28.5t9 28.5q10 -4 22.5 -4 t22.5 -2t16.5 -8t4.5 -23q-2 6 13 11.5t33.5 8.5t33 4t8.5 -1q27 16 33 52t16 71q6 0 17 1t11 5q0 23 -12 38t-22 19q-4 12 -2 18.5t5 12.5t4 12t-1 17q8 6 12 6t7 -1t6 -3t12 -2q-16 25 -30.5 50t-34 47.5t-45.5 39t-64 22.5q0 33 -14.5 39t-30.5 10q-10 39 -14.5 87.5 t-20.5 80.5q6 23 19 39.5t9 55.5q25 2 39.5 16t28.5 29.5t30.5 25.5t47.5 8q6 -10 0 -13t-6 -9h34q-23 27 -16.5 48.5t21 40.5t28 40.5t4.5 52.5q4 23 15.5 14.5t27.5 -14.5q-10 16 -3 29.5t-3 36.5q37 -55 86 -99.5t131 -60.5q10 0 9 12.5t-1 24.5q16 -16 19.5 -22.5 t7.5 -22.5q16 6 24.5 4t18.5 -19q12 47 82 37q2 -14 13.5 -27.5t20.5 -25.5t12 -22.5t-11 -18.5q12 -10 16 -7t7 11t6.5 16.5t13.5 8.5q-4 -14 -1 -20.5t10 -9.5t15.5 -4t14.5 -3q-6 -16 -11.5 -32.5t-5.5 -39.5q-16 8 -25 8t-15.5 -1t-13.5 -1t-17 9q-14 -2 -22.5 -11.5 t-15.5 -18.5t-16.5 -16.5t-25.5 -5.5q0 -10 9 -19t5 -32q-49 23 -58 61.5t1 98.5q-35 -23 -60.5 -14.5t-48.5 28.5q-23 0 -28 -16.5t-9 -32.5q-39 12 -51 1t-13 -32.5t-1 -46t-14 -39.5q16 -31 22 -64.5t14.5 -65t24.5 -55.5t55 -32q4 10 17.5 15.5t17.5 21.5 q10 -16 21.5 -23.5t20.5 -11.5t17.5 -12t14.5 -27q10 -6 21.5 -2t21.5 11q-14 6 -16.5 11t2 9t12.5 8t16 6q-16 6 -45 28t-35 60q6 4 15.5 6.5t13.5 8.5q10 2 16 -2t10.5 -9.5t11.5 -9.5t19 0q-8 -16 -4 -31.5t9.5 -28.5t3 -23.5t-20.5 -18.5q10 -16 21.5 -25.5t24.5 -13.5 t33.5 -5t49.5 -1q6 -8 8 -20.5t5 -23.5t10.5 -16.5t19.5 3.5q0 -29 11.5 -44.5t11.5 -42.5q-10 -6 -17.5 -11t-17.5 -5q0 -4 -2 -16.5t-15 -12.5q0 -8 12.5 -13t25 -6t18.5 4t-4 15zM1067 662q-10 -6 -13 -16.5t-24 -4.5q0 -29 14.5 -49.5t14.5 -52.5q8 -6 12 -7.5t7 -1.5 t6 -3t12 -11q6 2 5 9t-1 14.5t3 10.5t15 1q0 -33 -8 -56.5t-35 -29.5q0 12 -2 20.5t-14 8.5q-16 -4 -10 -9.5t-5 -11.5q10 -33 38 -44t57 -21q6 6 8 15t5 18.5t10 16.5t22 7q10 2 12 -2t3 -10.5t4 -11.5t16 -5q-6 33 -16.5 36t-18.5 9q0 70 -34 109t-83 72zM813 1255 q4 10 6 27.5t-20 24.5q-6 -10 -4 -28t18 -24zM471 915q16 4 20.5 18.5t8.5 24.5h-35q4 -10 0 -26.5t6 -16.5zM834 762q6 35 -7.5 44t-35.5 15q6 -23 11 -41t32 -18zM776 727q-4 -29 -12 -47t-13.5 -34.5t-1 -33t26.5 -39.5q6 -27 -6 -40t-22 -25q8 -35 11 -65.5t10 -58.5 t21.5 -51.5t43.5 -41.5q6 10 5 21.5t11 15.5q51 2 67.5 34.5t20.5 77.5t7 90t28 72q-16 29 -22.5 58.5t-28.5 50.5q-27 6 -44.5 13t-32 11t-29.5 3t-40 -11zM1145 342q0 10 10 15t6 28q-6 0 -9 6t-13 2q-4 -16 -7 -28.5t13 -22.5zM776 219q23 -4 32 3t19 -3q0 16 -7 24.5 t-16 13.5t-19.5 10t-16.5 16q-23 -20 -15.5 -34t23.5 -30z" />
<glyph unicode="%" d="M911 1305q2 8 9.5 9t13.5 -3t10 -12.5t-2 -16.5q-18 -6 -19.5 8.5t-11.5 14.5zM348 877q16 -6 16.5 -30t0.5 -40q-14 0 -17.5 5t-2.5 14.5t3 23t0 27.5zM1004 821q10 -6 20 -10t10 -20h-37q0 12 3.5 18t3.5 12zM623 711h30q0 -10 -4 -14.5t-4 -16.5q-6 8 -14 11.5 t-8 19.5zM537 377h45q-12 -49 -45 -72v72zM926 299q23 0 42 -8t19 -31q-23 4 -36 -1t-25 1q-10 10 -2 15.5t2 23.5zM1120 1415q6 0 22.5 3t41.5 3q0 -23 6 -30q-12 0 -10 -5.5t9 -13.5t16 -18.5t16 -18.5q-16 -16 -28.5 -47t-2.5 -61q-20 2 -26.5 -8.5t-11.5 -22.5 t-11 -23.5t-27 -7.5q8 -14 3 -24.5t-11 -19.5t-10 -18t8 -24q-29 2 -38 -15t-16.5 -40t-18.5 -40t-44 -15q0 -14 6 -22.5t14.5 -15.5t14.5 -15.5t6 -22.5q-23 -8 -29 0t-18 14q-6 -20 -22.5 -39.5t-28.5 -38t-14.5 -38t18.5 -39.5q-6 -6 -17.5 -7.5t-21.5 -2.5t-20.5 -4 t-12.5 -11q-4 -16 5.5 -22.5t2.5 -24.5q-12 0 -17 -6t-8 -13.5t-7 -13.5t-13 -6q0 -12 6.5 -16t12.5 -5.5t12 -4.5t6 -11q20 0 26.5 8.5t7.5 20.5t2 25.5t13 21.5q29 -4 50.5 4t11.5 43q23 -2 39 8t28.5 19.5t23.5 13.5t26 -10q6 6 0.5 9t-0.5 15q23 -18 44 1.5t50 37.5 q35 6 42 -16.5t11 -46.5h70q-8 -25 -4 -42.5t13 -30.5t21.5 -24.5t24.5 -25.5q-16 -31 -12 -61.5t4 -71.5q-12 0 -16.5 -5t-5.5 -11.5t-4 -11.5t-11 -5q0 -10 7 -24.5t7 -36.5q-23 -2 -34 -16.5t-18 -31t-17.5 -33t-30.5 -22.5q0 -16 1 -40.5t-11 -35.5q-23 4 -32 2t-38 -2 q-14 -33 -41 -43t-60.5 -10t-69.5 3t-69 1q-12 41 -39.5 62.5t-62.5 31.5q-6 23 6 27t16 21q-14 8 -20 26.5t-5 36.5t7 35.5t18 25.5q-12 12 -20 25.5t-2 36.5q16 8 26.5 25.5t26.5 21.5q-6 12 -14 14t-17.5 0t-18.5 -3t-17 5q-25 -29 -41.5 -57.5t-22.5 -75.5 q-12 -18 -31.5 -39.5t-34 -46t-19.5 -48t13 -44.5q-6 2 -11 -1t-9 -5t-7 -1t-3 13q-12 -33 -33 -57.5t-42.5 -50t-40.5 -55t-26 -70.5q-14 0 -24 -5t-21.5 -10.5t-23.5 -10.5t-31 -5q0 18 -5 30.5t-10 24t-10.5 24.5t-5.5 32q8 6 31 6q2 31 10.5 46t15.5 29.5t11 31t2 48.5 q41 23 64.5 55.5t52.5 61.5q0 12 -6.5 21.5t0.5 25.5q20 12 38.5 29.5t30.5 39t15.5 48.5t-9.5 55q37 0 53.5 18.5t30 40t29.5 40t51 18.5q-20 53 -1.5 77.5t46 45t49 47.5t9.5 82q27 0 41 12.5t25 27.5t22.5 30.5t29.5 21.5q0 18 -11 33.5t-5 44.5q29 -4 42 6t20.5 27.5 t14.5 38t25 36.5q-14 12 -34.5 24.5t-36.5 0.5q12 -10 21 -16t9 -31q-23 -8 -41 -1t-30.5 22.5t-18.5 37t-4 41.5q25 8 41.5 18.5t34.5 19.5t43 17.5t61 14.5q-4 -14 -6 -22.5t-4 -14.5t-3 -13t-1 -20q10 6 11 22.5t20 16.5q-6 12 -9.5 22.5t-15.5 18.5zM1139 596 q-16 0 -18.5 -8t-14.5 -8q-10 0 -15.5 10t-23.5 6q0 -18 -6 -25.5t0 -29.5q-33 -6 -49.5 -25.5t-22.5 -46.5t-6 -57.5v-59.5q14 12 27.5 13.5t26 -3t24.5 -11.5t24 -13q12 6 13.5 15t1.5 19.5t2 19.5t14 16q8 0 12.5 -5.5t7.5 -9.5t8 -8t17 0q2 27 15.5 49.5t23.5 44t11 42 t-19 44.5q18 0 25.5 -7t15.5 -17q10 10 8 31.5t-2 37.5q-35 6 -55.5 24.5t-61.5 22.5q0 -16 11.5 -27t5.5 -34zM537 305q33 23 45 72h-45v-72zM926 260q12 -6 25.5 -1t35.5 1q0 23 -19.5 31t-41.5 8q6 -18 -2 -23.5t2 -15.5zM537 1268q47 -8 83.5 0t77.5 30q12 -12 20.5 -15 t-3.5 -26q12 12 28.5 19.5t32.5 11.5q12 4 15.5 -1t5.5 -12t4 -13.5t14 -4.5q8 0 7 4.5t-4 7.5t-2 5t15 0q-14 16 -4.5 22.5t25.5 7.5t30.5 0t12.5 1q12 -4 18.5 -19.5t12.5 -28.5q-23 -29 -56.5 -28.5t-68.5 -16.5v-30q0 -27 30 -17q6 -25 1 -37t-13 -21t-16 -20.5 t-8 -31.5q4 -10 20 -13.5t16 -25.5q-47 -16 -74.5 -68.5t-11.5 -109.5q-33 -10 -61.5 -34t-57 -45.5t-60 -33.5t-70.5 2q-10 -16 -24.5 -31.5t-37.5 -15.5q0 35 -27.5 52.5t-50.5 33.5q0 18 8.5 25.5t15.5 15.5t11 18.5t-4 34.5q27 -20 62.5 -24.5t70.5 6t60.5 35t31.5 61.5 q20 -4 33.5 4t22 19.5t15.5 24.5t15 24q0 16 -6 28.5t-16 26.5q6 16 19.5 20.5t13.5 16.5q0 18 -6.5 28.5t-14.5 18.5t-14 18.5t-6 28.5q-49 8 -83 -2t-59.5 -31.5t-47 -48.5t-44.5 -49q0 -25 10.5 -33t6.5 -33q-31 6 -42.5 -9t-17.5 -36.5t-12 -39t-23 -15.5 q-16 0 -28.5 24.5t-18.5 55.5q8 6 31 6q6 35 5 50.5t-11 43.5q23 12 44 23.5t17 46.5q12 -4 12.5 -9t-2 -11.5t-3.5 -11.5t8 -7q8 2 15 11t13 18.5t12.5 13.5t14.5 -4q0 29 6 42t16 36q14 -6 24.5 -14.5t39.5 -0.5q6 2 2 6.5t-9 11.5t-9 16.5t2 21.5z" />
<glyph unicode="&#x26;" d="M834 805q-23 14 -34.5 16t-25.5 2q8 -37 -6 -63.5t-14 -54.5q14 -14 29.5 -33t33 -34t39 -22.5t45.5 0.5q23 31 55.5 50.5t68.5 38t68.5 38t55.5 50.5q37 -4 59.5 -17.5t40 -30t34.5 -34t44 -27.5q0 -23 -7 -45.5t-11 -43t-2 -35.5t20 -23q-53 16 -78.5 -8.5t-38.5 -61.5 q-10 8 -17 9t-24 1q8 23 -2 35t-18 35q-14 -16 -39 -25.5t-39 -25.5q0 -23 10.5 -32t20.5 -18q0 -10 -3 -15t-6 -8t-5.5 -8t2.5 -16q-10 -4 -15.5 -4t-8.5 3t-8 6.5t-18 3.5q8 -23 21.5 -37.5t26 -28.5t21.5 -30.5t9 -41.5q47 -31 95.5 -24.5t64.5 73.5h80q-8 -23 1 -34 t9 -25q23 8 33 39t-4 59q12 -4 15 0t6 9.5t8.5 9.5t19.5 2q8 -23 0 -37t0 -43q27 -49 12.5 -81t-42 -59.5t-56.5 -57t-33 -70.5q-43 4 -90 5t-90 7t-79 23.5t-58 54.5q-59 0 -108.5 -13.5t-94.5 -32t-89 -39t-93 -34.5q-14 0 -21.5 6t-11.5 13.5t-9 13.5t-18 6 q-63 -4 -110 17.5t-81 60.5t-57.5 88t-37.5 100q16 23 27 43.5t1 57.5q-33 33 -30.5 64.5t18.5 65t34.5 69.5t18.5 77q49 18 67.5 55t19.5 85t-7 101.5t-12 104.5q4 12 2 17.5t-8.5 8.5t-12.5 8t-10 17q16 59 34.5 112.5t35.5 113.5q12 -10 21 -9.5t17.5 8t15.5 19.5t13 23 q8 4 11.5 1t5.5 -7.5t5 -9.5t9 -5q8 8 14 16.5t6 24.5q23 -8 43.5 -1t38 15.5t31.5 8.5t25 -23q10 8 21 14.5t20 16.5q8 -8 18 -13.5t20.5 -11.5t17.5 -17t11 -30q12 4 21.5 2t15.5 -3t10 2t4 20q14 -4 21.5 -15.5t13.5 -20.5t15.5 -12.5t27.5 7.5q4 -33 22.5 -85.5 t25 -105.5t-11 -96t-85.5 -57q14 -23 5 -35.5t-25.5 -24.5t-28.5 -29.5t0 -50.5q-23 16 -20.5 17.5t2.5 -35.5zM713 1290q-23 -10 -39.5 -4t-38.5 12q0 -23 -8.5 -41t-1.5 -47q-33 0 -51.5 -13t-28.5 -33.5t-15.5 -45t-13.5 -47.5q8 -12 16.5 -21.5t13.5 -19.5t6 -22.5 t-7 -26.5q23 -6 40 -13t40 -16q0 -8 -4.5 -11t-9.5 -5t-8 -7t1 -16q49 -8 89 6.5t74 38t64.5 52t61.5 51.5q0 31 -5 56.5t-5 62.5q-16 18 -27.5 21t-21 4t-16.5 6.5t-13 27.5q10 -8 16 -3t7 14.5t-1 18.5t-6 9q-12 0 -34.5 8t-53.5 -8q-4 4 -5 17.5t-3 23.5t-5 15t-7 -7v-37 zM524 616q-10 -8 -18 -9t-17.5 1t-21.5 5t-31 3q0 -53 -15 -87.5t-24 -82.5q4 -6 10.5 -8t12.5 -2t11 -1t5 -7q-18 -59 7.5 -100t73.5 -69t105.5 -42t102.5 -18q0 23 5 28.5t13.5 5.5t18.5 -1t22 8q2 31 6.5 62.5t4.5 63t-6.5 60.5t-24.5 51q-41 6 -63.5 30.5t-38 54.5 t-32 58.5t-44.5 45.5q-31 0 -43.5 8t-34.5 2q-4 -16 -1 -23.5t9 -11.5t9 -9.5t-1 -15.5zM813 457q8 4 15.5 3t13.5 0t11 6t9 21q-8 10 -19.5 7.5t-20.5 -11t-13 -17.5t4 -9zM367 219q23 0 34 -9t19 -20.5t18.5 -20.5t28.5 -9q-8 45 -34.5 61.5t-55.5 38.5q0 45 -10.5 75 t-38.5 52q-4 -37 1 -56.5t12 -33.5t14.5 -30.5t11.5 -47.5zM1118 141q12 20 9 41t-15 34t-33.5 20.5t-48.5 3.5q16 -31 34.5 -58t53.5 -41zM1257 102q0 35 -22.5 41.5t-44.5 6.5q0 -29 16 -38.5t51 -9.5zM586 61q18 4 30.5 12.5t23.5 16.5t23.5 14.5t30.5 6.5 q-23 23 -48 29.5t-71 0.5q-8 -23 -2.5 -40t13.5 -40zM705 121q8 4 19 3t21.5 -1t16.5 3t2 15h-59v-20z" />
<glyph unicode="'" d="M813 1542q16 0 18.5 -10t18.5 -4q14 -10 7 -14.5t-7 -14.5q29 23 50.5 16.5t53.5 -16.5q6 -51 3 -109.5t-3 -117.5q-10 -6 -14 -19.5t-14 -17.5q6 -29 2 -54.5t-12.5 -51t-17.5 -49t-15 -46.5q-25 -4 -42.5 -3t-33.5 18q0 16 11 20t18 10q-18 8 -36 26.5t-28 42t-14 49.5 t4 44q-16 16 -18.5 40t-2.5 69q0 16 3.5 29.5t3.5 23.5q0 23 -4.5 52.5t18.5 57.5q23 -10 35 1.5t16 27.5z" />
<glyph unicode="(" d="M1001 1440q6 0 8.5 -5t10.5 -5q-6 -14 -14.5 -20.5t-16.5 -10.5t-17 -7t-20 -10q14 -23 6 -38t-16 -29q23 2 31 12t11 20.5t7 20.5t19 14q16 8 30.5 -8t36.5 -31q-25 -8 -42 -23t-29.5 -33.5t-22.5 -39t-20 -39.5q-29 0 -29 19q-14 -43 -41 -81t-51.5 -77t-41 -80 t-12.5 -92q-8 -8 -15 -9t-13 -1q-8 -57 0 -99.5t8 -93.5q-6 -8 -17.5 -10t-11.5 -10q0 -23 15.5 -29t23.5 -29q-6 -18 -3 -36.5t11.5 -37t17.5 -36t13 -35.5h39q0 -20 -29 -20h19q8 -14 -1 -17.5t-9 -11.5q14 -10 26 -26.5t23.5 -31t25 -23.5t31.5 -5q-6 -14 -4 -24.5 t7 -19.5t11.5 -19.5t6.5 -24.5q6 4 13 3t13 -2t9 0t3 9q6 -16 19.5 -42t28.5 -54q10 0 19 -4t17.5 -7.5t16.5 -2t14 13.5q10 -16 15.5 -31.5t5.5 -38.5q-10 4 -12.5 -1t-3.5 -12t-5 -13.5t-18 -2.5v-67q-18 8 -33.5 16t-31 13.5t-33 6.5t-37.5 -7q-8 23 -19.5 33t-19.5 26 q-25 -18 -34 -4t-17.5 35.5t-23.5 39t-52 7.5q0 14 11 17t19 11q-8 14 -22 17.5t-37 11.5q0 14 -8 24.5t0 32.5q-29 0 -38 4.5t-32 -4.5q4 23 0 43.5t-9 41t-9 43t0 47.5q-10 4 -16.5 3t-12.5 -3t-12 -5.5t-17 -3.5q0 14 -6 19.5t-6 27.5q10 0 11 -6t1 -12q10 6 19.5 8 t15.5 5t9.5 9.5t3.5 24.5q-6 0 -8.5 6t-10.5 6t-12 -5t-8.5 -9t-8.5 -7t-12 1q0 6 -5 4t-13 4q6 31 8 49.5t1 34.5t-6 34.5t-14 47.5q23 8 35.5 17.5t34.5 3.5q-8 23 -30.5 27.5t-39.5 19.5q18 10 24.5 30.5t11.5 43t13.5 45t30.5 36.5q-8 23 -4 40.5t4 45.5q10 0 15.5 3 t8.5 8.5t8 10.5t15 9q-8 14 -10 22.5t-8 14.5q6 16 18.5 13t20.5 -13q-4 18 1 39.5t13 43t13.5 40t1.5 33.5q0 16 9 16t9 -16q23 12 33 33.5t19 43t22.5 39t42.5 21.5q23 29 55 46t61 40zM797 1188h39q0 16 -15.5 19t-23.5 10v-29zM623 588q8 -8 15 -4t15 4q0 39 -39 39 q0 -16 1.5 -23.5t7.5 -15.5z" />
<glyph unicode=")" d="M885 1145h35q-8 -6 -9 -35q-14 0 -17 11.5t-9 23.5zM936 1128q20 0 21 -10t16 -16q14 0 10 6t-10 20q12 0 18 -7t9.5 -18t3.5 -23.5t4 -20.5q-6 6 -12.5 7t-14.5 1q8 -20 12 -29.5t-2 -23.5q-8 14 -18 9t-10 -17q-25 20 -38.5 36.5t-39.5 40.5q14 14 32.5 19.5t18.5 25.5 zM797 227q20 -6 14 -9t-6 -15h-17q-8 12 0.5 15t8.5 9zM885 1145h-45q0 4 -4 8q-2 2 -5 2q0 14 9.5 18.5t9.5 16.5q-14 14 -53 0q0 14 -3 23.5t-24 3.5q0 6 5 12t13 6q-4 -2 -6 0q-4 0 -4 8q-10 4 -13 2t-3 -6t-2 -6t-8 2q-4 12 -12.5 20.5t-17.5 14.5t-18.5 14t-13.5 21 q-14 -6 -19 -12.5t-24 -6.5q-10 6 -10 16.5t1 18.5t0 14t-11 6q14 6 17 15.5t3 19.5t1 19.5t7 15.5q6 0 4 -10t5 -15q14 0 13 6.5t13 -6.5q0 18 -4 27.5t-4 24.5q14 0 16 -7.5t2 -19.5q6 0 10.5 6t-1.5 21q37 0 57 -13.5t37.5 -31t37 -30.5t52.5 -13q-14 -27 3 -52.5 t50 -17.5q12 -41 26.5 -71.5t0.5 -63.5q-14 0 -19.5 20.5t-23.5 24.5q12 -18 3 -19.5t-23.5 1t-24.5 0.5t0 -27zM797 1350q2 10 -4.5 14t-12.5 7t-9 7t7 15h-26q6 -12 15.5 -27.5t29.5 -15.5zM752 1393h26q-10 -10 -7 -14.5t9 -7.5t12.5 -7t4.5 -14q-20 0 -29.5 15.5 t-15.5 27.5zM893 350q20 0 19 -10t-1 -23q-6 0 -13 -1t-13 -9q-8 0 -3 19.5t11 23.5zM1071 979q18 -66 25.5 -126t-0.5 -114q14 -20 21 -44.5t16 -51.5h-27q-6 -16 -2 -24.5t11 -14.5t13.5 -12t4.5 -21q-20 0 -35 -5t-27 -13v-59q-10 0 -16 -6.5t-11.5 -12.5t-11.5 -12 t-16 -6q0 -39 -3 -74t3 -76q-18 0 -29.5 -9t-32.5 -9q0 -18 1 -37t8 -33q-23 -37 -52.5 -65.5t-62.5 -55t-66.5 -52.5t-64.5 -56q-20 20 -41 16t-49 2q-18 20 -20.5 41t2.5 42.5t8.5 43t-7.5 39.5q29 0 45.5 15.5t16.5 56.5q39 -4 62.5 9t40 30.5t32.5 36t43 28.5 q6 14 -2 18.5t-8 18.5q31 10 57.5 17.5t48 18.5t33.5 30.5t12 56.5q27 -6 34 9.5t1 33.5q-4 -16 -12 -16t-17.5 6t-18.5 15t-15 13q6 10 9 25.5t7 32t10 33t19 26.5q-20 23 -25.5 49.5t-5.5 53t1 54t-5 54.5q10 0 15 6t9 14.5t12.5 12.5t24.5 2q2 14 -3 16t-13 2t-12.5 2 t2.5 17q10 6 16 7t12 0t13.5 -2t21.5 3zM885 307q6 8 13 9t13 1q0 12 1 22.5t-19 10.5q-6 -4 -11 -23.5t3 -19.5zM788 203h17q0 12 6 15t-14 9q0 -6 -8.5 -9t-0.5 -15z" />
<glyph unicode="+" d="M326 629h83t87 28q4 -8 13 -19t13 -20q29 27 49.5 28t39 -2t36 0t41.5 34q25 -14 49.5 -18.5t49 -1t51 12.5t59.5 19q31 -16 69 -12t76 41q12 -31 28.5 -39t34 -2t35 23.5t34.5 37.5q6 -6 11 -15t10 -16.5t11 -10.5t15 5q4 4 -3.5 16.5t-5.5 26.5q16 2 22.5 -4t16.5 -8 l-16 -16q10 4 22.5 2t22.5 -2t20.5 5t18.5 26q4 -10 9 -19.5t7 2.5l3 -12t1 -7v-8.5t4 -15.5q20 -8 41 6q10 -27 13.5 -48t11.5 -38q-25 -35 -50.5 -51t-51 -25.5t-55 -14.5t-64.5 -19q-16 20 -31.5 27t-32 4t-35 -12t-42.5 -19q-23 25 -53.5 21.5t-69.5 -25.5 q-31 25 -67 26.5t-71.5 -2.5t-71.5 -3t-67 26q-16 -20 -36.5 -21.5t-45 3.5t-49 11.5t-47.5 2.5q-12 14 -6 17t4 13q-16 -2 -13 -15t1 -30q-18 6 -44 5t-47.5 5.5t-33.5 27t-4 69.5zM588 535q16 16 25.5 22t23.5 8q-2 16 -5 19.5t-8.5 2.5t-8.5 -3t-5 2q6 6 15 12 q0 12 -4.5 14t-8.5 2t-7 1t-3 12q-8 -16 -25.5 -32.5t-7.5 -45.5q6 4 8.5 3t10.5 -17zM1032 594q-12 12 -37.5 12t-33.5 -31q16 6 33.5 15.5t37.5 3.5zM907 1108l-4 -82t27 -88q-8 -4 -19.5 -13.5t-21.5 -11.5q27 -31 28 -51t-3.5 -37.5t-1.5 -36t32 -43.5 q-31 -51 -22.5 -97t26.5 -111q-18 -31 -15 -69t40 -79q-33 -12 -42 -27.5t-3 -33t23.5 -36t35.5 -34.5q-6 -6 -15 -11t-16.5 -9.5t-10.5 -11.5t5 -15q4 -4 16.5 3t26.5 5q0 -16 -6 -22.5t-8 -16.5l-16 17q4 -10 2 -21.5t-3 -23t4 -21.5t25 -18q-10 -4 -19 -9.5t3 -7.5 q-18 -6 -21.5 -3t-23.5 -3q-8 -20 6 -41q-27 -10 -48.5 -12t-39.5 -10q-35 27 -49.5 52t-22.5 52t-13 56.5t-18 64.5q20 16 27.5 30.5t6.5 31t-10 36t-17 43.5q25 23 23.5 52.5t-23.5 70.5q27 31 28.5 65.5t-0.5 71.5t0 72t27 66q-18 16 -19.5 37.5t5 45t12.5 48t4 47.5 q16 12 18 5t13 -5q0 16 -13.5 14t-29.5 0q8 18 8 44t6 47.5t26.5 32.5t69.5 1zM803 850q16 -16 22 -25.5t9 -23.5q16 0 19 4t2 8t-3 7t2 5q6 -6 12 -14q12 0 14.5 3t2.5 8t1 8.5t11 3.5q-16 8 -32.5 25.5t-43.5 8.5q4 -6 2 -8t-18 -10zM848 403q12 12 13 38t-30 36 q6 -18 14.5 -36t2.5 -38z" />
<glyph unicode="," d="M1001 260q10 -39 17.5 -68.5t16.5 -56t19.5 -52.5t26.5 -58q-27 -4 -39 -22.5t-13 -42t8.5 -45t25.5 -32.5q-41 -59 -80 -119.5t-51 -142.5q-31 0 -49.5 -10t-37 -20.5t-41 -19.5t-59.5 -5q-4 33 -0.5 50t5.5 29.5t0 27t-13 42.5q2 -23 23.5 -24.5t45 -0.5t43 -2 t19.5 -26q16 8 26.5 15.5t10.5 19.5q-12 20 -34.5 23.5t-34.5 -23.5q-10 6 -14.5 20.5t-5.5 27.5t-4 25.5t-11 16.5q18 33 42.5 60.5t53.5 62.5q-4 12 -12 22.5t-18.5 20.5t-19.5 23.5t-11 29.5q-35 0 -56.5 1t-38 4t-31 6t-34.5 8q4 33 -10.5 69.5t-23.5 70.5t-2 59.5 t54 35.5q20 8 28.5 29.5t14.5 48.5q33 18 67 14t66.5 -19.5t65 -36t65.5 -36.5z" />
<glyph unicode="-" d="M276 625h85.5t91.5 24q4 -8 13 -17t13 -16q31 23 52.5 24t40 -1t37 0t42.5 29q53 -25 101.5 -18t113.5 28q35 -16 73 -12t79 36q14 -27 30.5 -33.5t35 -1.5t36 20t33.5 32q6 -4 11 -12.5t10.5 -14.5t11.5 -8t16 4q4 4 -3 14.5t-5 22.5q16 2 22.5 -3t16.5 -7l-4 -4 q-2 -2 -5 -5.5t-7 -5.5q12 4 23 2t22.5 -2t21.5 5.5t19 21.5q4 -8 10 -16.5t8 2.5q6 -14 3 -17.5t5 -19.5q20 -8 41 6q10 -23 14.5 -41t12.5 -35q-27 -31 -52.5 -45t-53 -21.5t-58.5 -11.5t-66 -16q-16 18 -31.5 23.5t-32 3.5t-35.5 -10.5t-44 -16.5q-27 20 -57.5 18 t-71.5 -22q-31 23 -67.5 23.5t-74.5 -2.5t-75 -3t-68 23q-16 -18 -38.5 -19.5t-47 3t-50 9.5t-48.5 3q-12 12 -5 15t3 11q-16 -2 -13 -13t-1 -26q-18 6 -45 5.5t-48.5 4.5t-35 22.5t-5.5 60.5zM547 543q18 16 27.5 21t23.5 5q0 14 -4 17.5t-8 2.5t-8.5 -4t-6.5 1q6 6 15 12 q0 10 -4 12t-8.5 2t-8.5 1t-4 10q-8 -16 -24.5 -30.5t-6.5 -37.5q4 4 6.5 3t10.5 -15zM1008 594q-14 10 -41 11t-33 -25q16 4 33.5 12t40.5 2z" />
<glyph unicode="." d="M893 248q14 -20 39.5 -27.5t40.5 -34.5q-6 -29 -4 -38t22 -15q0 -47 -22.5 -73.5t-54 -37t-68.5 -8.5t-68 13q-41 27 -50 68.5t7.5 78.5t57.5 60.5t100 13.5z" />
<glyph unicode="/" d="M1286 1339q-31 -49 -63.5 -101t-42.5 -122q-10 0 -25.5 -7t-26.5 -7q0 -49 -14 -75t-30.5 -46t-28 -44t-4.5 -69q-61 -51 -89 -112.5t-59 -151.5q-39 -31 -64.5 -80t-25.5 -116q-35 0 -53.5 -15.5t-25.5 -40t-6 -55.5t5 -61q-10 -4 -21.5 -5.5t-21.5 -4.5t-16 -9t-6 -20 q0 -10 14 -6t25 -7q-10 -20 -19.5 -25t-19.5 -16v29q-4 -16 -14.5 -28.5t-19.5 -26t-12.5 -28.5t7.5 -36q-10 0 -23.5 -1t-3.5 -11q-18 0 -19 6t-22 6q-10 -10 -17 -22.5t-7 -30.5q-31 0 -51.5 6t-41.5 6q-10 49 -5 88t19.5 77t32 77t33.5 88q29 8 45.5 23.5t26.5 37t16 49 t17 62.5q39 18 60.5 57t31.5 99q43 25 70.5 67.5t52 89.5t53.5 91.5t72 68.5q-4 29 10 56.5t36.5 54t46 54.5t38.5 56q10 4 14 3t5 -4t2 -7t7 -4q10 18 -4 23.5t-24 15.5q20 20 38.5 52t40 54.5t47 27.5t60.5 -30zM1010 1065q0 -31 -1 -45t-12 -33q14 -6 19.5 -3t8.5 9 t4 12.5t5 6.5v-25q10 -6 14.5 -3t7.5 8t6 8.5t13 -1.5q-4 8 -5 21.5t-4 26t-10 21.5t-22 9q0 -10 -3 -11t-21 -1zM721 485q10 4 21.5 15.5t18.5 26t8 28.5t-9 25q-10 -23 -14.5 -47.5t-24.5 -47.5z" />
<glyph unicode="0" d="M494 1313q2 -18 19 -17.5t37.5 14t37 35t20.5 44.5q37 -8 60.5 4t29.5 34q84 2 152 7.5t125 -3t106 -35t97 -83.5q4 -20 22.5 -26.5t40.5 -6.5q10 -41 31.5 -72.5t41 -62.5t32 -67t2.5 -85q14 -8 19 -21.5t24 -13.5q-6 -55 -4 -100t45 -65q-12 -10 -22.5 -26.5 t-18.5 -27.5q14 -90 -0.5 -180t-46 -175t-76.5 -161t-90 -137q-49 -6 -84 -16.5t-50 -49.5q-12 12 -39.5 18.5t-53 5.5t-41 -11t-3.5 -31q-16 6 -37.5 4t-41 -8t-34 -12t-20.5 -6q-18 6 -33.5 22t-31 31.5t-34 20.5t-42.5 -9q-10 37 -43 59.5t-88 22.5q-12 37 -35 71.5 t-44.5 69.5t-36.5 71t-15 77q-25 33 -44.5 84t-27.5 104t-1 104.5t32 84.5q0 27 -13.5 39t-13.5 36q20 6 28.5 20.5t8.5 34t-6 40t-12 38.5q25 -6 26.5 4.5t11.5 10.5q-6 43 8.5 64.5t33 39t34 39t8.5 64.5q43 0 53.5 26.5t-3.5 63.5zM1036 1343q0 8 8.5 10.5t8.5 8.5 q-12 0 -21.5 3t-9.5 24q-27 -8 -33 1t-18 13q-6 -12 -18.5 -12t-27 2t-30.5 -1t-33 -22q25 0 45.5 2t39 1t39.5 -7.5t50 -22.5zM756 1362q51 0 75 27q-33 0 -47 2t-28 -29zM657 1321q25 0 33 8t8 33h-30q0 -14 -5.5 -20.5t-5.5 -20.5zM1151 1305q-10 0 -12 11t-2 27 q-18 0 -35 -3t-17 -19q6 2 15.5 -2t18.5 -10t17.5 -8t14.5 4zM1192 868q-4 12 -1 18.5t7 11.5t8 11t4 17q-29 57 -57.5 117.5t-65 109.5t-85 80t-113.5 31q-41 0 -71 -12.5t-57.5 -32t-59 -41t-74.5 -39.5q0 -14 -5.5 -23.5t-13.5 -16.5t-15 -16.5t-9 -25.5q0 -18 2 -38 t14 -26q-27 -14 -48.5 -22t-35.5 -19q4 -63 -5 -130.5t-12 -133t9 -125t57 -104.5q-6 -27 2 -38t8 -32q37 -2 50.5 -28.5t25 -56.5t31.5 -50.5t70 -11.5q4 -10 6 -24.5t24 -6.5q18 -4 29.5 0t21 9t21.5 9t35 -2q31 -31 57.5 -25.5t50 23t45 34.5t43.5 9q2 49 26 90t46.5 78 t33.5 72t-7 72q20 20 35.5 37.5t37.5 37.5q0 25 -5 41.5t-9 30.5t-2 27.5t16 29.5q-12 27 -31.5 43t-33.5 41zM371 739q12 -20 12 -42.5t12 -37.5q0 10 33 11q-8 27 -15 45t-18 28q1 -4 -24 -4zM1192 348q20 -6 34.5 -1t24 14.5t16.5 19.5t17 16q-12 0 -7 19.5t-1 34.5h-57 q2 -20 0 -29.5t-7.5 -17t-11.5 -19.5t-8 -37zM1102 233q18 0 23 6.5t6.5 15.5t0 16.5t5.5 11.5h-35v-50zM1128 211q8 -4 17.5 2t16.5 15.5t10.5 18.5t-3.5 13q-14 -14 -27.5 -23.5t-13.5 -25.5zM1022 143q16 8 17 35t14 41q-14 2 -29.5 -7t-24 -23.5t-4.5 -28t27 -17.5z M862 143q-6 -12 -2 -16t12.5 -4t19.5 2t19 2q0 20 -20.5 22t-28.5 -6z" />
<glyph unicode="1" d="M676 1393q14 16 23.5 11t19.5 -15.5t23.5 -18.5t33.5 2q-4 -10 -7 -24.5t-2 -26.5t9 -21.5t29 -9.5q10 0 13 10.5t2 23.5t-3 27.5t-2 20.5q10 -10 23.5 -15t27 -7t27.5 -5.5t25 -9.5q6 -25 1.5 -40t-10.5 -27.5t-13 -24.5t-7 -29q8 -18 13 -23t11.5 -6t13.5 -1t17 -6 q16 -98 -26 -160q20 8 30 -16.5t9 -58.5t-12 -66.5t-36 -42.5q27 -31 34 -82.5t7 -110.5t-1 -121.5t14 -113.5q18 -4 26 1t15.5 13t16.5 15t26 7q-14 -18 -11.5 -33.5t12 -29.5t20.5 -28.5t15 -28.5q31 4 46.5 11t20.5 17t5 24.5t4 31.5q20 -14 25.5 -29t5.5 -32t3 -38.5 t21 -48.5q25 0 42.5 9t32 19.5t29.5 20.5t36 15q59 -14 92 -55.5t40 -91.5t-12.5 -101t-64.5 -86q-63 2 -117.5 -3t-106.5 -14.5t-104.5 -20.5t-107.5 -18q-14 14 -24.5 41t-30.5 43q-27 -25 -60 -28.5t-69.5 1.5t-74.5 13t-73 10t-62.5 -8t-43.5 -43q-35 31 -78 42 t-92.5 18.5t-100.5 15.5t-100 33q0 39 12 64.5t28.5 45t34 39t27.5 47.5q12 -6 25.5 -20.5t50.5 -7.5q-4 -10 -2 -18.5t6 -16.5t6 -19.5t-2 -29.5q25 0 31 5t4 16t-7 26.5t-1 36.5q18 8 28.5 11t17.5 3t15 -3t23 -11q6 -16 5 -25.5t-7 -16t-13.5 -11.5t-11.5 -11 q20 -8 46 -14t48.5 -5t36 12t8.5 36q-10 0 -18 4t-17.5 7t-20.5 3t-28 -8q4 14 12.5 25.5t12.5 20.5t0 16.5t-25 13.5q29 14 56.5 19t62.5 -11q20 49 29.5 102.5t14.5 111.5t9.5 122.5t14.5 138.5q-8 6 -19.5 18.5t-19.5 18.5q10 14 23.5 46t16.5 65.5t-8.5 61.5t-50.5 32 q25 49 24 80.5t-20.5 52t-53 32t-71.5 20.5t-77 17.5t-70 22.5q20 33 14 60.5t-14 68.5q4 2 13.5 3t17.5 4t13 9t1 19q14 4 18.5 -3t5.5 -17.5t3 -20.5t12 -15q10 8 8 20.5t-2 23t9.5 15.5t39.5 -3q6 -16 4.5 -24.5t-8 -13.5t-13.5 -10t-11 -16q35 -14 72.5 -16t73.5 -1 t68 1t56 -10q10 4 8 16t-11 25.5t-23.5 26t-28.5 16.5zM786 1018q0 8 6.5 14t12.5 6q-4 -8 -4 -22.5t2 -25.5t5 -13t7 16q0 16 4 26.5t8 20t6.5 21.5t0.5 33q-23 6 -34.5 -4.5t-15.5 -26.5t-3 -30.5t5 -14.5zM1141 238q0 -14 -10.5 -26.5t-18.5 -29.5q18 0 26.5 -7t14.5 -15 t13.5 -13.5t19.5 -1.5q0 14 7 19.5t21 -10.5q0 8 2.5 18t18.5 10q-8 29 -20.5 41.5t-28.5 34.5q0 -16 -12.5 -18t-32.5 -2zM1354 174q18 0 29.5 -8t20.5 -15.5t19.5 -8.5t24.5 12q0 29 -20.5 36t-26.5 19q0 -10 -6 -14.5t-13.5 -6.5t-15.5 -5t-12 -9z" />
<glyph unicode="2" d="M788 625v-39q-23 4 -40 -2t-35 -11q14 23 27 37.5t48 14.5zM575 76q-43 -4 -75.5 -2t-69.5 2q6 14 27.5 25.5t45 14.5t44 -5t28.5 -35zM506 1284q2 0 2 -11t-4 -25.5t-11.5 -25t-19.5 -8.5q0 -4 3 -9t3 -9q18 4 26.5 14.5t12.5 19.5t11.5 16t25.5 7q-16 0 -17 15.5t8 36 t26.5 41t39.5 32.5q18 0 19.5 -10t5.5 -20q41 47 106 69q0 -16 -5 -20t-1 -19q12 -4 17.5 -2t5.5 9.5t-1 15.5t-1 16q31 -2 57.5 1t50 4t46 -2t46.5 -17q14 -23 0 -41.5t-18 -46.5q-18 -2 -45 -2t-51.5 -5t-44 -16.5t-23.5 -38.5q-53 8 -90 -8t-64.5 -45t-50 -64.5 t-47.5 -64.5q-43 10 -74.5 3t-70.5 -23q0 43 8 74.5t22.5 58t31 53.5t32.5 59q6 2 10 -4t9.5 -11t8.5 -7t5 10zM606 190q10 0 7 -7t-7 -7q-4 -14 -2 -21.5t6 -11.5t9.5 -9t5.5 -13q-18 0 -22.5 -13.5t-14.5 -19.5q29 -10 58.5 -22.5t47.5 10.5q-6 14 -8 22t-3 16.5t-2 17.5 t-5 26q25 2 51.5 7t52 5t49 -10t41.5 -39q-23 0 -55.5 5t-71.5 -5v-33q12 -6 28.5 -12t32 -6t28 7t14.5 25q14 -16 31.5 -20t37 -2t42 3t44.5 -7q-2 20 -10 26.5t-18 5t-24.5 -4.5t-28.5 -1q2 12 -3.5 17.5t-12.5 10.5t-12 10t-3 18q25 -12 42 -11.5t36.5 5t44 7.5t65.5 -1 q4 -18 9.5 -26.5t-9.5 -22.5q10 -16 26.5 -19.5t31.5 -13.5q12 8 9 14t-10.5 13.5t-12.5 15.5t1 20q37 16 85 20.5t85 -9t53.5 -45t-10.5 -85.5q-29 -4 -52 -7t-46 -7t-47.5 -11t-54.5 -20q-47 18 -107.5 18.5t-107.5 -18.5q-12 0 -36 9.5t-49.5 15.5t-48 3t-28.5 -28 q-20 29 -49 20t-54 -20q-29 25 -58.5 26t-60 -6t-59 -15.5t-53.5 -4.5q-31 6 -48.5 22.5t-31.5 38t-27.5 44t-37.5 41.5q-4 35 11 63.5t32.5 57t28.5 59.5t-3 72q43 23 75 55.5t61.5 67t60 68.5t67.5 61q115 10 208 48t188 77q18 29 47.5 47t57.5 38.5t48.5 49t22.5 78.5 q2 6 9 7t13 1t11.5 2t5.5 10q-2 8 -9.5 7t-14.5 -5t-15 -5t-13 9q16 53 -2 97t-53 82t-76 71t-69 64q4 8 14 10t20.5 5t17.5 9t5 21q-4 4 -13 6t-18.5 6t-15.5 12t-4 25q25 6 39 -1t25.5 -14.5t21.5 -11.5t27 8q0 -41 -19 -49q12 -6 19.5 -15t13.5 -19.5t14 -18.5t23 -10 q14 2 16 6t1 9t-4 13.5t-1 20.5q14 0 23.5 -5t17.5 -9.5t18.5 -6.5t28.5 2q-10 -41 11.5 -77.5t64.5 -47.5q12 -33 14 -70.5t4 -74.5t8.5 -69.5t24.5 -55.5q-37 -8 -52.5 -25.5t-21.5 -44t-9 -58.5t-13 -68q-23 0 -35 -11.5t-45 -7.5q-8 -37 -29.5 -52.5t-48.5 -24.5 t-50.5 -21.5t-35.5 -44.5q-20 -4 -17 12t-3 31q-43 -18 -76 -37t-67 -34t-71.5 -28.5t-86.5 -19.5q-12 -6 -17.5 -19.5t-8.5 -29t-7 -30.5t-10 -28q-29 14 -45.5 4t-27.5 -29.5t-21.5 -42t-26.5 -34.5q4 -10 9 -25.5t12 -30t17.5 -19.5t24.5 7zM713 573q18 4 35.5 10.5 t39.5 2.5v39q-35 0 -48 -14.5t-27 -37.5zM1210 121q0 -45 43 -45q2 12 7.5 20t8.5 13.5t2 9.5t-11 8q2 -6 -3.5 -7t-12.5 0t-17.5 2t-16.5 -1zM430 76q37 0 69.5 -2t75.5 2q-8 27 -28.5 35t-44 5t-45 -14.5t-27.5 -25.5zM1260 127q10 -4 11 -8t-2 -9.5t-8.5 -13.5t-7.5 -20 q-43 0 -43 45q6 2 16.5 1t17.5 -2t12.5 0t3.5 7z" />
<glyph unicode="3" d="M932 1405q0 10 6 14t6 15q41 -23 81 -39.5t89 -26.5q-25 18 -16.5 33.5t27 19.5t35 -8t5.5 -45q6 14 11.5 11t11.5 -12t12 -21.5t17 -16.5q-10 -20 -24.5 -33.5t-30 -27t-26 -28.5t-10.5 -40q-49 -10 -90 -55t-51 -115q-20 0 -33.5 -6t-23.5 -14.5t-21.5 -16.5t-25.5 -12 q18 -41 34.5 -66.5t16.5 -64.5q29 0 50.5 19.5t2.5 58.5q96 0 117 -51q-20 0 -26.5 5t-26.5 -5q-10 -16 0 -24.5t22 -11.5t17.5 -4t-13.5 -1q0 -10 8.5 -11.5t18.5 -1.5t16 13.5t-4 13.5q14 14 26.5 12t25 -12t24.5 -22.5t27 -16.5q-4 -10 -17.5 -12t-27 -2t-23.5 -1 t-10 -12q41 -37 78 -77q0 2 2 6l4 4t8 2q0 14 -7 23.5t-13.5 17.5t-7.5 16t14 23q57 -39 79.5 -112t17.5 -155.5t-32 -164.5t-65 -140h-25q0 -29 -31 -51t-59 -51q-10 0 -7 -14.5t-8 -24.5q-10 -10 -32.5 -7t-32.5 -5q-18 -10 -24.5 -33t-26.5 -33q-68 -29 -131.5 -71.5 t-141.5 -71.5q-47 -18 -94 -48t-86 -30q-10 -4 -13 -3t-3 5t4 10h-30.5t-46.5 3t-53.5 8.5t-51.5 15.5q10 41 17 68.5t48 48.5q-10 -20 -8 -37t-19 -27q14 -14 31 -15t34 0t33.5 -2t31.5 -22q10 18 26.5 24.5t26.5 26.5q-10 14 -22.5 16.5t-25 2.5t-23.5 3t-21 17 q-10 -10 -11.5 -21t-1.5 -30q-4 0 -9 5t-10 10.5t-10 5.5t-10 -9q-10 4 -9 11.5t5 14.5t10.5 14.5t6.5 11.5q49 10 89 18t73.5 22.5t63.5 35t58 55.5q10 -10 21.5 -24.5t32.5 -4.5q29 23 54 44.5t36 60.5q20 0 44.5 -3.5t45.5 15.5q-10 10 -11 22.5t-1 30.5q33 4 66.5 20.5 t61 37t48 43t30.5 40.5q0 10 2 11.5t5.5 -0.5t8.5 -6.5t9 -4.5q-10 20 -11 36t2 31t6 30.5t3 33.5q10 0 20.5 6.5t20.5 6.5q10 41 -4 66.5t-37 35.5q14 20 13 35.5t-10 32t-18.5 35t-9.5 43.5q-25 0 -45 9t-39.5 18t-39 14.5t-44.5 -5.5q-49 31 -88 23t-74.5 -29.5 t-73.5 -42t-87 -16.5q-4 -14 -13.5 -24.5t-16.5 -18.5t-11 -16.5t0 -16.5q-18 18 -42 28.5t-73 10.5q10 18 10 30.5t-10 35.5q39 49 83 91t88 85t84 88t69 98q33 0 51 16.5t31.5 37t29 39t43.5 24.5q0 18 -8 29.5t-18 20.5t-18.5 20.5t-8.5 31.5q-78 10 -127 5t-80 -44 q-10 14 -25.5 22.5t-31.5 14.5t-32.5 12.5t-26.5 16.5q0 10 16 11t37 1q-18 57 -90 37q-6 -14 -3 -20.5t9 -9.5t12 -7t6 -12q-18 4 -33.5 -5.5t-28.5 -19.5t-26.5 -17t-27.5 3q0 8 4 14t7 13.5t5 18.5t-4 30q31 -10 42 4t11 37q39 -10 71 -7t57.5 6t45 0t33.5 -28 q29 20 44 19t26.5 -8t23.5 -14t37 3q14 -25 25.5 -36t21.5 -17t17.5 -13.5t11.5 -21.5q20 18 15 38.5t-15 49.5zM1049 1251q14 4 21 5t11 0t11.5 -3t21.5 -2q4 8 -7 13.5t-25.5 5.5t-25.5 -5.5t-7 -13.5zM997 1174q-20 10 -28 26.5t-37 26.5q0 -16 8 -27.5t19.5 -20 t22.5 -10t15 4.5zM686 901h53v39h-41q4 -10 3 -13t-4 -6t-7 -6.5t-4 -13.5zM1049 227q0 -29 18 -38t47 1q8 39 -18.5 48t-46.5 -11zM932 150q10 -10 7 -19.5t-7 -18t-7 -15.5t7 -11q10 18 21.5 21.5t31.5 3.5q-6 14 -3 20t9 10t12.5 7.5t6.5 13.5q-10 0 -15.5 -4t-12.5 -7.5 t-18.5 -4t-31.5 3.5zM791 20q18 -4 31.5 -0.5t23.5 10.5t17 15t18 14q-14 10 -28.5 9.5t-27 -9t-21.5 -20t-13 -19.5z" />
<glyph unicode="4" d="M803 1395q-14 -25 -9 -46.5t17 -44t23.5 -48t7.5 -58.5q4 -8 -3.5 -11t-15.5 -2t-13 6t1 17q-10 -12 -9 -24.5t4 -26.5t6 -28.5t-1 -28.5q-29 -14 -42 -37t-15 -48.5t7 -52t23 -49.5q-14 -4 -19 0.5t-7 10.5l-4 12t-9 6q-27 -23 -36 -60.5t-14 -77.5t-12 -78t-30 -60 q4 -10 14.5 -15.5t19.5 -11.5t15.5 -17.5t2.5 -33.5q18 -4 27 0t15.5 10t11.5 12t15 6q0 -23 15.5 -27.5t21.5 -21.5q8 4 9 14.5t1 21.5t1 20.5t9 13.5q14 4 23.5 3l19 -2t19.5 -3t29 2q14 4 17 9t3 12.5v16.5t8 19q14 8 26.5 11.5t23 6.5t20.5 8t20 15q-8 29 -20 58.5 t-49 29.5q8 23 24.5 28t16.5 21q-31 12 -30 46t6 72t2 71t-40 39q23 37 27 70.5t4 76.5q90 12 90 -78q53 0 37 60q37 -12 56.5 -51t22.5 -85t-9.5 -89t-38.5 -62q23 -35 29 -76t8 -87t4 -95t18 -96q43 10 64.5 -2.5t38 -30.5t38 -33.5t66.5 -11.5q0 -18 6 -25.5t11 -12.5 t7.5 -15.5t-6.5 -36.5q-23 4 -43 5t-34.5 -4t-20.5 -19.5t2 -39.5q-35 10 -58.5 2t-40 -25t-27.5 -41t-23 -46q23 -29 33 -59.5t-13 -67.5h-70v-41q8 -4 19.5 -7t23 -8.5t19.5 -14.5t8 -27q-23 0 -40 -11.5t-40 -19.5q-16 12 -35.5 30.5t-32 41t-12.5 45t23 41.5 q-31 29 -42 51t-48 37q6 53 -21.5 77.5t-77 31.5t-113 2t-125 -9t-114.5 -3t-82 21q-14 0 -14 -10t-16 -10q-29 2 -47.5 7t-32 12.5t-26.5 16.5t-32 21q29 68 57.5 134.5t80.5 103.5q0 59 11 96t27.5 67.5t34 61.5t27.5 80q0 6 -10.5 7t-18.5 1q41 14 50.5 59.5t14.5 95.5 t16 93t56 57q-10 4 -12 14.5t-3 19.5t-6 15.5t-20 2.5q12 51 34 73.5t51.5 28.5t65.5 -1t77 -13zM674 500q-23 0 -41.5 -4t-40 -8.5t-46 -4.5t-57.5 6q-8 -14 0.5 -24t8.5 -25q41 0 71.5 -1t61.5 -2t64.5 -1t78.5 4q0 14 1 23.5t9 15.5q-14 12 -25 9t-22.5 -11t-26 -15 t-36.5 -3q4 8 -1 14t-10.5 10t-6.5 8.5t10 8.5q0 -8 4 -12t4 12z" />
<glyph unicode="5" d="M1004 936q10 -10 28.5 -15.5t35.5 -9.5t30.5 -13t13.5 -30q25 25 49.5 19t49 -23.5t50 -35t50.5 -13.5q0 -25 10 -41t23.5 -29.5t26.5 -28t18 -34.5q-10 -4 -16.5 -19.5t-8.5 -33t4 -32.5t21 -19q-20 -20 -26.5 -45t-27.5 -35q0 -20 13.5 -36t13.5 -44 q-10 -25 -27.5 -49.5t-35 -50t-31 -50t-13.5 -49.5q-170 -160 -374.5 -290t-446.5 -199q-25 10 -40 39.5t-15 59.5t19.5 50.5t64.5 9.5q20 20 30.5 39t20.5 39q20 -10 43 -12t41 4t28.5 21.5t6.5 39.5q10 -6 18 -7t16.5 -2t15.5 -4t17 -13q4 14 24.5 21.5t42 11.5t35 11 t3.5 21q20 10 38.5 17.5t33 16.5t20.5 22.5t2 38.5q10 4 19.5 -1.5t18.5 -9.5t16.5 -4t11.5 15q10 -20 13 -40t13 -42q25 0 38 8t20.5 21.5t11.5 34t8 44.5q-14 0 -21.5 -4t-13.5 -9t-15 -9t-28 -4q29 49 56.5 84.5t50.5 87.5q70 0 108.5 31.5t48.5 60.5q0 39 -38 39 q10 20 16 37.5t35 17.5q6 10 3 17.5t-7 13.5t-5.5 11t9.5 9q-10 20 -16.5 28.5t-34.5 -1.5q4 20 0.5 44.5t-13.5 45t-30.5 31t-49.5 0.5q0 35 -21.5 46t-50 16t-57 11.5t-43.5 30.5q-35 -10 -83 -17t-93 -19.5t-77.5 -35t-36.5 -61.5q-16 0 -17.5 5t1.5 11.5t9.5 13.5 t6.5 11q-25 10 -44.5 7t-40 -9t-44 -11t-58.5 1q-20 70 -23 138.5t1 138t9 139t1 139.5q0 25 4 54.5t18.5 54t43 40t77.5 10.5q10 -20 -9 -23t-30 -3q-4 -10 1 -12.5t12.5 -3.5t12.5 -5t1 -18q35 -6 53.5 4t34.5 24.5t36.5 30t59.5 19.5q0 -10 -1 -13.5t-11 -13.5 q29 20 50.5 22.5t41.5 -8.5v-39q0 -10 2 -10t6 3t9.5 3t11.5 -10q8 6 6 15.5t-6 18.5t-4 18.5t16 13.5q14 0 11 -8.5t-8 -17.5t-3 -17.5t27 -8.5q10 0 9 4.5t-5 11.5t-7 16t3 20q35 -4 56.5 -5t41.5 -1t43 -1t57 -6q10 -20 -3 -23t-23 -3q10 -29 43 -38t61 11q0 10 -7 24.5 t-17 14.5q8 10 20 9t23.5 -7t20.5 -14t13 -13q0 -16 -8 -22t-16 -11t-14.5 -12.5t0.5 -23.5q-80 6 -141.5 4t-124 -5t-134.5 -7t-172 -4q-29 -39 -34 -85t-2 -96.5t3 -101.5t-18 -100q10 -10 25.5 -26.5t25.5 -27.5q41 41 92 45.5t121 -6.5q-10 -20 10.5 -31.5t30.5 -21.5 q10 20 7 27.5t-10 9.5t-15.5 4t-8.5 12q14 6 31 5t30 -1t22.5 4.5t9.5 20.5q20 -23 18 -47.5t8 -34.5q10 10 14.5 13t7.5 2t9 -5t20 -10q6 20 0 29.5t-14 15.5t-16 13.5t-8 23.5zM700 -18q-4 -31 -23.5 -43.5t-41 -20.5t-38.5 -15t-17 -28q41 0 71.5 10.5t57 25.5t49 30.5 t47.5 25.5q-10 10 -25.5 13.5t-25.5 13.5q0 -20 -17 -21t-37 9zM420 -178q33 0 52.5 3t29.5 23q-10 10 -11.5 13.5t-1.5 13.5q-31 0 -50 -12t-19 -41z" />
<glyph unicode="6" d="M1139 741q14 0 13 19.5t5 27.5q23 -8 35 -13t41 -5q43 -47 72.5 -93t48 -99.5t25.5 -119t3 -149.5q-6 0 -13 -9t-13 -9q-23 0 -22 9t-7 9q6 -25 -4 -54.5t-28.5 -60t-40 -57t-40.5 -45.5q-14 -6 -16 3t-2 16q-51 -47 -125 -72t-155.5 -29t-164.5 11.5t-155 48t-125 81 t-74 111.5q-6 23 -23.5 28t-33.5 19q16 35 0 68t-45 55q10 25 12 43.5t1 33.5t-3 30.5t-2 33.5q14 -23 25.5 -12.5t11.5 39.5q-16 6 -24.5 22.5t-13.5 36t-8 39t-9 33.5q14 14 26.5 24.5t20.5 32.5q0 20 -19.5 25.5t-27.5 22.5q8 23 17 29.5t38 6.5q-14 29 -3 49.5t34 34.5 q-4 20 -3 53t8 66t23.5 60.5t44.5 38.5q6 14 3 17t-9 5t-11 5t-1 18q47 8 78 37.5t53 58.5q35 -8 52.5 3t29.5 26.5t25.5 27.5t42.5 8q-14 -16 -23.5 -36.5t4.5 -49.5q35 8 62.5 22.5t42.5 43.5q6 -10 13 -11t16 1t19.5 6t24.5 4q20 0 15.5 21.5t-4.5 35.5q10 -29 42.5 -43 t70.5 -14t72 14.5t48 42.5q-6 -14 -14.5 -15t-16.5 2t-14 8t-10 5q-4 14 4 16.5t18 2.5t18.5 2t6.5 16q23 -20 40 -49t46 -45q-29 -14 -65 -29.5t-50 -15.5q-6 -10 -3 -14.5t9 -5.5t11.5 -5t1.5 -14q-6 -6 -16.5 -8t-10.5 -11q-14 6 -16 16.5t-3.5 20t-7.5 15.5t-30 6 q-23 -16 -38.5 -16.5t-35.5 16.5q-25 -14 -42.5 -26.5t-34.5 -19.5t-40.5 -11.5t-62.5 -0.5q-14 -16 -30.5 -26t-16.5 -39q-6 14 -12.5 11t-10.5 -9t-10 -9t-12 7q-23 -14 -28 -36.5t-22 -37.5h-55q-14 -23 -25.5 -55.5t-11.5 -67.5q-23 0 -29 -9t-20 -9q0 -16 2 -23.5 t16 -7.5q-6 -14 -19 -22.5t-24.5 -16.5t-16.5 -20.5t5 -32.5q25 4 39 5t22.5 -2t13.5 -13t11 -29q35 -6 48.5 11.5t-1.5 45.5q10 -4 16.5 -1t11.5 6.5t11 5.5t17 0q0 -59 75 -47q-14 -14 -13 -26.5t4 -22t4 -16.5t-13 -11q25 -14 30 -2t6 29.5t7 27.5t31 -8q2 14 -3.5 19 t-13.5 7.5t-17 4.5t-13 8q35 31 77.5 37t90 3t95.5 -6t95 11q0 -10 2 -11t6 -1h11.5t17.5 -7q0 -29 9 -46t38 -11q2 -14 1 -22.5t-3 -14.5t-5 -14.5t-3 -22.5zM567 1237q29 0 39 18.5t27 38.5q-14 0 -29.5 -5t-26 -12t-14.5 -17.5t4 -22.5zM360 909q0 -20 12.5 -23t35.5 -3 q-4 10 -1 18t7 15.5t4 12.5t-10 9q-23 -4 -26 -6t-2 -5t-0.5 -7.5t-19.5 -10.5zM895 47q8 20 23.5 32.5t30 26t24.5 32t6 48.5q72 35 124 84t103 105q2 10 -3 12t-11 3t-9 5t5 19q14 0 30.5 1t24.5 7q-4 14 -8 23.5t-7 18.5t-2 18.5t7 23.5q-10 6 -19.5 8t-18.5 3t-20.5 6 t-25.5 20q14 4 16 13t-1 20.5t-7 24.5t0 28q-39 39 -99.5 66.5t-127 36.5t-132 -6t-110.5 -60q-20 14 -42.5 7t-44 -24.5t-42 -39t-39.5 -36.5q6 -18 9 -39.5t-2 -38t-20 -24.5t-44 -2q6 -14 20.5 -21.5t28.5 -14.5t24.5 -18.5t10.5 -31.5q-6 -31 5 -55.5t32.5 -45t47 -37 t48.5 -30.5q14 0 13 9t14 9q-6 -14 -5.5 -35.5t-13.5 -29.5q-25 4 -39 8t-24.5 9t-20.5 12.5t-29 17.5q0 -6 -4 -9t-9 -6t-7 -10.5t2 -21.5q10 -4 15.5 -1t8.5 7t8 8t15 4q14 -43 51 -61.5t81 -29.5t87 -19.5t72 -28.5z" />
<glyph unicode="7" d="M1012 1470q14 8 5 29t-5 37q33 -6 47 -3t24 -13q-4 -14 -10 -14.5t-12 2.5t-13.5 1t-9.5 -18q25 -4 44.5 -10t40 -12.5t47 -10.5t63.5 0q0 -18 1 -33.5t7 -31.5q12 10 11 23.5t-4 27.5t-5 26.5t6 20.5q41 0 56.5 -27.5t20.5 -66.5t9 -83t23 -77q-23 -4 -29 -20.5t-5 -37 t7 -43t10 -40.5q-59 -16 -76.5 -67.5t-23.5 -123.5q-45 -35 -79 -86t-48 -125q-31 -6 -53.5 -25.5t-37.5 -46t-24.5 -57t-15.5 -57.5q-10 2 -17.5 0t-13.5 -5t-14 -5t-23 2q-25 -47 -51 -91t-46.5 -89.5t-32 -95.5t-5.5 -107q0 -25 -15 -34t-15 -28q20 -37 15 -64.5 t-23.5 -52t-44 -46t-42.5 -42.5q-49 20 -74.5 62.5t-34.5 93.5t-4 108.5t19 110.5q39 -10 39 17q2 16 -1 26.5t-8 18.5t-9 18t0 29q33 8 53 27.5t31.5 46t16.5 58.5t9 64q33 2 58.5 19.5t42 40t25.5 48.5t9 46q35 0 61.5 24.5t26.5 75.5q57 23 90 81.5t33 115.5 q45 8 62.5 44t23.5 81t10.5 93t26.5 85q-14 51 -62 62.5t-107.5 11.5t-117 2t-88.5 33q-23 0 -27.5 -15.5t-17.5 -21.5q-100 16 -168.5 -20t-68.5 -138q0 -8 8 -14t29 4q0 -16 -6.5 -25.5t-13.5 -15.5t-15 -10t-10 -13q18 -33 11 -60.5t-27.5 -48t-48.5 -33.5t-48 -15 q-4 25 -11 41t-17.5 30.5t-20.5 27.5t-19 30q2 23 6.5 44t30.5 21q-20 31 -15 57.5t15 51t15.5 50.5t-15.5 58q16 31 37 60.5t35 60.5q23 -6 17.5 -19.5t-11.5 -29.5q12 12 46 10t73 -4t69.5 3t36.5 32q-10 16 -32.5 9t-26.5 -30q-16 33 -8 43.5t32.5 11.5t60.5 0t77 11 q-12 -16 -27.5 -29.5t-38.5 -36.5q10 -16 23.5 -19t28 1t28.5 11t27 7q0 12 -4 20.5t-8.5 14.5t-7.5 12.5t1 18.5q20 -20 48 -17t53.5 9t46 4t26.5 -33h-39q-4 -16 3.5 -20t17.5 -6.5t19.5 -4.5t11.5 -10q12 4 15 13.5t5 14.5t6.5 2.5t18.5 -18.5zM406 1124q8 0 17 14.5 t12 33t-1 34t-18 19.5q2 -25 -2 -38t-8.5 -22.5t-6 -18t6.5 -22.5z" />
<glyph unicode="8" d="M1069 209q59 25 97 66.5t73 91.5q0 35 4 63.5t6 54t-5 49t-27 50.5q-8 0 -21.5 -1t-13.5 -10q-16 41 -55.5 61.5t-83.5 33t-87 25t-69 38.5q-10 -8 -14.5 -28.5t-20.5 -28.5q-41 8 -78 10t-47 -33q-12 -4 -16 0t-5 9.5t-5.5 7.5t-16.5 -6q-16 -8 -37.5 -20.5t-21.5 -45.5 q-16 0 -37 -1t-31 -11q10 -53 -4 -85t-43 -40q18 -78 51 -132.5t76 -107.5q59 0 98 -7t74 -48q16 4 33.5 5t29 -4t13.5 -19.5t-11 -39.5q0 20 -12 27.5t-25.5 4.5t-22.5 -15t-5 -29q18 -8 44 -5t52.5 8t53 10.5t49 0t39 -23.5t22.5 -57q-25 0 -41 -1t-28.5 -4.5t-21.5 -10.5 t-22 -19q-43 20 -84 18t-77.5 -7t-70.5 -2t-62 38q-18 0 -36 -6t-34 -6q-16 31 -41 49t-51.5 32.5l-53 29t-47.5 36.5q-27 68 -37 141.5t-2.5 145t34 138.5t73.5 122q4 12 1 16t-7 6t-7 6.5t1 16.5v22q12 4 18 4.5t11 -0.5t13.5 -2.5t26.5 -1.5q25 35 6.5 70t-53.5 43 q18 31 12 53.5t-15 44t-13 44t16 53.5q47 -35 47 -113q16 29 15.5 61.5t-13 61.5t-32 50.5t-39.5 29.5q16 0 24 11t14.5 26.5t12.5 31t18 23.5q8 0 11.5 -5t6.5 -10.5t9 -8.5t18 1l23 23q0 25 -14.5 23.5t-30.5 -1.5q4 12 14 18.5t20.5 12.5t14.5 16.5t-4 32.5 q16 12 34.5 12.5t36 -0.5t32 2t22.5 19q8 4 14 2t11.5 -5t10.5 -4t9 7q16 -8 20 -27.5t15 -29.5h77q0 16 -22 35q12 8 25.5 10t25.5 4t25.5 8t27.5 23q8 -16 24.5 -25.5t41.5 -19.5q-4 -18 -17.5 -20.5t-32 0.5t-38 8t-37.5 1q0 -18 6 -26t15.5 -13.5t19.5 -11.5t18 -18 q4 4 5.5 13t3.5 17.5t7 13.5t17 1q25 -16 52.5 -36t62.5 -20q8 0 10 5.5t12 5.5q4 12 1 17t-9 7t-14 3t-12 5q4 14 11 17.5t15 2.5t18.5 -4t22.5 -3q-8 -25 -7 -41.5t10 -28.5t23.5 -24.5t31.5 -28.5q20 4 20 12t-8 17.5t-15.5 19.5t3.5 18q43 -31 65.5 -68.5t31.5 -82.5 t9 -96.5t-4 -106.5q-27 -25 -53.5 -51.5t-26.5 -60.5q-8 -43 14.5 -83t53 -80t59.5 -79t33 -78q-8 -51 -11.5 -102.5t-9.5 -100.5t-21.5 -93t-49.5 -79q-35 -4 -58.5 -20.5t-46 -33.5t-48.5 -31.5t-62 -14.5q-12 20 -13.5 37.5t1.5 37t2 42t-13 53.5zM684 1380q4 -10 1 -18 t-6 -16.5t-3 -14.5t8 -10q16 18 27.5 22.5t21.5 5.5t22.5 4t28.5 15q-16 10 -45.5 6t-54.5 6zM934 1278q-55 16 -98 9t-79 -21.5t-70 -26.5t-73 -6q0 -18 1 -33.5t10 -25.5q-8 -8 -16.5 -9.5t-13.5 -3.5t-6 -8t3 -23q0 -12 5 -11t10 4t8 2t-1 -17q-16 -10 -28.5 -18.5 t-28.5 -18.5q-4 -25 11.5 -36t32.5 -20t27.5 -20.5t-3.5 -36.5q23 -8 50 -12t54 -10t48.5 -19.5t31.5 -37.5q33 0 78 -10.5t114 -0.5q8 33 43 40t70 16q12 23 22.5 47t19.5 47.5t20.5 44t29.5 33.5q0 12 -4 18t-7 10t-5 10.5t2 18.5q-4 4 -14.5 5t-19.5 4t-13 10.5t4 23.5 q-23 0 -36 9t-24.5 22.5t-20.5 28t-24 22.5q-8 -12 -25.5 -11t-34.5 9t-31.5 16t-18.5 8v-22zM455 662q8 0 15 -3.5t14.5 -6.5t17.5 -4t22 3q4 8 2 13.5t-4 9.5t-3 9t5 15q-27 0 -40 -13t-29 -23zM477 264q10 35 2 55.5t-24 36.5q-17 -72 22 -92zM547 209q0 25 -19.5 38 t-27.5 29q-8 -35 5 -51t42 -16zM569 164q20 4 30.5 -1t19 -12.5t16.5 -11.5t27 0q0 35 -23 49.5t-47 30.5q4 -16 1 -24.5t-9 -11.5t-14.5 -4t-12.5 -5q10 0 11 -1t1 -9z" />
<glyph unicode="9" d="M971 1528q8 4 16 6q16 4 29 -6q6 -12 5 -18.5t-6 -10.5t-9.5 -8t-4.5 -10q18 -12 28.5 -20.5t19 -15.5t18.5 -13.5t27 -12.5q12 6 10 14.5t-8 16.5t-9.5 16.5t7.5 14.5q41 -16 69.5 -46t54 -64t51 -66.5t60.5 -55.5q6 -53 16.5 -109.5t20.5 -117.5t17.5 -128t7.5 -142 q0 -35 -5.5 -77t-14.5 -80t-20.5 -66.5t-21.5 -41.5q0 -23 7 -39t7 -38q-41 -23 -59 -59t-31.5 -75.5t-30 -78.5t-51.5 -68q-10 0 -7 16.5t-7 16.5q-35 -59 -91 -98t-126 -74q10 -23 5 -31t-5 -33q-53 0 -88 -7t-67.5 -13t-68.5 -10.5t-87 2.5q-12 6 -22.5 22.5t-14.5 35.5 t0 40.5t22 40.5q10 0 14.5 -6t14.5 6q0 12 2 18t5 13.5t6 17.5t3 27q35 -10 47.5 -10.5t47.5 10.5q23 0 26.5 18.5t3.5 30.5q47 0 78 20.5t31 55.5q41 -16 64.5 6t44 59t44 74t64.5 49q0 23 8 31t8 30q23 0 44.5 26t35 63.5t15.5 80.5t-17 78q-47 -10 -84 -35.5t-71 -72.5 q-6 0 -18.5 4t-25 5t-18.5 -3t0 -21q-41 6 -77 6t-72.5 -1t-75.5 -3t-86 -2q0 10 -7 16.5t-17.5 12.5t-20.5 13.5t-17 19.5q-12 6 -17 4t-8 -5t-7 -4t-17 5q-23 41 -50.5 65.5t-54 50t-48 62.5t-33.5 100v45t2 56.5t5 56.5t9 45q-23 23 -22.5 48.5t11.5 50t28.5 47 t29.5 40.5q12 23 21.5 49.5t23 47t32 30t46.5 -3.5v-61q12 23 31.5 34t43.5 17t49.5 10t47.5 17q-6 29 -19 35t-27.5 1.5t-28 -12.5t-19.5 -8q-6 16 7.5 25.5t35 13.5t48 5t50.5 1q-18 -29 -11 -43t21.5 -24.5t28 -21.5t6.5 -34q-47 -12 -79.5 -28.5t-59 -37t-48 -43 t-44.5 -44.5q0 -18 4 -28.5t9 -19t7.5 -14.5t-4.5 -18q-18 0 -25 7t-9 18.5t0 21.5t2 16q-29 -59 -35 -124.5t11 -123t58 -96.5t105 -45q12 -25 24.5 -39t22.5 -39q12 0 12 5.5t-1 11.5t1 11t21 5q-6 -12 0 -14t14 -2t14.5 -2t-0.5 -15q76 0 133.5 21.5t102.5 60.5t82 89.5 t72 109.5q12 47 -5.5 63.5t-42.5 28.5q6 23 -1 46.5t-19 46t-28.5 46t-28.5 47.5q-47 -10 -89 26t-65 83q-12 -10 -6 -22.5t6 -24.5q-35 0 -52.5 10t-41.5 23q6 23 19.5 35t27.5 13t27.5 -7.5t19.5 -26.5q6 6 5 13t0 13.5t9.5 8.5t32.5 -4q0 12 -8 24.5t-8 22.5zM582 782h61 q-23 25 -44 39.5t-34 38.5q-10 -16 -9 -26.5t7 -17.5t12.5 -14.5t6.5 -19.5zM784 705q23 -12 52.5 -10.5t42.5 26.5q-6 16 -19.5 24.5t-28 7.5t-28 -13t-19.5 -35zM924 735q0 -18 10 -24t21.5 -5t21.5 9t10 20q-25 12 -32.5 12t-30.5 -12zM754 37q23 0 35 9t12 22h-33 q0 -12 -7 -16.5t-7 -14.5z" />
<glyph unicode=":" d="M850 1026q29 -8 43 -15t49 5q10 -29 26.5 -47.5t32 -34.5t25.5 -35.5t10 -48.5q0 -25 -11 -46.5t-25.5 -42t-25.5 -42t-11 -45.5q-43 -4 -76 1t-61.5 14t-56.5 22.5t-58 27.5q0 86 -37 111q14 29 28.5 56.5t36.5 56.5q6 -4 18.5 -2t24 2t18.5 -3.5t5 -17.5q12 16 21.5 40 t23.5 44zM1008 266q0 -25 -2 -46t-2 -42.5t4 -42t18 -45.5q-35 -14 -65.5 -36.5t-45.5 -57.5q-23 -4 -37 -1t-26 6t-22.5 3t-24.5 -8q-23 29 -48.5 50.5t-45 45t-28.5 53t1 74.5q35 70 86 101.5t135 11.5q8 -29 35 -47.5t68 -18.5z" />
<glyph unicode=";" d="M791 1024q47 -27 94 -57.5t71 -81.5q-18 -29 -38.5 -58.5t-43 -52t-49 -31t-59.5 8.5q-10 23 -29.5 35t-40 22t-38 24.5t-23.5 40.5q-4 12 -1 20.5t8 16t8 16.5t1 25q27 -20 41.5 -5.5t1.5 42.5q10 -18 22.5 -18t26 8t26 21.5t22.5 23.5zM1001 260q10 -39 17.5 -68.5 t16.5 -56t19.5 -52.5t26.5 -58q-27 -4 -39 -22.5t-13 -42t8.5 -45t25.5 -32.5q-41 -59 -80 -119.5t-51 -142.5q-31 0 -49.5 -10t-37 -20.5t-41 -19.5t-59.5 -5q-4 33 -0.5 50t5.5 29.5t0 27t-13 42.5q2 -23 23.5 -24.5t45 -0.5t43 -2t19.5 -26q16 8 26.5 15.5t10.5 19.5 q-12 20 -34.5 23.5t-34.5 -23.5q-10 6 -14.5 20.5t-5.5 27.5t-4 25.5t-11 16.5q18 33 42.5 60.5t53.5 62.5q-4 12 -12 22.5t-18.5 20.5t-19.5 23.5t-11 29.5q-35 0 -56.5 1t-38 4t-31 6t-34.5 8q4 33 -10.5 69.5t-23.5 70.5t-2 59.5t54 35.5q20 8 28.5 29.5t14.5 48.5 q33 18 67 14t66.5 -19.5t65 -36t65.5 -36.5z" />
<glyph unicode="=" d="M930 920q31 -4 44 -21.5t9 -56.5q-14 4 -28.5 6t-28 5t-23.5 12t-18 28q8 2 18 2h17.5t11.5 5.5t-2 19.5zM1126 881q4 12 17.5 15t30 1t32 -4t25.5 0q-8 -16 -22.5 -20.5t-31 -2.5t-31 6.5t-20.5 4.5zM637 653v-65q-29 0 -49.5 6t-14.5 45q21 14 64 14zM819 881 q0 12 -4 20t-7 16.5t-4 17.5t3 23q78 20 140.5 16.5t117.5 -10t106.5 -6.5t110.5 27q10 -20 28.5 -30.5t24.5 -34.5q2 -10 -2 -13.5t-9 -6.5l-10 -6t-5 -13q-2 -10 6 -11.5t17 -1.5t15.5 -5t0.5 -21q10 20 22 32.5t16 32.5q29 4 43.5 -6t34.5 -20q0 -27 -10 -44.5t-20.5 -33 t-18.5 -34.5t-2 -50h-78q14 16 -1 20t-38.5 -2t-45 -18t-19.5 -27q-74 10 -113 5t-45 -58h-51q2 12 11 16t18.5 9.5t13.5 13.5t-4 27q-35 0 -79 3t-85 -1.5t-70.5 -21.5t-31.5 -58q-16 4 -30.5 8t-35.5 4q0 20 9.5 37.5t29.5 28.5q-8 0 -29.5 7t-45 11t-44 -1t-24.5 -30 q-29 -4 -43.5 6.5t-8.5 44.5q-10 -12 -27.5 -15t-34.5 -5t-29.5 -8t-12.5 -23q-10 -4 -18.5 0t-15.5 8.5t-12 4.5t-7 -13q-14 27 -36 47.5t-44.5 39t-43 40t-32.5 49.5q10 12 27.5 17.5t35 11.5t30 16.5t12.5 32.5q25 -4 43 -12t37.5 -17.5t43 -18.5t58.5 -17q2 16 -3 24 t-13.5 13.5t-18.5 7.5t-18 8q41 23 101 38t134 1q0 -25 -1 -44.5t-11 -35.5q-23 10 -37 16t-28.5 11.5t-29 7.5t-36.5 6q-10 0 -12.5 -6t-3.5 -15.5t-2 -18.5t-9 -13q2 12 28.5 6t65.5 -13.5t83 -9t83 16.5zM885 893q8 -18 18 -27.5t23.5 -12.5t28 -5t28.5 -6q4 39 -9 56 t-44 22q6 -14 2 -19.5t-11.5 -5.5h-17.5t-18 -2zM1231 893q-10 -2 -25.5 0t-32 4t-30 -1t-17.5 -15q6 0 20.5 -4.5t31 -6.5t31 2.5t22.5 20.5zM637 510q14 -2 19.5 6t7.5 20.5t4 27t8 24.5q35 4 51 -8.5t41 -18.5q2 14 12.5 22.5t22.5 16.5t24.5 16.5t18.5 22.5 q20 -10 38.5 -19.5t33.5 -19.5q-14 -12 -22.5 -29.5t-15 -36t-13.5 -36t-21 -27.5q2 -10 8 -14t10 -6t4 -6.5t-10 -12.5h72q-4 25 0 59.5t14 69.5q31 -10 56.5 -7t49 8t48 7t55.5 -8q12 0 11 4t-5 10.5t-8 16.5t2 22q6 -14 12 -18t13.5 -3t19.5 4t33 3q4 -12 5 -24.5 t5 -21.5t16.5 -15.5t38.5 -1.5q-10 -39 -3 -68t23.5 -46t38 -25.5t44.5 -4.5q0 -18 -9.5 -24.5t-23.5 -8.5t-29.5 -2t-27.5 -4q0 -20 8 -26t4 -27q-12 -4 -18.5 -1t-10.5 9t-8 12.5t-14 6.5q-41 -39 -88 -40t-98.5 8t-104.5 14t-107 -21q-23 18 -56.5 28.5t-70 10.5 t-69.5 -10.5t-51 -28.5q-41 18 -82 24t-81 9.5t-81 8.5t-82 23v43t4 41.5t15.5 30.5t33.5 14q0 -25 8.5 -31t20.5 -7t28.5 -1t32.5 -12q25 -4 33 9.5t19 29.5q-10 4 -30 9t-41.5 7t-38.5 2t-19 -6q0 8 8 25.5t20.5 38t28.5 39t33 28.5q25 -6 36 -21t22 -27.5t26.5 -16.5 t46.5 12q-10 -25 -19.5 -50.5t6.5 -39.5q18 -4 27.5 2t24.5 10q2 10 -2.5 14.5t-9.5 7.5t-10 7t-5 10q-4 12 -1 18.5t9 10.5t12.5 9t6.5 15q12 2 9 -7t-8 -21t-5 -23.5t16 -13.5z" />
<glyph unicode="?" d="M438 1442h41q-4 -25 -11 -35t-10 -17.5t0 -14.5t21 -21q-12 -4 -20 3t-21 7v78zM1235 1354q14 4 20.5 -2t7.5 -16.5t-1 -24t-2 -21.5q-12 8 -21.5 0t-28.5 -8q-4 31 7.5 43.5t17.5 28.5zM877 924q25 0 22.5 -23.5t-14.5 -32.5q-6 0 -13.5 5.5t-19.5 5.5q0 8 5 12t10 7 t8.5 8.5t1.5 17.5zM901 360q6 2 10 -5t7.5 -13t6.5 -8t7 10q12 -4 13 -12t-5 -16.5t-16.5 -13.5t-22.5 1q-12 12 -12 28.5t12 28.5zM846 225q16 0 36.5 -2t26.5 -14q8 -68 -80 -55q16 16 21.5 31t-4.5 40zM1036 1585q6 12 13.5 26.5t25.5 14.5q-10 -18 -7 -26.5t10 -13.5 t14.5 -11t7.5 -21q-12 0 -16.5 7.5t-9.5 14.5t-12.5 11t-25.5 -2zM670 1507q6 -12 -1 -16t-7 8q-12 -4 -13.5 -13t1.5 -18.5t9.5 -17.5t10.5 -8q6 18 12 43.5t12 60.5q39 -10 74 -12t72 -2h76.5t89.5 -2q53 -23 99 -58.5t105 -54.5q-4 25 -11 49.5t-44 24.5q45 18 80 -3.5 t56.5 -66.5t28.5 -104.5t0 -115.5t-30.5 -101t-62.5 -64q0 -16 7 -22t1 -25q-10 2 -20.5 -2t-16.5 -12t-6 -16.5t12 -10.5q-25 0 -37 -2t-21 -9t-18.5 -20.5t-27.5 -37.5q-18 -25 -42 -38.5t-42.5 -27.5t-29.5 -34.5t-5 -59.5h-49q-6 -37 6 -53.5t18 -34.5q-27 -16 -46 -37 t-35.5 -40t-33 -33.5t-36.5 -18.5q-53 0 -74.5 41t-22.5 101.5t10 130t23 126.5q18 -6 25.5 4t30.5 4q8 0 8 7.5t-1 16.5t1 16t16 7q-4 18 -9 19.5t-12 -1.5t-13.5 -4t-12.5 11q2 27 12.5 35t24.5 8t30.5 -5t35.5 -5q8 6 11 17t0 23.5t-8.5 22.5t-11.5 15q2 12 8.5 11 t11.5 -8.5t9 -17.5t4 -16q39 6 61.5 23.5t41 41t37 48t51.5 45.5q-12 25 -26.5 45t-45.5 26q0 25 8 36t33 5q-8 31 -26.5 47.5t-53.5 16.5q-29 -31 -71 -20t-64 36q-45 -6 -71.5 -27.5t-46 -52.5t-33 -64.5t-31 -64.5t-43 -54.5t-64.5 -31.5q-8 12 -25.5 11t-35 0 t-32.5 10.5t-18 42.5q12 0 24.5 -9.5t23.5 -15.5q6 43 -2.5 80t2.5 47q-41 -10 -69 -32.5t-34 -69.5q-37 25 -39 55.5t6.5 64t15.5 70.5t-7 72l27 3t16.5 3t14.5 5t21 13q0 12 -7 20.5t-1 20.5q12 0 18.5 6.5t11.5 13.5t12 13t22 6q8 -12 11 -29.5t7 -32t15.5 -21.5t39.5 3 q-8 -23 -13 -48t-27 -32q18 -12 31.5 -6t25.5 16.5t23.5 18.5t23.5 2v58q-4 12 -7 9t-9.5 -10.5t-16.5 -12.5t-24 5q12 18 38.5 26.5t49.5 14.5zM438 1364q12 0 20.5 -7t20.5 -3q-18 14 -21 21t0 14.5t10 17.5t11 35h-41v-78zM1210 1282q18 0 27.5 8t22.5 0q0 8 2 21.5t1 24 t-7.5 16.5t-20.5 2q-6 -16 -17.5 -28.5t-7.5 -43.5zM1036 1069q-12 -25 -24.5 -38t0.5 -42q25 8 37 26.5l24 37t28.5 33t45.5 14.5q-8 29 -16.5 32t-17.5 -7.5t-18.5 -28t-19.5 -29.5t-19.5 -15t-19.5 17zM852 879q12 0 19.5 -5.5t13.5 -5.5q12 8 14 32t-22 24 q2 -12 -1.5 -17.5t-8.5 -8.5t-10 -7t-5 -12zM1147 1100q-29 0 -45.5 -14.5t-28.5 -33t-24.5 -37t-36.5 -26.5q-12 29 0 42t24 38q10 -20 19.5 -17t19.5 15t19.5 29.5t18.5 28t17.5 7.5t16.5 -32zM797 471q25 -25 55.5 -41t48.5 -45q10 0 9 13.5t-1 25.5q25 0 53.5 1t43.5 -9 q0 -43 7 -76t17 -62.5t21.5 -59.5t17.5 -64q-55 -72 -141 -118t-195 -34q2 12 -3 16.5t-13 6.5t-15.5 5t-7.5 11q-6 0 -9 -5t-6 -10.5t-8 -8.5t-18 1q0 29 -12 67t-43 69q6 88 30.5 152.5t24.5 117.5q25 -12 41.5 -19.5t38.5 -13.5q18 18 36 36.5t28 43.5zM901 303 q12 -6 22.5 -1t16.5 13.5t5 16.5t-13 12q-4 -12 -7 -10t-6.5 8t-7.5 13t-10 5q-12 -12 -12 -28.5t12 -28.5zM829 154q88 -12 80 55q-6 12 -26.5 14t-36.5 2q10 -25 4.5 -40t-21.5 -31z" />
<glyph unicode="A" d="M1366 379q-4 -6 -2 -12.5t5 -12.5t4 -16t-7 -27q-14 -4 -17 1t-8 16q-4 -4 -5 -23.5t2 -43t9.5 -44t18.5 -27.5q16 4 14 20.5t-2 31.5q12 -4 18.5 -3t11.5 3t11 4t17 0q10 -51 20 -104.5t17 -112.5q-33 -4 -57.5 -11.5t-44 -17.5t-37 -26.5t-36.5 -39.5q-14 0 -21 7.5 t-11 16.5t-8.5 20.5t-10.5 17.5q-45 -4 -86 -5t-87 1t-100 5t-122 7q2 12 0 19.5t-4 14.5t-3 16t3 24q-23 -2 -33 -15.5t-14 -32t-4 -41v-42.5q-10 -10 -27.5 -11.5t-42.5 -1.5v70q-66 -10 -122 -15t-106 -2t-94.5 18t-82.5 48q-20 -10 -21 -49q-10 -6 -19.5 -2t-17.5 9 t-14 5t-10 -12q-8 27 -25.5 47.5t-17.5 57.5q29 4 41 24.5t2 56.5q27 4 43 17.5t31.5 29t33 30t41.5 18.5q29 61 49.5 131.5t59.5 124.5q4 14 -1 17t-12.5 5t-12.5 5t-1 18q8 14 20.5 22t20.5 16.5t9 20.5t-13 33q16 -2 20 7t6.5 19.5t7.5 17.5t25 1q0 33 -1 57.5t-25 34.5 q20 35 39.5 63.5t54.5 45.5q-16 8 -22.5 17t-9.5 20.5t-4 28t-9 38.5q41 -14 55 7.5t21.5 50t14.5 49t34 6.5q-4 10 -9.5 18t-21.5 8q6 16 9 22.5t4 11.5t-2 11.5t-11 22.5q4 0 6 8t8 19q47 -10 65.5 14t8.5 72q-4 -4 -8 -13.5t-23 -5.5q2 18 -2 22.5t-11 4.5t-14 -1t-9 5 q0 35 16 48t51 13q-4 29 2 45.5t17.5 28.5t23.5 23.5t21 27.5q70 -4 98.5 -43t38.5 -104q12 0 20 5t23 5q4 -16 15 -27.5t11 -33.5q-6 -4 -15 -5.5t-18.5 -3.5t-16.5 -6t-7 -16q4 -29 21.5 -47.5t58.5 -7.5q10 -29 5 -61t-28 -48q8 -16 23.5 -30.5t32.5 -24.5 q0 -25 -8.5 -39.5t2.5 -42.5q4 -20 14 -24.5t21.5 -6.5t23.5 -6t23 -25q-10 -6 -19.5 -6t-18 -2t-15.5 -9t-11 -26q0 -18 10 -28.5t23.5 -16.5t27 -11t19.5 -13q4 -29 -14.5 -36t-28.5 -20q14 -23 24.5 -49t23.5 -48.5t33.5 -38t55.5 -15.5q8 -25 0 -35t-20.5 -18.5 t-20.5 -18.5t-2 -35q20 -10 34.5 -25.5t27 -33.5t23.5 -37.5t28 -34.5q33 10 58.5 22.5t72.5 2.5q-4 -14 3 -21.5t3 -21.5q-16 0 -33.5 -8.5t-34 -13.5t-31 -3t-26.5 25zM784 897q-4 -14 -14 -22.5t-20.5 -17.5t-17.5 -21.5t-5 -32.5q2 -6 11.5 -7t19.5 -1t18 -1t8 -8 q6 -33 -3 -49t-22.5 -26.5t-27.5 -21.5t-16 -36q18 0 30.5 -5t24.5 -10t26.5 -7t39.5 4q-10 49 16 70h63q2 -14 -1 -24.5t-6 -19t-3 -14.5t10 -12q61 0 70 57q-10 10 -21.5 17.5t-17.5 25.5q37 39 39 79t-9 82t-26.5 88t-15.5 101q-16 4 -32.5 8.5t-29 11.5t-19.5 21.5 t-5 40.5q12 8 20.5 12.5t15.5 5.5l14 2t17 5q-4 12 -3 19.5t4.5 14.5l7.5 15t4 21h-92q-10 -55 -20.5 -100.5t-17.5 -87.5t-11.5 -85t-2.5 -92zM659 260h56q4 18 0 43t12 25h47.5t22.5 -17q-4 -29 -16.5 -47t-8.5 -61q23 -4 35 -20.5t41 -16.5q-2 33 0 60.5t5 55t4 55.5 t-5 60q-33 -6 -67.5 -12t-63.5 -18.5t-46.5 -37t-15.5 -69.5zM578 242q18 8 40.5 13t26.5 30q0 23 -16.5 27.5t-26.5 15.5q-30 -27 -24 -86zM934 190q4 10 14 18.5t25 8.5q2 23 -4 37t-17.5 23.5t-24 16.5t-24.5 17q-10 -16 -7 -31.5t11 -28.5t16.5 -29t10.5 -32z" />
<glyph unicode="B" d="M1186 49q-59 -35 -131 -40t-145.5 -2t-146.5 3t-134 -26q-33 20 -89.5 19t-113.5 -1t-102 10.5t-58 57.5h-57q23 23 50.5 41t37.5 45q0 -23 2 -39.5t12 -26.5q20 16 42 13t41.5 -7t37 -1t31.5 32q10 -4 18 -12.5t2 -24.5q23 10 47.5 18.5t47.5 18.5q-8 16 -30 20.5 t-46.5 4.5t-49 -1t-40.5 5q14 43 33.5 81.5t35 76.5t18.5 79t-16 90q16 27 21.5 53.5t6.5 56.5t1 60.5t8 65.5q-10 23 -31.5 38t-25.5 44q16 23 36.5 42t20.5 58q0 10 -16.5 9t-26.5 -1q0 31 10.5 60.5t32.5 40.5q-4 23 -12 38t-31 19q18 16 18.5 42t-3 53.5t-2 52 t23.5 40.5q-4 25 -13 40.5t-21.5 27.5t-26 24.5t-21.5 30.5q-37 -4 -58.5 -20.5t-49.5 -22.5q-2 18 -12.5 30.5t-21.5 24t-18.5 24.5t-5.5 36q6 8 19.5 4t30 -9t33 -7t26.5 12q2 18 -3 21.5t-11.5 2.5t-12.5 2t-2 25q18 14 37.5 9t37 -13t34 -9t28.5 21q27 -14 37 -36 q27 16 55.5 25t45.5 32q49 -33 104 -32t104 11q12 -10 19.5 -24.5t17.5 -20.5q14 -2 17.5 5.5t5.5 17.5t7 17t22 5v-45q29 2 50 8.5t39.5 9.5t36 0t39.5 -18q8 0 12.5 7.5t6.5 15.5t6 15t12 7h43q-8 -88 58 -110q10 -2 15 2t10 10t10.5 9t15.5 1q8 -23 6 -37t-6 -28.5 t-6 -30.5t6 -41q-10 -10 -24.5 0t-41.5 0v-29q14 -16 26.5 -15t26 8t26.5 14.5t30 1.5q10 -16 9 -35t-2 -35t3 -28.5t27 -18.5q-16 -10 -19.5 -35t-5.5 -50.5t-9 -47t-32 -27.5q0 -29 13.5 -41t29.5 -22q0 -14 -8 -20.5t-19.5 -9.5t-21.5 -5t-16 -8q0 -18 4 -24.5t11 -7.5 t16.5 0t19.5 -5q0 -33 1 -52.5t1 -34t-1 -26.5t-7 -31q31 -6 46 -18t29.5 -27.5t30 -31t45.5 -25.5q10 -66 1 -126t-13 -116.5t7 -112t63 -108.5q-18 -14 -48 -24.5t-59 -21.5t-50.5 -23.5t-23.5 -30.5q-6 8 -24.5 4t-41 -8t-47 -2t-38.5 20zM745 1284q-43 6 -55 -15.5 t-12 -54t1 -71.5t-15 -68q23 -16 26.5 -32.5t0.5 -34t-7 -37t2 -39.5q18 -4 30.5 0t22 10t16.5 13.5t17 9.5q27 -35 68 -35t83 10t79.5 18.5t60.5 -8.5q6 12 8 26.5t4 28t7 24.5t16 18q29 10 44 2.5t44 3.5q12 37 8 65.5t-11 53t-10.5 46t13.5 46.5q-47 10 -66 -9 q-10 14 -18 32t-16.5 36t-18.5 32.5t-27 22.5q-14 -25 -33.5 -25.5t-39 8.5t-39 22.5t-31.5 15.5q-14 -18 -37.5 -27.5t-47.5 -19t-43.5 -23.5t-23.5 -45zM680 678q-8 -31 -9 -57.5t-1 -53t-3 -50t-18 -48.5q37 -16 36 -38.5t-13.5 -47.5t-23.5 -48.5t1 -41.5q18 14 26.5 12 t14.5 -9t14.5 -17.5t26.5 -12.5q25 0 40 7.5t27.5 17.5t22.5 22.5t25 22.5q12 -25 31.5 -34t41 -13t41 -9.5t35.5 -21.5q12 16 12.5 27.5t-5 20.5t-13.5 18.5t-12 19.5q8 16 15 36.5t40 20.5q0 -18 6 -31.5t13.5 -24.5t14.5 -23.5t11 -28.5q16 2 21.5 10t8.5 17.5t10 19.5 t26 18q6 14 2 27.5t-8 25t-5.5 20.5t11.5 15q10 -4 14 -13t5 -21.5t2 -24.5t7 -20q20 10 38 16t32 12t25.5 17.5t19.5 33.5q-66 -12 -65 43q4 16 16 28.5t12 35.5q-20 61 -60 91t-89 44t-104.5 21.5t-106.5 23.5q-6 -10 -5 -25.5t-10 -15.5q-16 -6 -23 -1t-11 13.5 t-8.5 17.5t-16.5 11q-23 0 -59.5 -22.5t-75.5 -32.5zM764 135q0 -33 22 -45q23 0 61 3t64.5 13.5t27.5 27t-50 44.5q-16 -8 -32.5 -21.5t-32 -22.5t-31 -11t-29.5 12zM606 90h125q2 8 6 18.5t5 20.5t-3 17.5t-16 9.5q0 -33 -18.5 -35t-40 2t-40 2t-18.5 -35z" />
<glyph unicode="C" d="M938 1505q55 10 90 8t74 -18q70 35 121 19.5t85.5 -58.5t56 -104.5t34.5 -118.5q-33 -12 -38 -34.5t-5 -43.5q25 -35 20.5 -73t-22 -78.5t-41 -82.5t-35.5 -83q-8 23 -23.5 42t-31 39.5t-30.5 45t-24 59.5q-45 6 -61 40t-28.5 73t-34 68.5t-74.5 27.5q-8 18 -20.5 28.5 t-12.5 34.5q-59 -4 -99 8.5t-65 36.5q4 -18 2 -32.5t-5 -25.5t-6 -23.5t-3 -26.5q-18 12 -34.5 13t-30 -5t-27 -15t-27.5 -16q10 -20 10 -34.5t-4 -27.5t-7 -28.5t1 -40.5q-20 0 -33.5 2t-24 3t-22.5 0t-28 -5q4 -29 6 -48t2 -36.5t-2 -35t-6 -44.5q-12 2 -18.5 0t-11.5 -5 t-10.5 -6t-15.5 -1q0 -18 3 -33.5t3 -28t-6 -22.5t-24 -18q12 -35 29.5 -76t32.5 -82t26.5 -82t13.5 -78q8 -12 20.5 -27.5t43.5 -11.5q-6 -29 0 -44t17 -26.5t25.5 -20.5t24.5 -23q10 0 14.5 6t9.5 12t13 9t25 -3q4 -18 -2.5 -24t-10.5 -17q23 0 38.5 -7t27.5 -12t21.5 -2 t17.5 21q12 -16 27.5 -21t32 -4t31.5 3t28 0q0 16 -1.5 25.5t-2.5 16.5t-1 16t5 28q25 0 28.5 -20.5t3.5 -43.5q18 6 27.5 -1t15.5 -16t13.5 -13t19.5 8q12 8 12 20.5t-4 25.5t-8 29.5t0 32.5q55 16 60.5 50t-5.5 81q27 2 40.5 18.5t18.5 39t7 48.5t8 48q37 -2 63.5 -3t50 1 t46 8t51.5 17q-6 -23 -16.5 -38.5t-17.5 -31.5t-9 -35.5t10 -48.5q-10 -12 -26.5 -16.5t-26.5 -16.5q43 -18 46 -50t-9 -68.5t-27.5 -72.5t-9.5 -61q-12 12 -25.5 24.5t-29.5 20.5q6 -23 0 -41t-15.5 -35.5t-16.5 -37t-3 -43.5q-35 -4 -65.5 -9.5t-65.5 -9.5q0 -16 6 -22 t6 -23q-29 10 -72 -13.5t-81 -53.5q0 12 -4.5 11t-9.5 -4t-8 -2t-1 17q-25 -29 -53.5 -33t-58 0t-59.5 10.5t-56 0.5q-23 27 -56.5 40t-67.5 25t-61.5 30.5t-36.5 55.5h-47q-37 45 -55 99.5t-31.5 111.5t-32 111.5t-57.5 99.5q18 39 17.5 79t-9 82t-15.5 84t-3 83h70 q-35 33 -32 70.5t16.5 76.5t23.5 75t-8 62q23 0 34 12.5t17 30t11 36t15 30.5q33 14 57.5 35.5t49.5 43t50.5 42t60.5 33.5q25 4 28.5 -12.5t3.5 -39.5q41 -10 76 -3t70 18.5t71.5 18.5t79.5 -5q8 2 10.5 12.5t0 20.5t-8.5 17t-14 5zM1006 1411q10 -6 15 -4t8 7t6 11.5 t9 8.5q-4 29 -23.5 43t-49.5 18q-6 -20 -2 -31.5t11 -18.5t15.5 -14.5t10.5 -19.5zM1223 530q8 -27 18 -48t27 -38q12 39 19 72t-32 59q0 -23 -12 -28t-20 -17zM1159 354q4 -25 -9 -41t-27.5 -29.5t-23.5 -27.5t3 -33q23 6 38 20.5t27.5 30t24.5 30.5t31 26q0 18 -4.5 34.5 t-26.5 12.5q0 -23 -33 -23z" />
<glyph unicode="D" d="M469 1507q-4 -12 -9 -22t-5 -16.5t7 -10.5t25 -4q-4 -47 -35.5 -69.5t-63.5 -21.5t-50.5 28.5t4.5 83.5q27 8 39 10t22.5 3t23.5 4t42 15zM1063 1423q12 14 32.5 14.5t37 -9t22.5 -26t-8 -32.5q-25 8 -42 26.5t-42 26.5zM498 1370q12 -4 16 -14t1 -19.5t-12 -15.5t-26 -2 q-8 14 -4 19t10 6.5t12.5 5.5t2.5 20zM457 182q14 -4 22 -13t14.5 -17.5t13.5 -12.5t23 0q4 -18 -7 -24t-28.5 -6t-34 4t-24.5 4q0 25 10.5 32.5t10.5 32.5zM686 160q0 -16 -5 -26.5t-5 -27.5q-18 8 -31.5 9.5t-26 -0.5t-28 -5.5t-39.5 -3.5q-4 29 6 42.5t30.5 17.5t46 1 t52.5 -7zM854 160q23 0 27 -18.5t4 -35.5q-8 0 -19.5 3.5t-11.5 -13.5q-12 4 -12 11.5t4 16.5t8 18.5t0 17.5zM645 1507q0 8 5 6t12.5 -6t16.5 -6t17 6q0 -16 -4 -34.5t-26 -18.5q0 16 -7.5 30.5t-13.5 22.5zM739 1444q23 8 41.5 13t42.5 -3q12 4 12.5 10t-4 14.5t-8.5 17.5 t0 22q23 12 54.5 16t60.5 -2t52.5 -24.5t29.5 -53.5q-18 4 -29.5 11.5t-23 15.5t-24.5 15t-36 11q-4 -16 -11 -31.5t-8 -28.5t4 -24.5t26 -19.5q12 4 20 12t19.5 15.5t25.5 9.5t37 -4q29 45 65.5 44t76.5 -23.5t80 -53.5t71 -43q0 -43 12 -73t32.5 -52.5t47.5 -39.5t53 -32 q0 -20 -6 -23t-15.5 -2t-17.5 0t-12 -18q16 -53 39.5 -99t34.5 -99q-18 -16 -31 -31q18 -29 24.5 -58.5t6.5 -61.5t-2 -66.5t2 -73.5q-12 2 -17.5 -1t-8.5 -7.5t-6 -9.5t-9 -5q-4 -20 -1 -31.5t9 -20.5t10 -18.5t0 -23.5h-41q8 -31 5 -65.5t5 -59.5q-41 -16 -49 -47t8 -78 q-25 -20 -50 -40.5t-48.5 -43t-42 -51.5t-26.5 -63q-55 4 -93.5 -8.5t-75 -27t-77.5 -24.5t-99 -2q-8 0 -9 -7t-2 -14.5t-5 -14.5t-16 -7q-109 39 -211.5 48t-227.5 -5q0 27 -23.5 40t-49 24.5t-41 29t1.5 52.5q18 -16 32.5 -23.5t29 -10.5t28.5 -4t33 -6q8 4 8 11.5 t-3 17.5t-6 22.5t1 24.5q-4 10 -12.5 7t-18.5 -9t-18.5 -8t-12.5 10q16 14 32.5 34t41.5 28q-4 -16 3 -18.5t17.5 -1.5t20.5 0t10 -13q47 47 64.5 114.5t9.5 147.5h31q8 61 8 119.5t24 122.5q-12 78 -12 156.5t1 154.5t1 147.5t-12 135.5q-8 39 -34 59.5t-50 44.5 q16 23 29.5 48.5t13.5 66.5q78 23 125 5.5t63 -89.5zM666 1454q23 0 26.5 18.5t3.5 34.5q-8 -8 -17 -6t-16.5 6t-12.5 6.5t-5 -6.5q6 -8 13.5 -22.5t7.5 -30.5zM1147 1370q14 16 8 32.5t-22.5 26t-37 9.5t-32.5 -15q25 -8 42 -26.5t42 -26.5zM1083 453q-25 -16 -41 -36 t-34.5 -37.5t-42 -29.5t-58.5 -12q-16 -33 3.5 -64.5t58.5 -40.5q-8 31 8 43.5t33 28.5q55 4 87.5 32t56.5 66.5t45.5 79.5t51.5 72q0 8 1 19.5t0 20.5t-6 13t-17 0q-18 4 -22.5 -5t-4.5 -21.5t-3 -21.5t-21 -5q-20 12 -23.5 36.5t6.5 49.5t30.5 43t49.5 18q29 86 26 169 t-26 188q-29 -4 -38 4t-13 19.5t-9 22.5t-24 15q18 18 14 31.5t-15 25t-23.5 24.5t-8.5 34h-51q-4 25 -20.5 37t-37 21.5t-36.5 21.5t-21 35q-18 0 -23 -5.5t-4 -11.5t2 -13t-7 -11q-14 25 -38 34t-57 17q-31 -53 -35.5 -103.5t27.5 -103.5q-16 -10 -26.5 -27.5t-26.5 -25.5 q16 -31 14 -71t-7 -80t-5 -76.5t19 -63.5q-16 -33 -17.5 -60.5t1.5 -54t5 -53.5t-10 -53q27 -23 26 -59.5t-6.5 -73.5t-1 -70t42.5 -47q25 27 58 48.5t57.5 46t31.5 56t-20 78.5q33 8 62 25.5t84 28.5q0 -25 15.5 -33t15.5 -33q-12 -6 -25.5 -15.5t-26 -17.5t-18.5 -13 t-2 -5q8 -8 10 -21.5t10 -29.5zM436 117q8 0 24.5 -4t34 -4t29 6t6.5 24q-16 -4 -23 0t-13.5 12.5t-14.5 17.5t-22 13q0 -25 -10.5 -32.5t-10.5 -32.5zM551 106q25 0 40 3.5t27.5 5.5t25.5 1t32 -10q0 16 5 26.5t5 27.5q-27 4 -52.5 7t-46 -1t-30.5 -17.5t-6 -42.5zM854 96 q0 16 11.5 13t19.5 -3q0 16 -4 35t-27 19q4 -8 0 -17.5t-8 -18.5t-4 -16.5t12 -11.5z" />
<glyph unicode="E" d="M1114 1458q10 16 26.5 20.5t34 3.5t33 -2t21.5 5q16 -8 8 -14.5t-8 -12.5q43 23 67.5 9.5t42 -41t34 -60.5t42.5 -49q-8 -39 -7 -59.5t-19 -47.5q12 -12 28.5 -16t24.5 -16q6 -35 7 -66t-24 -59q2 -12 8.5 -24.5t11.5 -25t5 -26.5t-8 -31q-37 6 -63.5 20.5t-48 31 t-43 30.5t-48.5 25q27 47 16.5 90t-43.5 67q0 10 4.5 16.5t8.5 11.5t6 13.5t-2 20.5q-20 29 -31.5 25.5t-36.5 -15.5q-4 12 -10 19.5t-9 13.5t-2 14t11 25q-14 -23 -31.5 -22t-33 8.5t-27.5 10.5t-15 -18q-25 14 -37 19.5t-23 6.5t-26.5 -1t-44.5 -4q-8 -16 -0.5 -20.5 t17.5 -5.5t17 -4t1 -15q-27 6 -36 -8.5t-9 -34.5q-10 12 -13 28.5t-8 31.5t-13.5 27.5t-26.5 16.5q-14 0 -19.5 -7t-8.5 -14.5t-7 -14.5t-19 -7q-6 12 -39.5 19.5t-72.5 7.5q0 -20 3 -30.5t6 -19t4 -18.5t-5 -31q-41 20 -58.5 -6t-2.5 -71h14t26.5 -3.5t25.5 -10.5t11 -23 q-6 -10 -13 -10.5t-15 3t-18.5 6.5t-24.5 1q-6 -6 -4 -17.5t7 -25t8 -27.5t-1 -27q12 -12 23.5 -7t37.5 -3q0 -27 1 -48t-25 -21q2 -10 19.5 -18.5t37 -11.5t35.5 3t20 27q14 0 20.5 -4.5t12.5 -8.5t14.5 -6t24.5 0q12 0 16.5 9.5t16.5 9.5q0 20 -7 31.5t1 37.5 q27 8 45 22.5t24 49.5q-4 10 -9 11t-12 0t-13.5 -1t-8.5 6q-10 10 -9 19.5t6 18.5t9.5 19.5t2.5 24.5q27 0 39 -17.5t4 -45.5q20 -4 31.5 -3t19.5 3t16 2t21 -2q31 -59 42 -121t14 -126.5t4 -132t11 -140.5q29 -6 51.5 3t41 22t34 27.5t31.5 18.5q27 2 46.5 -5t40 -19.5 t43 -23.5t54.5 -13q-12 -47 -13 -77t4 -55.5t9 -53t0 -70.5q-27 0 -38 -3t-3 -26q25 -12 43.5 -27.5t-2.5 -50.5q-6 8 -15 11.5t-9 15.5q-29 -33 -30 -78t20 -72q-16 0 -25.5 -9t-13.5 -22.5t-7.5 -28.5t-7.5 -28q-27 6 -36 -2t-25 -16q-27 20 -66 13t-65 -48 q-23 16 -48.5 21.5t-51 7.5t-54 4t-57.5 12q-8 0 -9 -11t-1 -24q-29 2 -67 11.5t-75 13.5t-69.5 -2t-53.5 -33q-16 16 -51 26.5t-71.5 11.5t-68.5 -5t-46 -23q-29 18 -69 50t-68.5 67t-36.5 72t24 65q12 -12 26.5 -9t28 16.5t24.5 33t20 37.5q12 0 15 -8t9 -8 q14 8 18.5 27.5t18.5 25.5q-4 12 -13 15t-18.5 4t-16.5 7.5t-7 24.5q6 0 15 3t17.5 3t12.5 -4t0 -18q8 8 11 16t15 0q0 23 -1 42.5t1.5 34.5t10.5 29.5t24 26.5q-18 31 -25 72t-8.5 84t-2.5 86t-9 76q53 41 44 89t-44 95q14 0 20.5 5t11.5 11.5t12 10.5t20 0q-4 16 -5 34.5 t-5.5 35t-13.5 30.5t-30 25q27 39 15 61.5t-41 44.5q-18 -4 -27.5 -7t-15.5 -6t-15.5 -4t-29.5 -1q8 18 0 29.5t-8 31.5q-14 -10 -25.5 -11t-24 0t-28 1t-37.5 -6q-4 18 -5 31.5t0 23.5t7 21.5t16 27.5q66 -6 133.5 4.5t135 19.5t137 7t139.5 -31q23 12 61.5 19.5t81.5 7.5 t85 -7.5t71 -19.5zM711 647q20 -12 31.5 -39.5t-15.5 -40.5q-18 -6 -26.5 -1t-11.5 14.5t-5 18.5t-8 13q0 -35 -12.5 -54t-24.5 -34q-16 -4 -25.5 0t-14.5 12.5t-10 16.5t-11 14q-20 -12 -14.5 -29.5t14.5 -31.5q12 4 28.5 -3t32.5 -12.5t32.5 -4.5t28.5 20 q4 -16 12.5 -25.5t17.5 -17.5t16.5 -18.5t7.5 -26.5q27 4 46 3t34.5 1t29 8t29.5 25q-12 37 -10 75.5t3 74.5t-6.5 65.5t-37.5 48.5q-10 -14 -9 -27.5t3 -25t-1.5 -20.5t-19.5 -15q-23 0 -30 8t-5 19.5t10.5 23.5t14.5 18q-31 20 -56.5 1t-37.5 -54zM1337 612 q18 -6 22.5 8.5t10.5 26.5h-33q0 -10 -3 -14t-5 -6t-1 -5.5t9 -9.5zM1239 578q8 27 -3 36t-24 17q0 -20 3.5 -40.5t23.5 -12.5zM1106 543q10 -6 9 -17.5t-3 -21.5t-1 -17.5t13 -7.5q2 6 9.5 20.5t10.5 30t0 26.5t-20 11q0 -12 -2 -18t-16 -6z" />
<glyph unicode="F" d="M461 1407q10 4 15 14.5t10.5 19.5t12.5 16t23 7v-45q23 -4 35 9.5t21 29.5q-10 18 -24.5 21.5t-29 5.5t-27 8t-16.5 31q8 6 17.5 2t19.5 -10.5t24.5 -10.5t35.5 2q4 -16 10 -37.5t35 -21.5q4 0 5 5t11 5q-10 10 -13 25.5t-20 19.5q8 4 17.5 7t3.5 26q43 -16 88 -14t91 5 t90 -1t81 -35q-4 23 3 28t22.5 4t38 -1t51.5 14q6 -29 -10.5 -37t-32.5 -8q16 -10 17 -25.5t-2 -34t-5 -37t8 -32.5q29 10 43 31.5t22.5 47t11.5 51.5t11 44q16 -4 24.5 -1t13.5 8t11 8t21 1q37 -23 64.5 -34t80.5 -11q25 -78 47.5 -154.5t34.5 -155.5t8 -162t-33 -173 q-47 4 -75.5 28.5t-49 56.5t-40 63.5t-50.5 54.5q4 29 9.5 61.5t5.5 67.5t-7.5 69.5t-25.5 67.5q-45 0 -45 -43q-16 2 -28.5 10.5t-21.5 19.5t-18.5 22.5t-21.5 17.5q-37 -25 -74 -20t-72 20q-8 -12 -13 -24.5t-13 -21.5t-21.5 -13.5t-36.5 -0.5q-4 16 -12 25.5t-4 34.5 q-35 6 -48 -5.5t-23.5 -27.5t-23.5 -29.5t-46 -7.5q10 -63 19 -123.5t5 -111.5q29 4 42.5 20.5t29.5 34.5q6 0 7 -8t0 -19.5t-2 -22.5t1 -20q-39 8 -54 -7t-7 -48q4 -10 12 -13t4 -18q12 2 17.5 11.5t7.5 20.5t4 23.5t10 18.5q12 -4 17.5 -15.5t9.5 -26.5t7 -30.5t11 -27.5 q16 16 30.5 36.5t14.5 57.5q12 4 17.5 2t8.5 -7t7 -11.5t12 -8.5q23 41 36 89.5t38 86.5q23 -6 43 -17t40.5 -21.5t43 -17.5t51.5 -7q12 -35 9 -63.5t-8 -54t-3 -49t27 -48.5q0 -16 -7.5 -25.5t-16.5 -16.5t-19.5 -14.5t-14.5 -19.5q39 -45 42 -98t-6 -107.5t-16 -106.5 t13 -95q-63 12 -92 -10.5t-29 -73.5q-14 6 -20 15t-11.5 14t-12.5 5t-23 -12q8 37 -14.5 53.5t-63.5 8.5v61q10 -8 16 -16.5t17 -12.5q2 18 -7.5 28.5t-18.5 19t-13 19.5t6 34q10 -16 28.5 -16.5t14.5 30.5q2 6 -7.5 10t-20.5 4t-20.5 -4t-6.5 -10q-6 10 -4.5 19.5t7 19.5 t6.5 22.5t-9 28.5q-23 10 -36.5 23.5t-41.5 13.5q-12 -6 -11.5 -25.5t-0.5 -38t-10 -29.5t-38 -3q0 25 11.5 37t7.5 37q-23 -33 -36 -81.5t-15 -100.5t6 -102t26 -85q14 4 16.5 10t1.5 14.5t-1 16.5t12 14q18 6 23.5 0t6.5 -17.5t3 -21.5t12 -12q12 -10 19.5 -4t17.5 15 t24.5 16.5t38.5 1.5q14 -55 48 -68.5t73 -21.5q-4 -29 -6 -53.5t-2 -47t2 -48.5t6 -58q-37 -20 -95 -32.5t-122.5 -16t-124 3t-98.5 22.5q-29 -6 -47.5 -20.5t-52.5 -24.5q-14 0 -21.5 7t-13.5 16.5t-12.5 19.5t-14.5 14q-33 -8 -61.5 -9t-56 -2t-55.5 -4t-56 -15 q2 27 12 40t19.5 23t14.5 23.5t-1 44.5q29 2 49 3t37.5 1t36 -1t45.5 -3q0 25 12 56.5t53 31.5q8 33 10.5 61.5t4.5 52t8 43t22 33.5q-25 121 -32 251t12 245q0 10 -6 13t-14.5 3t-18.5 -2t-18 0q0 29 19 42.5t38 25.5q0 63 4 117.5t4 101.5t-7 87t-30 77q-18 -10 -39.5 -3 t-41 14t-37 8t-27.5 -19q-23 16 -19 27.5t14.5 24.5t17.5 31.5t-9 49.5q16 -4 25.5 0t16.5 10t15 9t23 -3q-27 -20 -24 -39.5t24 -48.5q14 0 14 6.5t-5 13.5t-6 13t13 6q0 8 1 4t4 -13t9.5 -21.5t14.5 -20.5zM1167 1491q0 -25 13.5 -36t13.5 -36q27 -2 47.5 1t34.5 4 t23.5 -2t13.5 -15q12 16 9 27.5t-11 21.5t-15.5 21.5t-1.5 29.5q-35 -16 -66.5 -14t-60.5 -2zM696 1448q12 0 20.5 -4t12.5 -8q-4 16 0 21t11.5 8t13.5 7.5t4 18.5h-45q0 -16 -8.5 -23.5t-8.5 -19.5zM862 807h60q4 27 -7.5 36t-25.5 19q2 -14 -4 -18t-13.5 -7t-11.5 -8.5 t2 -21.5zM758 807q2 12 6 12t12 -4t17.5 -8t19.5 0q0 27 -17.5 31t-37.5 0q0 -16 -8 -21.5t8 -9.5zM913 119q12 -2 18.5 1t11.5 5t10 2t14 -8q4 16 -5.5 24.5t-21.5 8.5t-21.5 -8.5t-5.5 -24.5z" />
<glyph unicode="G" d="M1296 770q-27 -12 -48 -26.5t-54 -41.5q-6 8 -9 13.5t-18 11.5q23 0 38.5 11.5t29.5 22.5t27.5 16t33.5 -7zM1339 780q18 0 21.5 -12t3.5 -31h-68q2 16 11.5 17.5t16.5 0.5t12 2t3 23zM344 1264q20 2 28.5 14t14.5 24.5t13.5 23.5t23.5 13q-6 -10 -4 -22t3 -25.5t-4 -24 t-28 -12.5q16 -12 30.5 -8t27 15.5t23.5 24.5t22 20q-6 12 -14.5 11t-16.5 -4t-15.5 -3t-13.5 12q6 49 27.5 74.5t47.5 42t52.5 34t42.5 48.5q23 0 37 -3t8 -22q27 -6 31 9.5t4 33.5q18 -6 27.5 -23.5t15.5 -35.5q12 12 23.5 22t11.5 37q0 -12 9 -16t19.5 -5t17.5 -5.5 t3 -16.5q20 0 34.5 10.5t37.5 14.5q29 -18 66.5 -19.5t79.5 1.5t82 4t75 -11q2 -16 -3 -31.5t-6 -28t9 -19.5t43 -7q-4 -20 -6 -30.5t-2 -17.5t2 -15.5t6 -24.5q-20 0 -28.5 -10t-14.5 -23q0 -41 18.5 -57t32.5 -39q0 -12 -5 -18.5t-11.5 -12.5t-10.5 -14t0 -25 q-18 0 -31.5 -7t-23.5 -15t-21.5 -17.5t-29.5 -11.5q-33 66 -61.5 136.5t-73.5 123.5q18 18 12 30.5t-22.5 23t-38 19.5t-29.5 24q-27 0 -27 -48q-33 -4 -50 6.5t-29.5 20.5t-27 18.5t-38.5 2.5q-129 -43 -158 -193q-29 0 -43 -5t-19 -15.5t-3 -26.5t6 -39q-33 0 -54.5 -3 t-13.5 -50q-10 6 -19 15t-18.5 14.5t-17.5 3t-14 -14.5q-8 8 -7.5 24.5t2.5 36t0 42t-16 45.5zM733 354q-2 6 4 15.5t12.5 18.5t9.5 18.5t-7 19.5q4 10 9 8t10 -8t11 -14.5t13 -10.5q0 -10 -4.5 -15t-10.5 -8t-11 -6t-7 -10q6 -6 20.5 -10t31.5 -5t35.5 0t33.5 7 q2 14 -1 22.5t-8.5 14.5t-9.5 14.5t0 20.5q14 0 28.5 -5t27 -7t20.5 1t10 19q0 18 -14 31.5t-27 21.5q18 25 47 35t56 -2q12 8 16 27.5t-8 32.5q-16 -10 -23.5 -10.5t-13.5 2.5t-16.5 6.5t-32.5 1.5q0 20 -8 31.5t0 39.5q-23 -10 -39.5 -10t-29.5 5t-25.5 12.5t-28.5 11.5 q2 31 13 54.5t18.5 45t6.5 44t-20 50.5q39 6 55.5 -4t24.5 -37q29 -4 70 10.5t84 25.5t82 7t65 -43q12 0 18.5 5.5t9.5 12.5t5 14t8 9q27 -18 60.5 -18t60.5 18q35 -12 58.5 -29.5t31.5 -54.5q10 0 12 5.5t2 11.5q20 0 24.5 -20.5t10.5 -39.5q-33 -14 -57.5 -31.5 t-34.5 -64.5q-31 14 -47 6t-28.5 -23.5t-26 -29.5t-37.5 -14q2 -18 8 -41t7 -44.5t-5 -40t-29 -28.5q18 -27 21.5 -58.5t3.5 -64.5t1 -65.5t17 -61.5q0 -12 -5 -19t-11 -13.5t-9 -14.5t1 -25q-23 14 -42.5 13.5t-35.5 -9t-29.5 -21.5t-23.5 -26q-14 2 -18.5 10.5t-5.5 17.5 t-3 18.5t-10 15.5q-76 0 -124 -22.5t-89 -55.5q-53 12 -83 -2t-56 -41q-14 27 -40 34t-36 25q-12 2 -20.5 0t-14.5 -5t-14.5 -7t-22.5 -4q-10 16 -19.5 32.5t-22.5 30t-33.5 20.5t-53.5 5q-12 33 -24.5 66.5t-28.5 63.5t-40 54.5t-56 36.5q-6 61 -15.5 119.5t-20.5 116 t-21.5 115t-16.5 118.5q-4 12 1 17.5t12 7.5t13.5 4t6.5 12q-18 31 -13.5 56.5t18 52t27 56.5t9.5 69q23 -6 39 -12.5t43 -12.5q-4 -72 1 -157t23.5 -165.5t53 -148t94.5 -106.5q4 4 5 20t1 21q23 -4 30 7t25 11q6 -8 9 -21.5t16 -13.5q-23 -25 -22 -49.5t15.5 -46t36 -39 t37.5 -31.5zM1167 727q14 -6 17.5 -11t9.5 -14q33 27 54.5 41.5t47.5 26.5q-20 12 -33.5 7t-27.5 -16t-29.5 -22.5t-38.5 -11.5zM1296 737h68q0 18 -3 30.5t-22 12.5q2 -20 -3 -23t-12 -2t-16.5 -0.5t-11.5 -17.5z" />
<glyph unicode="H" d="M1389 1483q14 16 19 10t6 -21.5t-2 -32t-5 -20.5q-20 0 -22.5 11.5t1 24.5t6.5 22.5t-3 5.5zM481 520q23 -6 29 -19.5t6 -29.5q-18 0 -22.5 -15.5t-12.5 -29.5q-25 14 -15.5 44t15.5 50zM565 188q10 6 5 13.5t-5 21.5q6 -12 20.5 -18t30 -10.5t27.5 -13.5t16 -27 q-23 2 -49 -6.5t-49.5 -13.5t-40 4t-18.5 50q6 2 16 8.5t20.5 8.5t18.5 -1.5t8 -15.5zM676 197q10 6 17 1t12.5 -11.5t8.5 -8.5t5 10q29 -20 20.5 -42.5t-26.5 -36.5q-14 14 -30.5 26t-16.5 45q10 1 10 17zM1159 197h27q6 -27 0 -34t-6 -26q-6 0 -15.5 3t-21.5 3 q-4 10 -2 16.5t6 10.5t8 10.5t4 16.5zM1286 154q-16 -6 -23.5 -2t-11.5 12t-9 13t-19 3q4 12 13 14.5t19.5 -4t18.5 -16.5t12 -20zM969 180h43q-6 -6 -9.5 -15t-6.5 -16.5t-9 -11.5t-18 0v43zM666 1509q4 -6 3 -21t-8.5 -31.5t-20.5 -28t-34 -9.5q0 -39 -6 -66.5t-9 -51 t-2 -47t17 -54.5q-27 -14 -37 -34.5t-32 -37.5q0 -18 12 -28t41 -4q-10 -59 20.5 -104.5t79.5 -66t106.5 -10t100.5 63.5q0 -33 16.5 -46t38 -21.5t39 -18.5t21.5 -35q16 51 52 74.5t69 56.5q-4 29 -15.5 41t-17.5 37q20 16 40.5 26.5t30.5 34.5q0 16 -8 23.5t-18 11.5 t-18.5 9.5t-8.5 17.5q-8 35 10.5 48t30.5 32q-20 41 -37.5 70.5t-31.5 62.5q-33 8 -67 6t-75 10q6 23 22.5 44.5t24.5 56.5h52q0 -14 4 -22.5t8 -14.5t6 -14.5t0 -20.5q16 0 21.5 8t9.5 16.5t11 12.5t26 -2q14 4 9 11t-14.5 16.5t-15.5 18.5t6 15q23 -4 35 -6t20.5 -4 t16.5 -5l24 -9q-4 -18 -0.5 -28.5t9.5 -18t13 -13.5t13 -12q0 18 5.5 50t37.5 46q20 -6 26.5 -23.5t10.5 -37t12.5 -34.5t32.5 -19q-16 -29 -34.5 -48.5t-47.5 -29.5q-12 -80 -3 -148.5t-3 -136.5q23 -25 23 -55.5t-4.5 -62t-3 -64.5t27.5 -62q-27 -4 -35 -20.5t-4 -37 t16.5 -39.5t28.5 -30q-18 -76 -24 -155.5t9 -148t57 -121t118 -74.5q14 -37 13 -62.5t-10 -48.5t-25.5 -44.5t-34.5 -47.5q-16 0 -22.5 5t-11.5 13t-9 15.5t-13 11.5q-23 -31 -53.5 -32t-61 4t-59 2t-49.5 -36q-10 6 -10 10.5t2 8.5t2 9t-10 15q-27 0 -54.5 -2t-52 1.5 t-43 13.5t-24.5 33q-14 2 -21.5 -3.5t-13.5 -11.5t-13.5 -11t-23.5 -1q-6 12 -6 33.5v44t-4 42t-19 29.5q14 23 36 35.5t44.5 21.5t46 17t43.5 23q31 27 40 57.5t12.5 64t7.5 71.5t20 81q-12 18 -15 41t-3 46.5t-2 46t-15 42.5q-31 10 -60.5 13.5t-56 5.5t-49 7t-38.5 17 q-4 -12 -19.5 -15t-34 -3t-34 -4t-17.5 -21q-35 12 -60.5 10t-47 -12t-40 -24.5t-36.5 -26.5q10 -43 7 -102.5t-1 -119t17.5 -111.5t62.5 -81q0 -16 -8.5 -16t-8.5 -10q41 -14 82 -27.5t86 -26.5q12 -47 -7 -90t-46 -78q-4 6 -15 14.5t-11 18.5q-16 -10 -35 -16t-33 -14.5 t-20.5 -18.5t-0.5 -27q-41 37 -89 49.5t-101 12.5t-110.5 -8t-112.5 -11q-6 8 -16.5 15.5t-19.5 16.5t-15.5 22.5t-1.5 34.5q113 -10 175 1t113 27q0 25 -14 37t-29 31q-10 4 -10 -2t1 -13.5t-1 -11.5t-14 2q-16 12 -32.5 39t-22 56.5t6 59.5t48.5 48q-14 70 -12.5 131 t5 116.5t1.5 103.5t-21 89q16 35 18.5 71t-2 73t-10.5 73.5t-6 73.5q6 2 9 8t6.5 11.5t9.5 7.5t18 0q0 29 -8 52.5t-14.5 45t-3 39.5t25.5 39q-4 16 -10 28.5t-14.5 24.5t-13.5 25.5t-5 34.5h-78q4 20 24.5 31.5t35.5 31.5q20 0 29.5 -11.5t23.5 -15.5q45 27 87 24t89 -24 q12 0 17.5 8.5t10.5 18.5t11 18.5t22 8.5q-6 -14 0.5 -18.5t6.5 7.5zM481 426q8 14 12.5 29.5t22.5 15.5q0 16 -6 29.5t-29 19.5q-6 -20 -15.5 -50t15.5 -44zM502 188q2 -41 18.5 -50t40 -4t50 13.5t48.5 6.5q-4 18 -16 27t-27.5 13.5t-30 10.5t-20.5 18q0 -14 5 -21t-5 -14 q0 12 -8 15.5t-18.5 1.5t-20.5 -8.5t-16 -8.5zM666 180q0 -33 16 -45t31 -26q18 14 26.5 36.5t-20.5 42.5q-2 -12 -5 -10t-8.5 8.5t-12.5 11.5t-17 -1q0 -17 -10 -17zM1143 143q12 0 21.5 -3t15.5 -3q0 18 6 25.5t0 34.5h-27q0 -10 -4 -16.5t-8 -10.5t-6 -10.5t2 -16.5z M1223 180q14 2 19 -3t9 -13t11.5 -12.5t23.5 2.5q-4 10 -12 20t-18.5 16.5t-19.5 4t-13 -14.5zM969 137q12 -4 18 0t9 11.5t6.5 16.5t9.5 15h-43v-43z" />
<glyph unicode="I" d="M1042 1540q29 -6 52.5 -14t58.5 -8q-18 -18 -2 -38t33 -26q20 0 30.5 7t18.5 15.5t19.5 13.5t31.5 3q12 -23 -2 -32t-31.5 -14t-28 -12.5t6.5 -27.5q-14 -12 -28.5 -9t-34 11t-43 14.5t-56.5 -0.5q2 29 3 44.5t-1 25.5t-8.5 19.5t-18.5 27.5zM1034 1518q0 -12 1 -23.5 t7 -15.5q-4 -6 -11 -9.5t-13 -7.5t-9 -12t3 -27q-18 10 -37 25.5t-19 44.5q12 8 17.5 12t12.5 6t17.5 2.5t30.5 4.5zM817 618h29q6 -16 -2 -19t-19 -3q6 -12 13.5 -18.5t23.5 -6.5q2 -12 -1 -17t-7 -8t-9 -8.5t-5 -13.5q-23 12 -23 38.5v55.5zM1090 182q18 -10 24 -19 t7 -19.5t1 -24t6 -29.5q-18 -12 -35.5 -12t-33 5t-29.5 14t-26 16q0 6 3 14t-3 8q-4 8 8 14.5t25.5 8.5t24.5 -3t5 -20q35 0 23 47zM526 135q20 2 27.5 -3t11.5 -11t9.5 -8t23.5 8q0 -23 -16.5 -34t-38.5 -5q-12 6 -14.5 18t-2.5 35zM692 135q10 -6 16.5 -13t6.5 -26 q-14 -8 -26.5 -8t-25 2t-25.5 4t-32 -4q2 23 13.5 25t25.5 0t27.5 -1t19.5 21zM748 135q10 -6 16 -21.5t6 -31.5q-47 -12 -47 31q18 -6 21.5 3t3.5 19zM817 1423q10 2 7 7.5t-10 11.5t-13 15t0 22q25 16 53.5 9t38.5 -18q8 -27 1 -62.5t-13.5 -73.5t-2 -71.5t39.5 -58.5 q-31 -33 -31 -90t8 -121.5t13 -125t-15 -99.5q12 -55 23.5 -108.5t21.5 -107.5t16.5 -114.5t10.5 -130.5q16 0 22 7.5t25 0.5q10 -25 3 -41t5 -45q59 10 108.5 -1t79.5 -46q16 6 37 12.5t38 7.5t28.5 -8.5t11.5 -35.5q-35 -12 -73 -14.5t-89 -2.5q-18 -16 -10 -29.5 t25.5 -19.5t36 -2t24.5 23q20 -25 44 -23t46.5 9t46 10.5t43.5 -19.5q-18 -10 -35.5 -27.5t-37 -38t-40 -41t-44.5 -34.5q-72 35 -167.5 38t-193.5 0t-192.5 -2t-163.5 33q-29 -12 -52.5 -20t-39.5 -27q-12 12 -32 21.5t-32 25.5q-10 -12 -26.5 -20t-51.5 -2 q-35 47 -26.5 96t26.5 90q16 -12 38 -21t56 -3q0 -23 -9 -33t-15 -29q25 -29 51.5 -26.5t48.5 20.5q-6 29 -25.5 40t-41.5 28q23 23 45 20.5t47 -20.5q29 23 73 32t91 15q25 35 40 79t40 78q2 18 -3.5 26.5t-11.5 15t-12 11.5t-6 17q35 129 45 264t-12 258q6 14 18 24.5 t24.5 22t20.5 25.5t6 39q-4 14 -15 16t-23.5 3t-21.5 8.5t-9 33.5q16 -6 25 -2t15.5 11.5t11.5 14.5t17 7q0 12 -8 30.5t-13 37t-2 33t23 18.5q-12 29 -24.5 34t-30.5 11q8 25 1 42t-22.5 32.5t-34 30t-30.5 28.5q0 23 12 34t12 30q18 0 26.5 -8.5t17 -15.5t16.5 -10t26 9 q-12 -35 3.5 -47.5t27.5 -22.5zM840 524q0 8 5 13.5t9 8.5t7 8t1 17q-16 0 -23.5 6.5t-13.5 18.5q10 0 18.5 3t2.5 19h-29v-55.5t23 -38.5zM1067 135q6 14 -5 19.5t-24.5 3.5t-26 -8.5t-7.5 -14.5q6 0 3 -8t-3 -14q12 -6 26 -15.5t29.5 -14.5t33 -5t35.5 12q-6 16 -6 29.5 t-1 24t-7 19.5t-24 19q12 -47 -23 -47zM932 113q0 29 -25.5 37t-60.5 8q-4 -23 4 -36t22.5 -18.5t31 -2t28.5 11.5zM543 82q23 -6 39 5t16 34q-18 -10 -23.5 -8t-9.5 8t-11 11t-28 3q0 -23 2.5 -35t14.5 -18zM606 90q18 6 31.5 4t26 -4t24.5 -2t27 8q0 18 -6.5 25.5 t-16.5 13.5q-6 -20 -19.5 -21t-27.5 1t-25.5 0t-13.5 -25zM723 113q0 -43 47 -31q0 16 -6 31.5t-16 21.5q0 -10 -3.5 -19t-21.5 -3zM846 158q35 0 60.5 -8.5t25.5 -36.5q-12 -8 -28.5 -11.5t-31 2t-22.5 18.5t-4 36z" />
<glyph unicode="J" d="M1489 1466q-37 0 -62.5 -12t-25.5 -53q-14 18 -36 18t-45.5 -3l-47 -6t-41.5 9q-49 -53 -59.5 -122.5t-7.5 -144.5t7.5 -150.5t-16.5 -143.5q0 -37 11.5 -55.5t25.5 -40.5q0 -29 -16.5 -40t-30.5 -28q37 -53 43 -103t1 -103.5t-13.5 -114t-1.5 -135.5q-23 0 -39.5 -13.5 t-28.5 -34t-21.5 -46t-15.5 -50.5q-29 -18 -56.5 -27.5t-53 -21.5t-47 -30.5t-35.5 -53.5q-72 29 -143.5 16.5t-121.5 -34.5q-23 14 -38 29.5t-29 35.5q-10 -4 -25.5 -1t-29 5t-22.5 0t-9 -12q-51 57 -93 114.5t-106 94.5q-14 74 -16 132t4 110.5t17 103.5t22 113 q184 70 381 26q8 -20 18 -43.5t0 -52.5q-4 -6 -11 -8t-14.5 -2t-13.5 -3t-6 -14q-8 -25 1 -32t22.5 -9t24.5 -5t9 -21q-29 -14 -57.5 -20.5t-52 -15.5t-43 -25.5t-29.5 -53.5q29 -29 48.5 -66.5t47.5 -66.5q10 10 10.5 16.5t-7 11.5t-16.5 9t-17 10q0 29 18 34t41 5 q6 -35 10 -51.5t-10 -42.5q49 -8 85 -16.5t85 6.5q6 -4 7 2t1 16t-1 21.5t3 17.5q47 14 70.5 45t34 73t10.5 93v104q-4 20 -18.5 33.5t-27.5 26t-19.5 28t6.5 43.5q12 0 16 -4t7 -9t6 -9t9 -4q8 61 17.5 129.5t14.5 141.5t4 143.5t-15 136.5q25 63 6.5 98t-59.5 49t-95.5 13 t-101.5 -7q16 66 66.5 84.5t115.5 9.5q18 10 17.5 21.5t-6 23t-9.5 24.5t7 28q18 0 23 -3t5 -10.5t-4 -18.5t-4 -26q18 -29 47 -34t57.5 -3.5t55 -2t41.5 -27.5q72 51 153.5 59t141.5 -20q41 12 57 55q0 -29 7 -36t15.5 -12t13.5 -17.5t3 -47.5z" />
<glyph unicode="K" d="M440 1186q0 25 6.5 24.5t15.5 -7.5t18 -11t18 14q0 14 -7.5 15.5t-18.5 -0.5t-22.5 -1t-17.5 15q6 29 25.5 22.5t40.5 -12.5q0 31 -12.5 42t-26 16.5t-25.5 12.5t-12 32q6 4 12 16t12.5 23.5t13.5 17.5t17 0q8 0 3 16.5t7 28.5q-76 0 -75 -82q-29 2 -45.5 7t-29.5 9.5 t-28.5 5.5t-40.5 -4q0 18 -6 26.5t-13 14t-13.5 9.5t-6.5 14q23 -2 39.5 6t29.5 14.5t24.5 4.5t23.5 -25q29 8 44.5 27.5t31.5 42.5q37 6 63.5 2t48 -14.5t41 -27t39.5 -30.5q14 27 47 48.5t65 24.5t52.5 -21.5t9.5 -88.5q-25 -14 -53 -16t-58 -1t-59.5 1t-58.5 -11 q10 -61 12 -119.5t6.5 -116.5t13.5 -116.5t34 -120.5q10 0 14 2.5t9 5.5t11.5 3t20.5 -2q14 39 44 65.5t57.5 53t47 59.5t15.5 86q8 -6 15 -6t16.5 3t20.5 5t26 -2q10 25 19 49.5t21.5 43.5t33 30.5t53.5 11.5q2 14 0 20.5t-7.5 9.5t-9.5 6t-4 11q-8 0 -11 -6t-6 -11 t-9.5 -7.5t-20.5 4.5q-18 14 -19 31.5t2 32.5t1 24.5t-25 7.5q8 12 9 23.5t1 33.5q20 18 44 20.5t46.5 -3t44 -11.5t39.5 -6q29 0 51.5 19.5t45.5 27.5q10 0 24.5 -7t28.5 -16t27.5 -16.5t25.5 -7.5q20 0 35.5 8.5t28 15.5t24.5 8t27 -13q20 -14 19 -27.5t-13 -28t-28.5 -27 t-26.5 -24.5q-23 12 -39.5 13t-31.5 -2t-30.5 -7t-34.5 -4q-14 -25 -34.5 -43t-39 -37.5t-28.5 -47.5t-2 -71q-23 -14 -42 -34.5t-54 -20.5q8 -29 3 -55.5t-11 -48.5q-61 -6 -84 -58.5t-16 -114t41 -115.5t85 -65q-6 -41 7.5 -68.5t21.5 -62.5q14 -8 20 -4t9.5 10.5 t8.5 11.5t19 3q10 -8 10 -12.5t-5 -8.5t-12 -8t-11 -12q20 -18 33.5 -45t28 -54.5t35 -50t56.5 -28.5q-14 -29 -5 -54.5t32 -40t52.5 -14.5t54.5 21q0 -20 4 -31.5t8 -21t5 -22.5t-5 -38q14 29 27.5 32t48.5 -11q10 -14 12 -28.5t-1 -31t-7 -35t-4 -39.5q-18 -14 -54.5 -25 t-77 -15.5t-80.5 0t-65 22.5q-51 -23 -103.5 -24t-101.5 9.5t-96 30t-86 41.5q-14 -16 -25.5 -32.5t-11.5 -45.5q-154 -12 -312.5 -15t-303.5 -11q-4 45 -7.5 82t-3.5 67.5t8.5 58t30.5 56.5q10 4 15.5 3t8.5 -3t8 -3t15 3q10 8 20.5 16.5t10.5 30.5q45 10 68.5 42t34 77 t9.5 98t-5 105.5t-9.5 100.5t-3.5 81q29 31 29 79t-4 99t-4 97t29 75q-4 -10 -1 -16t7 -12.5t9 -12.5t5 -16q2 10 13.5 15t23.5 10.5t21.5 11.5t9.5 20q-4 14 -20.5 13t-35 -4t-33 -1.5t-10.5 19.5zM700 639q-18 -47 -22 -86t1 -78t14 -80t18 -90q29 -16 48 -19t48 19 q10 -8 15 -22.5t7 -33t5.5 -39t9.5 -38.5q25 0 30 16.5t4 38t-3.5 42t10.5 26.5q20 -14 39.5 -29.5t64.5 -7.5q-4 70 -21.5 129t-44 109.5t-57 96.5t-59.5 93q0 -29 -11.5 -38t-27.5 -9t-35 3t-33 -3zM229 125q6 0 7.5 -2t1.5 -14q29 0 59.5 2t38.5 14v-39q16 -6 27.5 0 t11.5 23q-25 2 -30 10t0 18t15.5 19.5t14.5 15.5q-25 4 -39 -1t-23.5 -8t-16.5 -1t-20 20q-6 -12 -26.5 -19t-20.5 -38zM1354 172q0 -12 -10.5 -18.5t-10.5 -28.5q14 4 31.5 4h33t28 3t16.5 13q0 20 -21.5 31.5t-66.5 -4.5zM788 125q18 -6 28.5 2t12.5 19.5t-3 20.5t-19 5 q0 -12 -9.5 -18t-9.5 -29zM1288 125h39q4 31 -2 39t-29 8q0 -12 -4 -18t-4 -29z" />
<glyph unicode="L" d="M1032 1516q14 -4 11 -17.5t1 -25.5q12 -6 16.5 -2t6.5 11t5 12t15 -1q-4 -16 6.5 -18t22.5 -2q2 -8 -3 -17.5t-8 -17.5t0 -12.5t19 -2.5q-10 -12 -18 -30.5t-19 -36.5q-29 6 -41 25.5t-22 41.5q-10 -16 -27.5 -24t-33.5 -19q-12 2 -14.5 9.5t-1.5 15.5t2 18.5t-7 22.5 q23 20 51.5 30.5t38.5 39.5zM1311 279q-43 6 -41 21t16 22.5t28.5 0.5t-3.5 -44zM862 469q-35 -12 -52 -45t-30 -70q8 -10 23.5 -12t32 1t33 7t28.5 4q16 -51 61.5 -58t108.5 3q0 -16 6 -23.5t6 -25.5q23 20 55.5 31.5t62.5 24.5t49.5 36t15.5 70q-6 -2 -9.5 -7.5t-6.5 -9.5 t-9 -6t-20 2q-18 61 -17.5 115.5t6.5 114.5q33 -4 59.5 1t43 19t20.5 34.5t-8 47.5q14 -4 38.5 -1t51.5 11t49.5 20.5t34.5 28.5q10 -18 25.5 -49t24.5 -64.5t10 -65.5t-17 -50q14 -37 11 -73t-14 -69.5t-24.5 -64.5t-18.5 -59.5t4 -53t42 -47.5q-8 -29 -12 -53t-8.5 -45.5 t-12.5 -42t-22 -45.5q-63 -6 -135 -18.5t-147 -19.5t-147.5 -6t-135.5 19q-18 -12 -45 -30.5t-52.5 -28.5t-49 -7t-36.5 32q-12 -4 -21 -12.5t-20.5 -14.5t-26 -9t-36.5 1v49h-43q-10 -4 -11.5 -13.5t-17.5 -9.5q0 -12 6 -19t12.5 -12t10.5 -13.5t0 -24.5q-63 4 -108.5 5 t-85.5 4t-83 10t-102 24q-8 31 -20.5 48t-28.5 34q10 41 19 77.5t38 59.5q8 -4 10 -14.5t3 -21.5t5.5 -20.5t16.5 -9.5q10 2 16 9.5t11.5 16.5t9.5 20.5t12 19.5q-2 6 -8 8t-12.5 3t-11.5 3t-5 11q18 20 31.5 29t30 14.5t40 7.5t60.5 6q18 8 27.5 24.5t19.5 32t23.5 26.5 t42.5 9q-8 43 -19.5 84t-15.5 81t4 79t43 78q-20 14 -20.5 29.5t7 31.5t15.5 32.5t6 33.5q0 20 -14.5 37.5t-18.5 41.5q-4 29 10.5 51.5t14.5 53.5q-4 23 -18.5 40t-14.5 38q-4 16 8.5 27.5t12.5 27.5q-2 47 -2 86t-4.5 75t-13.5 67.5t-27 62.5q-37 2 -63 -6.5t-47.5 -20.5 t-44 -25.5t-52.5 -19.5q-10 12 -15.5 28.5t-11.5 32t-16.5 26.5t-32.5 9q8 12 11 20.5t2 19t-3 24.5t-2 37q27 14 72 30.5t94 20.5t94 -7.5t74 -51.5q25 4 33 23.5t12 41.5q18 -2 40.5 0t45.5 2t42 -2t34 -10q16 -16 8 -26.5t-8 -28.5h80q10 0 9 3t-5 8t-7.5 13t3.5 19 q25 -4 41 -15.5t26 -27.5q-4 -39 -24.5 -59.5t-48 -35t-55 -28t-42.5 -39.5q4 -23 14.5 -38.5t20.5 -31.5q-31 -104 -23.5 -193.5t28 -174.5t40 -168.5t10.5 -176.5q-4 -14 3.5 -19t16.5 -8t15 -9.5t2 -22.5zM1311 279q18 37 3.5 44t-28.5 -0.5t-16 -22.5t41 -21z" />
<glyph unicode="M" d="M1516 113q-25 -45 -66 -52.5t-90 -6.5t-98.5 -2t-87.5 -42q-29 14 -64 33.5t-68.5 27t-62.5 -4t-43 -56.5q-31 31 -72 36t-86 5q0 16 -11 20.5t-11 18.5q-43 -6 -103.5 -18.5t-124 -20.5t-124 -5t-105.5 26q-4 25 -3 57.5t2 61t2 48t-1 13.5q14 0 17 12t5.5 24.5 t9.5 20.5t29 2q-8 37 -12 76t0 75t16.5 63.5t36.5 41.5q0 8 -7 9.5t-16 -1t-20.5 -5.5t-19.5 -3q8 23 13 39.5t11.5 29.5t14.5 24.5t24 27.5q-8 6 -16 5t-15.5 -5t-15.5 -5t-16 5q8 14 19.5 20.5t20.5 9.5t16 8t7 22q-16 14 -39.5 19t-23.5 19t10 24.5t21.5 20t21.5 21.5 t10 35q-16 16 -31.5 20t-31.5 19q0 14 7 23t16.5 17.5t20.5 16.5t19 25q-8 14 -21 25t-26.5 22.5t-22.5 23t-9 27.5q14 0 19 6t11 14.5t15.5 14.5t33.5 6q0 29 -23.5 46t-39.5 34q0 31 23.5 47t39.5 31q-25 8 -47 33.5t-31.5 55t2 56.5t54.5 33q-14 0 -14 20.5t14 20.5 q16 -14 28.5 -29.5t12.5 -30.5q14 14 38.5 27.5t41.5 13.5q14 -16 24.5 -24t-6.5 -37q23 0 33 6t17 11t16.5 7t31.5 -4q0 -8 -5 -18t-9 -20.5t-2 -21.5t16 -20q8 0 8.5 6.5t0.5 12.5t5 8t27 -4q14 0 22.5 -13.5t10.5 -33t-1 -40t-9 -34.5q6 -23 22.5 -42t34 -41.5 t29.5 -50.5t12 -65q-29 0 -34 25t-5 53q-16 -14 -19 -30.5t-3 -47.5q0 -16 16.5 -19t44.5 -3q-8 -29 -3 -58.5t17.5 -59t25.5 -59.5t20 -61q14 0 20 6.5t7 14.5t3 14t11 6q-8 14 -9.5 23.5t0.5 19t5.5 21.5t3.5 35q12 -14 17 -24.5t22 5.5q14 0 7 -16.5t-7 -44.5 q45 29 50 73t-10 87q14 0 28.5 2t31.5 16q-23 45 -12.5 88t31 86t41 88t20.5 98h76q8 20 2.5 30.5t-14.5 16t-18 11.5t-9 22q29 0 62.5 -13t80.5 -28q27 14 42 33t15 49q31 -16 48.5 -8t33.5 8q0 -6 2 -12q4 -10 17 -10q-45 -74 -67.5 -149t7.5 -148q-16 0 -21 -11.5 t-20 -11.5q31 -193 45.5 -408.5t14.5 -426.5h80zM600 1286q-8 0 -8 -9t7 -18.5t21.5 -14.5t36.5 1v41q-31 0 -38 7t-19 -7zM518 1106q0 -31 13.5 -41t27.5 -39q-16 0 -24.5 -6t-13.5 -12.5t-10 -12.5t-11 -6q6 -8 16 -10t19.5 -2t16.5 -1t7 -9q-16 -31 -19 -56.5t-6.5 -46 t-14.5 -35t-42 -20.5q8 -16 19.5 -15t20.5 4t16.5 3t7.5 -15q-16 -14 -15.5 -25t3.5 -22.5t3 -24t-14 -26.5q31 14 36 -5t5 -36h-41q31 -31 36 -60.5t3 -58t-2 -58.5t23 -60q14 0 20 6t10 11t10.5 7t20.5 -6q6 14 4 23.5t-10 17.5t-17.5 16.5t-15.5 22.5h57q-16 23 -18 42 t-2 37.5t-3 39t-18 43.5q16 0 28.5 -3t12.5 -20q0 37 -6 58.5t-9 39t-2 35t17 47.5q-31 0 -46 13.5t-20 32t-2 39t11 36.5q14 -8 25.5 -6t20.5 9t17.5 18.5t16.5 19.5q-39 -8 -57.5 9.5t-28.5 45t-20.5 57t-32.5 46.5q0 -14 -11.5 -19.5t-11.5 -21.5zM1135 1087q8 -16 6 -22 t-7.5 -11t-11.5 -15.5t-6 -30.5q31 -6 38 -28t9 -47.5t6.5 -54t26.5 -51.5q14 45 19.5 113t21.5 125q-8 0 -19.5 1t-18.5 4t-9 11.5t6 24.5q-14 8 -20.5 6t-10.5 -7t-10 -11.5t-20 -6.5zM1255 1026q31 0 44.5 5t13.5 34q-12 16 -27 -3.5t-31 -35.5zM1135 670h61q0 23 3 36 t4 23t0 22.5t-7 34.5h-39q0 -29 -11 -58t-11 -58zM1098 629q0 -29 11 -47.5t26 -32.5q16 0 38.5 5t22.5 36q-14 0 -20.5 9t-10.5 19.5t-10 19.5t-20 9q0 -14 -2.5 -7t-16.5 7q0 -14 -2 -16t-16 -2zM1135 190q8 -16 25.5 -29.5t33.5 -20.5t29.5 -6t13.5 16q-8 8 -19.5 18 t-25.5 18.5t-28.5 10t-28.5 -6.5zM1475 131q0 14 9 29.5t9 29.5h-98q0 -31 25.5 -38t54.5 -21zM578 172q0 -16 12 -20.5t25.5 -1t21.5 13.5t2 26q-14 -6 -20.5 -8t-10.5 -2t-10 -1t-20 -7z" />
<glyph unicode="N" d="M852 1212q10 10 12 32t2 44q23 0 44.5 -2t33.5 -12q-18 -41 -17 -69.5t8 -53.5t16.5 -50.5t9.5 -60.5q10 0 22 7.5t23 7.5q-12 -18 -8.5 -25.5t14 -10.5t23 -4t18.5 -7q0 -12 -7.5 -17.5t-17.5 -7.5t-20.5 1t-16.5 9q-18 -6 -19 -21.5t11 -29.5t34.5 -24.5t51.5 -4.5 q0 -10 8 -14t8 -14q0 -18 -5 -28.5t-9 -19t-6 -18.5t4 -28q12 12 18.5 16t9.5 10t3 16.5v34.5q18 -6 25.5 -7t13.5 -1t14 -1t25 -7q-12 25 -33 38t-45 23q0 25 27.5 34t50.5 -1q-12 47 -4 76t20 63q-18 -6 -36.5 -14t-35 -11t-27 5t-10.5 37q35 0 41.5 17.5t0 41t-16.5 47 t-10 33.5q10 12 26.5 29.5t51.5 17.5q-12 12 -21.5 26.5t-9.5 37.5q-12 0 -28.5 -2t-33 -2t-29 3t-18.5 15q-12 -6 -9 -13t9 -16.5t9.5 -17.5t-9.5 -14q-6 0 -16 2t-21.5 2t-18.5 -4.5t-7 -16.5q-12 0 -13 8.5t2 19.5t7 24.5t4 25.5q-10 25 -36 29t-73 4q-6 12 1 22.5 t17.5 14.5t19.5 0t9 -23q10 25 26.5 51.5t4.5 73.5q76 6 132.5 7t109.5 1t109.5 1t131.5 7q20 -47 95 -47q12 -23 19 -39t9 -30.5t-5 -30.5t-23 -41q0 12 -10.5 22.5t-22.5 10.5q-6 -6 -9 -16.5t-7.5 -21.5t-11.5 -18.5t-19 -7.5q-10 -10 -19.5 -1t-9.5 32 q-18 -12 -25.5 -28.5t-12.5 -35t-9 -38t-16 -37.5q12 -6 22 -18.5t14.5 -28t1 -28.5t-21.5 -19q6 -18 14.5 -20.5t16.5 0.5t16 7t14 -2q-35 -29 -51 -66.5t-19 -80.5t4 -89t19 -91q-10 -12 -14 -12.5t-16 12.5q12 -35 13 -70t1 -71t2 -70.5t14 -69.5q12 -6 14.5 1t4.5 15.5 t6 15.5t22 1q6 -25 -1 -35t-18 -14.5t-23.5 -6.5t-18.5 -8q23 -53 15.5 -107.5t-18.5 -105.5t-10 -96t42 -80q-16 -12 -34 -30.5t-35 -38t-34.5 -36t-36.5 -22.5q-10 35 -39.5 53.5t-54.5 40.5q-10 -10 -12 -22t-2 -25q-18 25 -39 68t-43.5 90t-49 90t-54.5 66q10 10 22 14 t23 16q-10 23 -27.5 33t-17.5 45q16 25 5.5 52.5t-33 57t-47 57.5t-34.5 52q10 0 19.5 2t9.5 13q-10 6 -17.5 18t-14.5 27.5t-16.5 29t-27.5 19.5q0 16 4 26.5t9 18.5t6 18.5t-5 28.5q-35 0 -47 -7t-47 -7q-6 23 6 32t26.5 15t26 14t4.5 33q-23 10 -48 25.5t-60 3.5 q-23 -10 -29 -40t-18 -53q0 -18 7 -27.5t16.5 -17.5t16.5 -14t7 -18q-12 -23 -23.5 -54.5t-23.5 -56.5q0 -10 15.5 -14t15.5 -15q0 -25 -17.5 -40t-30.5 -40q6 -18 16.5 -28.5t22 -20.5t18.5 -23.5t7 -35.5q-29 -12 -33 -33.5t2 -49.5t13.5 -58.5t1.5 -59.5h108 q12 -59 -14.5 -91t-61.5 -67q-6 -18 7.5 -18t33 1t35.5 -2t16 -28q6 12 14.5 19.5t15.5 14.5t12.5 17.5t5.5 26.5q-6 12 -16.5 17.5t-19.5 9.5t-13.5 11t1.5 24q25 -16 40.5 -18.5t26.5 3.5t20.5 16.5t21.5 16.5q23 -47 23 -96t-23 -109q-59 12 -86 0t-39 -47q-29 25 -72 26 t-90 -2t-91 -1t-75 24q-57 -23 -135 -11.5t-159 58.5q4 47 27.5 78t57 52.5t69.5 40t61.5 39t37 48t-5.5 70.5q12 29 20.5 51.5t9.5 41t-5 38t-25 41.5q14 10 27.5 20.5t38.5 10.5q0 25 -13.5 47t-24.5 44.5t-10 42t29 38.5q-29 29 -25.5 62.5t11.5 65.5t11 59.5t-25 45.5 q0 35 16.5 52.5t30.5 39.5q-14 25 -32.5 40.5t-33.5 39.5q14 23 30.5 28t16.5 19q-23 10 -35 43t-12 80h-106q-6 18 -19.5 30.5t-29 26t-27.5 30t-18 38.5q10 0 12 9.5t2 23.5q31 -6 47 -2t26.5 14.5t17.5 23.5t20 25q57 -12 102 -25t68 -36q6 29 24.5 37t38.5 11t37.5 6 t23.5 22q25 -10 40.5 -31.5t39.5 -44.5q18 -6 30.5 -5t22 4t18.5 5t21 -4q0 -47 10.5 -84t21.5 -69.5t21.5 -62.5t10.5 -65zM430 104q-10 12 -14 23.5t-19 24.5q-16 -6 -26.5 -4t-17.5 8t-13 13t-18 13q-12 -23 -30 -29t-18 -18q6 -16 24.5 -21t38 -6.5t37 -3.5t23.5 -14 q0 10 -5 22.5t5 22.5q0 -12 5.5 -22.5t11.5 -16.5t11 -5t5 13zM258 90q12 6 13 18.5t-3 25.5t-11 23.5t-13 10.5q-6 -6 -9.5 -19.5t-1 -25.5t7.5 -22.5t17 -10.5z" />
<glyph unicode="O" d="M674 1473q2 2 16.5 -2.5t32.5 -9.5t37.5 -8t36.5 3q-6 31 -15.5 51.5t15.5 38.5q18 -16 38.5 -14t39 3t36 -6t29.5 -40q-25 -12 -36 -4t-30 -4q6 -12 26 -23.5t43.5 -16.5t47 -3t39.5 18q2 14 -3 18.5t-12 6.5t-11.5 5t2.5 19q25 8 39 -3t29.5 -26.5t35.5 -26.5t55 -1 q27 -47 68 -90t75.5 -91t53 -104.5t4.5 -132.5q18 -18 28.5 -49t28.5 -49q-18 -35 -14 -64.5t11 -57.5t6 -54.5t-27 -57.5q0 -18 10 -26t23 -15q-31 -102 -52.5 -196t-50.5 -197q-37 -25 -73.5 -62.5t-77.5 -74.5t-89.5 -66.5t-107.5 -37.5q-18 -6 -50 1t-57 7 q-29 -4 -59.5 -10.5t-58 -8.5t-52 6.5t-38.5 36.5q-31 6 -45.5 -2t-32.5 -14q-4 18 -15.5 28.5t-27 18.5t-28.5 16.5t-19 22.5q-12 2 -19.5 0t-13.5 -5t-13.5 -5t-19.5 2q0 20 -6 51t-19.5 58.5t-35 50t-49.5 28.5q-23 59 -30 111.5t-10 100.5t-9.5 92t-24.5 89 q12 115 26.5 212.5t38 181.5t59.5 159.5t93 147.5q25 0 55.5 22.5t61 46t61.5 38t55 -0.5q-6 -6 -12 -16t-12 -16zM1239 997q-25 -4 -34 7.5t-12 29t-2 38t-1 36.5q-25 55 -64 98t-63 99q-29 -4 -41 8t-21.5 25.5t-21.5 23.5t-39 4q-49 -6 -118.5 -8t-155.5 -8 q-16 -33 -39 -48.5t-44.5 -32t-37 -43t-15.5 -77.5q-55 0 -72.5 -44t-19.5 -104.5t2 -123t-8 -97.5q-4 -16 -7 -34.5t-2 -38t8 -37t26 -29.5q-27 -47 -23 -85t24.5 -72.5t52.5 -65.5t61.5 -61.5t52 -61.5t24.5 -64h90q0 -10 -4 -14l-7 -7t-6 -9t1 -19q14 -6 22.5 -3 t13.5 10.5t11 14.5t18 11q27 -25 63 -19.5t75 24t76.5 42t68.5 35.5q6 12 5 24.5t-1 24.5t5 21.5t24 15.5q4 -6 3 -15.5t9 -9.5q20 27 39 68t34 83t31.5 78t34.5 54q2 14 -3 19.5t-13 8.5t-14 8t-2 21q2 18 14 28.5t23.5 20t18.5 23.5t1 43q-18 12 -34.5 28.5t-22.5 41.5 q20 6 26 19t3 28.5t-8 33t-5 33.5zM465 1198v41h-41q0 -41 41 -41zM1288 1083q12 6 15.5 19.5t2.5 29t-3.5 33t2.5 33.5h-58q18 -49 20.5 -69.5t20.5 -45.5zM391 997q2 14 -1 22.5t-9 13.5t-10 11.5t0 18.5h-58q6 -31 21.5 -51.5t56.5 -14.5zM371 641q10 25 -4.5 54.5 t-20.5 60.5q-10 -4 -9 -17.5t6 -31t13.5 -36t14.5 -30.5zM547 215q6 -6 19.5 -10t37.5 2q0 25 -18.5 30t-30.5 11q0 -12 -4 -19.5t-4 -13.5zM1063 174q27 -6 28 6.5t-6.5 27.5t-15.5 25.5t2 -2.5q2 -12 0 -18t-5 -10t-5 -10.5t2 -18.5zM821 96q-4 8 -3 18.5t1 19.5t-3 16.5 t-11 7.5q2 -16 -8.5 -15.5t-25.5 8t-33.5 15.5t-30.5 8q2 -39 12 -51t25.5 -15.5t34.5 -2.5t42 -9zM829 141q2 -16 15.5 -27.5t28 -14.5t26.5 3.5t16 22.5q-25 18 -46.5 20t-39.5 -4z" />
<glyph unicode="P" d="M1372 1335q16 0 21.5 9.5t7.5 22.5t2 28.5t4 27.5q55 -23 86 -68.5t47 -103t20.5 -119t8.5 -116.5q-33 -61 -63.5 -121.5t-71.5 -108t-100.5 -75t-147.5 -25.5q-10 -14 -26.5 -19t-16.5 -24q-16 -4 -36 -3t-39 1t-36.5 -1t-27.5 -7q-23 33 -46.5 35t-51 -10.5t-58.5 -30 t-68 -19.5q-12 -25 -11 -59.5t3 -68.5t-3 -62.5t-32 -44.5q6 -33 34 -40t60 -22q4 -12 2 -20t-6 -13.5t-8 -11.5t-4 -14q23 -14 44.5 -14t40 5t33.5 12t28 7q-10 -41 -34 -68.5t-50 -46.5q0 -10 9 -14t17 -7t12.5 -8t-4.5 -14q45 0 72 -7t64 7q-18 -68 -64.5 -83t-102 -8 t-112.5 18.5t-100 -4.5q-6 -4 -8.5 -10.5t-2.5 -13.5t-3 -11t-13 -2q-16 -2 -21.5 3t-6.5 13t-1 16.5t-6 10.5q-20 -23 -44.5 -24t-50.5 0t-48.5 -5t-38.5 -39q-18 18 -53 21.5t-68 3.5q-23 14 -31 36.5t-12 49.5q-10 0 -13 -6.5t-3 -13.5v-15t-4 -14q-25 4 -42.5 24.5 t-41.5 24.5q0 33 11 54.5t27.5 37.5t34 30.5t31.5 34.5q78 8 149.5 19.5t118.5 52.5q8 131 8.5 257t-26.5 263q20 -4 29.5 3.5t14.5 20.5t8 28.5t9 25.5q-12 2 -22 17.5t-13.5 33t5 31.5t30.5 14q-16 55 -19 107.5t-11.5 97.5t-33 82t-83.5 62q-10 2 -10 -5.5v-16.5t-4 -15 t-19 2q-4 16 -3 25.5t5 14.5t9.5 8t11.5 9q0 10 -8.5 12t-19.5 0t-22.5 -4t-17.5 2q0 -14 7 -21t3 -24q-14 8 -21 9.5t-13.5 -1t-16.5 -5.5t-31 -3q-4 20 -10 38t-11 34t-4 35.5t11 42.5q23 0 27 -9.5t4 -21.5t1 -25.5t17 -23.5q0 27 19.5 42t27.5 48q-16 4 -25 7t-28 18 q6 12 16.5 13t22.5 -4t25.5 -9t23.5 0q-12 -25 -9 -34t15.5 -12.5t26.5 -6.5t25 -15q14 8 15 17.5t-2 19.5t-8 22.5t-5 24.5q27 10 52 6t52 -9t52.5 -7t51.5 10q8 -4 11.5 -12t5.5 -16.5t5 -15.5t13 -7q8 12 11.5 21.5t15.5 29.5q76 0 128 -5t94 -6t80 4t87 25 q10 -6 21.5 -15t24.5 -15t29.5 -8.5t39.5 4.5q8 -18 15 -30.5t1 -37.5q23 4 34 12.5t17 30.5q41 0 59.5 -20.5t36.5 -34.5q2 -12 -2 -17.5t-9 -9.5t-7 -10t4 -23q16 0 18.5 -4t-2 -10t-10.5 -14.5t-6 -16.5zM971 868q-6 -4 -9.5 4.5t-3.5 17.5t3.5 16t9.5 3h33 q6 -18 -0.5 -23t-6.5 -18q18 6 26.5 2t14.5 -12t13.5 -14t23.5 -2q8 0 11.5 7t5.5 14t4 14.5t12 7.5q12 -12 21.5 -11.5t17.5 5t17.5 4.5t21.5 -15q8 39 46 50.5t79 11.5q8 27 21.5 49t21.5 46t10 50.5t-10 63.5q47 -8 59 13.5t2 55.5q-20 -16 -33.5 -18t-23.5 7t-18.5 26.5 t-14.5 36.5q8 18 18.5 34.5t10.5 40.5q-12 -12 -42 -19t-56.5 -5t-42 16t0.5 43q-12 -6 -29.5 -7t-32.5 -3t-27.5 -7t-16.5 -18q0 33 -28.5 51.5t-67.5 22.5t-78 -6t-57 -33q-4 23 -19.5 30t-33 5t-35 -10.5t-27.5 -14.5q-12 -45 -16.5 -81.5t-5.5 -70.5t-5 -70t-16 -81 q29 0 43 -18q6 -20 2 -29.5t-12.5 -15.5t-16.5 -13.5t-8 -19.5q-4 -27 10.5 -50.5t34 -42t39.5 -28.5t31 -10q8 4 6 13t-5 17.5t-2 10.5t17 -6q12 4 18.5 2t9.5 -8.5t3 -14.5t4 -14q33 8 51.5 10t26.5 8zM496 1362q-14 -49 43 -49q18 33 4 48t-47 1zM1354 909q0 -53 53 -41 q-10 12 -1 21.5t9 19.5q-32 33 -61 0zM1196 772q37 0 43 -8q2 10 10 23.5t11.5 25.5t-2 20.5t-25.5 8.5q6 -18 2 -28.5t-12.5 -15.5t-16.5 -10.5t-10 -15.5zM928 772q-20 20 -32.5 18t-18.5 -34h198q0 12 8.5 20t-0.5 23q-18 6 -42.5 12t-47 6t-41 -9t-24.5 -36zM702 756 q33 2 53.5 3t36 2t29 3t29.5 8q-6 10 -29.5 18.5t-48 9.5t-46.5 -8t-24 -36zM1100 764q23 -14 40 -10t40 10q0 33 -22.5 34t-49.5 1q0 -14 -4 -21.5t-4 -13.5zM266 76q14 4 22.5 17t12.5 29.5t6 33t2 24.5q-2 -16 -9 -12t-15.5 12t-15.5 12.5t-9 -12.5q10 -25 3 -45t3 -59z M496 166q0 -23 12 -33t20 -29q33 6 63 20.5t50 22.5q-12 0 -32.5 -1t-41 0t-40 5.5t-31.5 14.5zM657 123h80q2 18 -12 30.5t-30.5 14.5t-30 -8t-7.5 -37z" />
<glyph unicode="Q" d="M731 549q0 -25 13.5 -33t23.5 -12q-6 16 -20.5 28.5t-24.5 22.5q8 27 33.5 23.5t53.5 -13.5t53.5 -15t35.5 19q8 -23 41 -53.5t72 -47.5t71.5 -8t40.5 64h56q6 51 16 123t14 145.5t-6 143.5t-47 121q0 23 11.5 34t11.5 33q-12 0 -10.5 -8t-6.5 -14q-2 23 -12 33t-22.5 19 t-23.5 23.5t-18 47.5q-10 10 -24 16t-29.5 12.5t-28 16.5t-14.5 30q10 0 19.5 2.5t9.5 12.5q8 20 -1 24t-23.5 5.5t-27 4.5t-7.5 19q-12 -23 -37 -21.5t-54 1.5q0 23 7.5 37t-7.5 30q-12 -18 -28.5 -17t-37 7t-45 12t-52.5 -2q-16 -31 -52 -53q-12 0 -17 6t-5 25 q-8 -14 -26.5 -22.5t-37 -21t-30 -34t-4.5 -62.5q-55 8 -78 -14t-35 -55t-26.5 -65t-51.5 -40q-14 -10 -22.5 -29.5t-16.5 -38t-21.5 -31.5t-37.5 -13q-6 39 3 81t29.5 78.5t50 62t66.5 36.5q2 10 -6 11t-18.5 0t-15.5 1t3 16q0 23 4.5 24t10.5 -5t12 -10.5t10 10.5 q6 10 2 15t-10 9t-12 9.5t-2 17.5q27 6 47 30.5t38.5 49t37 38t39.5 -4.5q16 18 35.5 28.5t31.5 38.5q92 27 204 16.5t210 -52.5t164.5 -115.5t66.5 -171.5q20 -4 28.5 -18.5t14.5 -31t14.5 -30t28.5 -13.5q2 -12 -2 -17t-10 -9t-12 -9t-6 -16q33 -43 50 -117.5t14 -160.5 t-24.5 -172t-64.5 -152q-2 -14 2 -21t10 -13.5t10.5 -12.5t2.5 -20q-20 -23 -40 -47.5t-34.5 -53t-22.5 -63.5t-4 -80q-16 0 -33.5 -1t-11.5 21q-33 -25 -46 -72.5t-6 -96t36.5 -84t83.5 -35.5q16 66 52 114.5t71 100.5q8 0 10 -5.5t4 -11.5t4 -13t8 -9q8 12 14.5 15t10.5 3 h9t15 6q0 16 -8 24.5t-18.5 15.5t-17.5 17.5t-5 30.5q18 0 24.5 7.5t24.5 1.5q-4 -14 1.5 -23.5t11.5 -17t7 -15.5t-7 -18q20 2 31.5 -6.5t18.5 -20.5t14 -24.5t22 -18.5q-10 -49 -16.5 -93t-16.5 -86t-25.5 -83t-40.5 -80q-47 12 -85 -16.5t-42 -81.5q-41 29 -90 45 t-97 31.5t-93 37t-78 60.5q0 37 -5 79t-18.5 80t-36 66.5t-57.5 40.5q-12 -6 -28.5 -12t-35 -8t-34.5 2t-25 18q-10 0 -8 -9t-4 -22q-14 4 -20.5 6.5t-12.5 3.5t-14 3t-29 4q0 18 -6 28.5t-2 32.5q-43 -10 -69.5 6.5t-48 38t-47 37t-64.5 6.5q0 35 -10.5 57.5t-23.5 42 t-25.5 41t-14.5 52.5q0 12 -10 9t-21 -3q-18 55 -25 99t-14.5 83t-18.5 76t-34 78q35 8 42 32.5t9 54.5t7.5 56.5t33.5 38.5q14 -4 19.5 -13t9.5 -21.5t9 -22.5t18 -12q-18 -18 -16.5 -36t11 -35.5t18.5 -39t7 -49.5q10 0 33.5 -2t42.5 -13q2 -12 0 -18t-5 -12t-5 -12.5 t2 -18.5q-4 -6 -12.5 -7t-17.5 -1t-16.5 -3t-7.5 -12q29 -12 53.5 -26t30.5 -51q33 0 41.5 27.5t20.5 49.5q12 0 27.5 -3t31 -3t26.5 9.5t13 33.5q27 6 41 2t26.5 -10t25.5 -11t36 -1zM578 342q-4 -39 2 -66.5t6 -62.5q57 0 80.5 -21.5t40 -46t39 -46t75.5 -21.5 q-2 18 -9 27.5t-13 17.5t-7 19.5t7 33.5q23 10 45 18.5t45 18.5q0 14 3 24.5t5 19.5t3 20.5t-1 27.5q-20 2 -29.5 18.5t-15.5 37l-12 41t-21 32.5q-51 8 -81.5 -2t-55.5 -27.5t-48 -36t-58 -26.5zM889 98q-2 12 1 17.5t8 9.5t10 7t5 11q-12 14 -23 10.5t-16.5 -15t-3 -25 t18.5 -15.5zM1059 -258q4 16 16 30.5t12 39.5q-14 -6 -20 -7.5t-10 3t-9.5 11.5t-13.5 15v-56.5t25 -35.5zM1272 -213q-12 -23 -22.5 -42t-14.5 -48q18 14 35.5 20.5t30 15.5t20.5 24.5t12 45.5q-12 2 -18 -1t-12.5 -7t-12.5 -8t-18 0zM1112 -303q14 8 19.5 12t10.5 3t12 -5 t26 -10q-4 33 -23.5 50t-32.5 40q-2 -12 -8 -22.5t-11 -20.5t-5 -21.5t12 -25.5z" />
<glyph unicode="R" d="M1255 55q18 -18 16.5 -30.5t-15 -18.5t-36 -6t-46.5 6q2 29 -6.5 45.5t-25 24.5t-38 12t-41.5 8q-23 66 -17.5 144.5t7.5 152.5t-15.5 130.5t-85.5 76.5q2 14 4 19.5t2 9.5t-2 9t-4 17q-20 6 -40.5 16.5t-41 19.5t-43 15.5t-49.5 4.5q-10 -2 -13 -12.5t-6 -21.5 t-8.5 -21.5t-17.5 -12.5q-14 0 -21 6t-13.5 15.5t-10.5 18.5t-12 13q-31 -33 -41 -81t-8 -101t11 -108.5t17 -100.5q23 -6 55.5 -20.5t49.5 -51.5q35 -4 53 9.5t35 40.5q16 -20 25.5 -43t9.5 -60q33 -35 32.5 -60.5t-17.5 -46t-43 -37t-40 -30.5q-70 -6 -133.5 -4t-124.5 4 t-123.5 -1t-130.5 -17q-20 20 -35.5 31.5t-31 17.5t-32 10t-38.5 8q-4 18 -1 28.5t7 19t8 16.5t4 24q14 -16 26.5 -16t20 9t9.5 23.5t-7 26.5q94 23 143.5 81.5t72.5 148.5q-8 25 -16.5 49t-9.5 47t7 41t31 35q-23 29 -26 57.5t-1 58t0 61.5t-22 66q6 6 15 11.5t18.5 9.5 t16.5 12t7 21q6 20 0 30.5t-15.5 16.5t-18.5 14t-9 27q27 6 33 21.5t2 35t-11.5 42t-7.5 40.5q6 -10 8.5 -11t4.5 2t4 8t10 7q-8 63 -28.5 120.5t-54.5 99.5t-81 67t-106 25q12 8 14 16t1 17.5t-1 20.5t8 23q25 -6 36 4.5t32 10.5q0 -23 11 -30t38 -7q8 0 9 6t-1 15.5 t-3 18.5t1 15q37 0 83 3t92 2t90 -9t79 -29q10 10 29.5 16.5t39 6.5t36 -5t22.5 -18q10 4 8 13.5t-2 19.5q14 -12 32.5 -13t36 -4t30 -12.5t18.5 -37.5q20 18 50 26t59.5 6t53 -11t32.5 -28q45 18 92 4t80.5 -50t50 -88t4.5 -109q0 -10 15.5 -9.5t25.5 -5.5q14 -29 8 -52 t-14.5 -44.5t-8.5 -41t29 -40.5q-2 -23 -18.5 -35t-32.5 -24.5t-26.5 -30.5t-0.5 -55q-31 6 -42 -7.5t-16 -36t-8 -49t-16 -47.5q-10 -2 -14 1.5t-8 8.5t-9 9t-16 4q-31 -35 -29.5 -77t21 -84t50 -80t55.5 -64q0 -20 -11.5 -29.5t-15.5 -23.5q10 -33 29.5 -51.5t19.5 -53.5 q25 4 36 -5t32 -9q6 -12 5 -19.5t-2 -11.5t-2 -9t5 -18q29 6 46 1t30.5 -14t28 -18t34.5 -16q-6 -63 -19.5 -101t-2.5 -79q-35 20 -71 20.5t-70 -3t-64.5 -0.5t-57.5 32zM961 1417q-23 -8 -43 -14q-16 -4 -34 -8t-28 0q-27 0 -49.5 20.5t-46.5 20.5q6 0 -10.5 -5.5t-37 -9.5 t-33.5 -7t-3 3q-16 -10 -30.5 -37.5t-25 -61.5t-14.5 -69t0 -59h-35q-6 -16 0.5 -19.5t15.5 -3.5t15 -2t4 -12q-16 -35 -12 -75t19.5 -82t38 -79.5t44.5 -66.5q35 6 56.5 4t48.5 -18q16 23 16 51t4 33q23 -8 40.5 -21.5t32.5 -27t30.5 -24.5t36.5 -16q14 16 28.5 33t34.5 29 t49 19.5t74 7.5q4 23 18.5 38t30.5 29t32.5 28.5t26.5 35.5q-20 0 -33.5 7t-13.5 27q10 20 31 30.5t41 21t34.5 26t12.5 45.5q-23 2 -43 3t-38.5 3.5t-31 8.5t-14.5 22q-4 14 -3 24.5t4 18.5t6 16.5t1 22.5q-47 0 -87 13.5t-44 54.5q-43 -4 -69.5 1t-46.5 21zM688 795 q10 -10 22.5 -14.5t32.5 1.5q0 14 8.5 23.5t8.5 25.5q-33 0 -49.5 -10t-22.5 -26zM254 96q14 -4 18 2t4 14.5t1.5 15.5t11.5 5q6 -12 14 -11t15.5 8t13.5 17.5t6 18.5h-57q-10 -16 -20.5 -26.5t-6.5 -43.5zM379 125q6 6 14 4t17.5 -4t17.5 0t14 18q-12 0 -21 3.5t-9 19.5 h-54q0 -20 2.5 -30.5t18.5 -10.5zM1278 133q14 4 19.5 -3t7.5 -16.5t5 -17.5t17 -6q-4 12 0 25.5t5 24t-2 17.5t-19 9q2 -10 -2 -14.5t-11.5 -5.5t-13.5 -4t-6 -9zM1395 133q31 0 40 -6t33 6q0 25 -8 30t-20.5 0t-24.5 -15.5t-20 -14.5z" />
<glyph unicode="S" d="M1362 1174q-16 -16 -28.5 -39t-23 -45.5t-23.5 -42t-34 -29.5q-45 31 -73.5 76t-53 95t-50 99t-64.5 88q-53 -6 -78 12.5t-51 32.5q-29 -12 -48.5 -13t-38 -1t-37 -5t-42.5 -26q-23 8 -44.5 13.5t-29.5 31.5q-23 0 -28 -15t-19 -30q-14 8 -29.5 17.5t-44.5 9.5 q4 -20 -6 -47t-23.5 -57.5t-24.5 -65.5t-11 -68q-6 -104 65.5 -164.5t202.5 -66.5q-4 -18 -15.5 -26.5t-27.5 -12.5t-34.5 -7t-33.5 -9q0 -14 13.5 -19.5t7.5 -25.5q55 -4 80.5 12t44 37.5t41 40t71.5 18.5q-4 -16 1.5 -26.5t11.5 -16.5l13 -13t11 -18q20 4 44 3t46.5 2.5 t42 13.5t33.5 37q8 -4 12.5 -9.5t10.5 -10.5t13 -8t22 1q0 -14 1 -27.5t7 -27.5q41 8 71.5 17t59.5 -17q0 -20 2 -50t-12 -42q4 -6 13 -8.5t18.5 -3.5t16.5 -6t7 -19q14 0 30.5 2t24.5 16q-6 -25 9.5 -50.5t30.5 -55t19.5 -61.5t-22.5 -66q8 -27 28.5 -41.5t26.5 -40.5 q-31 -31 -39 -76t-17 -86t-32.5 -71.5t-85.5 -35.5q0 -25 -6 -41t-12 -29.5t-10.5 -26.5t0.5 -32q-41 -14 -60.5 -0.5t-42.5 21.5q-20 -16 -28.5 -35.5t-16.5 -48.5q-23 14 -42 28.5t-34 34.5q-12 -14 -22 -21t-31 -15q-78 14 -141.5 25t-122.5 26.5t-118.5 36t-125.5 51.5 q-29 -6 -39 -29.5t-18 -52.5q-20 0 -33.5 6t-19.5 12q-14 0 -13.5 -15t-5.5 -24q-20 -6 -37.5 9.5t-46.5 29.5q0 10 6 19.5t8.5 16.5t-3 10t-29.5 -1q0 35 10 48.5t16 33.5q-20 10 -25 29.5t-20 28.5q31 20 44.5 51t18.5 65.5t7 70.5t10 66.5t27.5 54t58.5 32.5 q31 -37 50.5 -79t41 -79t52 -66.5t86.5 -44.5q0 -20 1 -34.5t11 -28.5q47 0 82 -3t63 -50q41 -12 75 -4t62.5 17t54 12t50.5 -17q27 14 31 46t4 73q43 6 51 -13.5t16 -42.5q16 14 27.5 37t22 47.5t21.5 47t28 34.5q-27 8 -37 38t-17 65q29 0 38.5 11t15.5 25q-31 27 -77 62 t-99.5 57.5t-110.5 27.5t-109 -26q-55 68 -122.5 77t-145.5 -5q-53 29 -101 67.5t-85 88t-59.5 110t-22.5 133.5q4 31 16 56.5t26.5 49t26 49.5t15.5 56q20 4 33.5 13.5t24.5 19.5t23.5 19.5t30.5 13.5q12 8 10.5 23.5t-1.5 21.5q45 6 81.5 20.5t73.5 26.5t75 20.5t83 6.5 q125 -14 247 -33t234 -41q0 -35 9.5 -58.5t17.5 -52.5q-16 -14 -17.5 -39.5t8 -54.5t25 -58.5t29.5 -49.5zM393 1266q0 8 2 19t3 21.5t-1 17.5t-12 7q2 -10 -3 -20.5t-10 -19.5t-2 -16t23 -9zM457 942q12 0 19 10.5t9 23.5t0 25.5t-8 16.5q4 -14 -1 -21.5t-12 -13.5 t-10 -14.5t3 -26.5zM1233 231q2 4 10 13.5t13.5 19.5t6.5 19.5t-10 13.5q-4 -6 -12 -15.5t-13 -17.5t-5 -17.5t10 -15.5zM578 197q6 -25 30.5 -48.5t55 -37t60.5 -11.5t46 31q-12 6 -28.5 21.5t-34 28t-34 14.5t-30.5 -19q-16 23 -38.5 35t-63.5 12q0 -20 11.5 -23t25.5 -3z M1133 147q16 -4 26 5.5t14.5 20.5t0 21.5t-14.5 10.5q-14 -6 -23 -17.5t-3 -40.5zM1038 84q-4 25 13.5 29t37 5t33 9t2.5 39q-43 -6 -68.5 -18.5t-51.5 -26.5q-4 10 -17.5 14t-30 3t-30 -10t-17.5 -26q0 16 -13 21.5t-31.5 5.5t-39 -1t-34.5 3q10 -43 32.5 -51t50 -7t57.5 3 t54 -19q6 14 6 23.5t-1 15.5t1 12.5t13 12.5q6 -14 10 -25.5t24 -11.5z" />
<glyph unicode="T" d="M1341 786q-6 2 -7 11.5t-2 20.5t-4 21.5t-11 16.5q-10 8 -12 -2t-2 -20q-18 47 -24.5 92t-6.5 104q-23 -6 -41.5 -17.5t-28.5 -21.5q-25 10 -19.5 30.5t19.5 39.5q23 0 37 -9.5t33 9.5q-23 25 -36 54.5t-44 39.5q12 25 34.5 32t28.5 23q-4 20 -17 29.5t-28.5 16t-28 16.5 t-12.5 33q-31 6 -48 -4.5t-48 -10.5q-6 -16 2 -22t16.5 -10.5t13.5 -6.5t-7 -8q0 -18 -7.5 -18t-14.5 9t-11 24.5t2 31.5q-41 0 -63.5 -17.5t-47.5 -29.5q0 -14 7.5 -23.5t14.5 -18.5t12 -22.5t-1 -37.5q-31 0 -44 -10.5t-19 -20.5q-4 -20 8 -27.5t28.5 -11.5t31 -10 t18.5 -25q-6 -12 -13.5 -29.5t-16.5 -33t-21.5 -23.5t-26.5 2l22.5 -40.5t22.5 -45.5q0 -12 -6 -19t-12.5 -14.5t-11.5 -16.5t-1 -23q-4 -14 3 -20.5t16.5 -10.5t16.5 -10.5t5 -20.5q0 -25 -19.5 -33t-35.5 -14q8 -61 11 -116.5t5 -107.5t8.5 -105.5t20.5 -112.5 q4 -8 24.5 -14.5t42 -6.5t38 8.5t14.5 28.5q6 -20 21.5 -32.5t36 -20.5t44 -14.5t47.5 -12.5q0 -16 -6 -23.5t-24 -7.5q23 31 12.5 31t-27.5 -31q4 -29 18.5 -42t51.5 -13q0 -41 -15.5 -66.5t-33.5 -50.5q-16 6 -27.5 17.5t-11.5 30.5q-59 -18 -123 -14.5t-126.5 6.5 t-117.5 -3t-96 -45q-25 6 -41 25.5t-39 30.5q-23 -25 -60.5 -18t-72.5 18q-10 -10 -14.5 -20.5t-10.5 -19t-16 -11.5t-31 3q6 35 14.5 64t8.5 70h57q0 18 -9 21t-20.5 3t-21.5 -1t-12 9q6 20 22.5 29.5t35.5 17t36.5 16.5t23.5 32h86q10 0 15.5 10t-0.5 26h80 q29 55 31.5 120t-7.5 143q10 10 18.5 22t20.5 23q0 25 -18.5 34t-36.5 15q20 31 18 62.5t-8 62t-6 57.5t27 45q0 37 -4.5 78t-7.5 82t-2 76.5t14 62.5q0 18 -6.5 30.5t-12.5 23t-11 23.5t-1 34q-74 33 -129.5 21.5t-88 -51.5t-40.5 -101.5t14 -128.5q-12 0 -17 -7.5 t-8.5 -14.5t-10.5 -13t-21 -4q-6 -25 -1 -41.5t12 -28.5t14.5 -22.5t7.5 -18.5q-16 -35 -52.5 -61.5t-66.5 -55.5q-49 -6 -59.5 18.5t-8.5 59.5t3 72t-29 53q4 12 12 17.5t16 8.5t15.5 7t11.5 16q-12 55 -11 102.5t6 91.5t10 91t3 102q33 12 54.5 38t43 46.5t47 25.5 t66.5 -26q-2 -12 -5 -28.5t0 -30.5t13 -22.5t33 -2.5q8 12 2 19.5t-14.5 14.5t-14.5 18.5t4 31.5q41 6 94.5 2t109.5 -8t109.5 -1t94.5 24q12 2 18.5 -2t11.5 -9.5t12 -8.5t21 3q0 -35 -7 -51t16 -33q102 0 102 70q29 -6 45 10.5t35 20.5q25 -12 51.5 -20.5t50 -18.5 t43 -24.5t27.5 -37.5q-6 -72 1 -149.5t13 -158.5t4 -165t-26 -166q-20 8 -39 10.5t-33 7.5t-24.5 18t-14.5 42q23 0 27.5 -15.5t27.5 -15.5zM752 123q14 0 33.5 8t32.5 18.5t15.5 21.5t-18.5 17q2 -16 -7 -21t-21.5 -8t-23.5 -10.5t-11 -25.5zM522 156q-2 -14 1 -22.5 t8.5 -15.5t10.5 -14.5t5 -19.5q18 6 39.5 9t40.5 16q2 27 -8.5 43t-27 22t-36 1t-33.5 -19zM666 147q-12 0 -10.5 -14t1.5 -24q10 0 14.5 -9.5t16.5 -15.5q0 14 9.5 13t15.5 12q-12 2 -10 6t8 8t11 12t-1 21q-16 -6 -25.5 -4t-16.5 5t-11 4t-11 -5q9 -1 9 -9zM926 109 q27 -14 46 -16.5t36.5 -1.5t33 1t31.5 -8q0 18 9.5 28.5t15.5 28.5q-12 0 -17.5 6.5t-11.5 12.5t-13 10t-22 2q0 -35 -22 -49q-4 20 -11.5 25.5t-17.5 5.5t-19.5 2t-15.5 16q2 -14 -2 -21.5t-10 -12.5t-10 -11t0 -18z" />
<glyph unicode="U" d="M614 1505q16 -8 27.5 -10t40.5 -8q6 0 7 15.5t1 31.5q41 0 67.5 -33t33.5 -90q-70 -29 -122.5 -63.5t-109.5 -83.5q16 -29 21.5 -67t25.5 -54q0 -14 -6 -7t-20 7q14 -41 -1.5 -56.5l-35.5 -35.5q-4 -14 1 -19.5t14 -6.5t17.5 -3t12.5 -8q-4 -70 -11.5 -134.5t-10.5 -127 t4.5 -124t35.5 -124.5q0 -10 -4 -15.5t-9 -8.5t-9 -8t-4 -15q20 -104 88.5 -166t160.5 -103q41 8 87.5 38t89.5 65q14 -8 14 -22.5t12 -14.5q25 20 36 47t21.5 54.5t22.5 54t41 47.5q-6 29 -5 49t2 36.5t-3 31t-23 32.5q20 27 20.5 56.5t-3.5 57.5t-3 53.5t25 45.5 q0 29 -9 57.5t-9 63.5q6 0 9 5t6 10.5t9.5 7.5t20.5 -5q-4 20 -11.5 37t-13.5 34.5t-11 37.5t-1 49q6 6 14.5 9t15.5 5.5t12 7.5t5 15q-14 8 -19 22.5t-28 14.5q0 29 10.5 50.5t18.5 41.5q-29 16 -48.5 44t-25.5 69q-18 2 -28.5 3t-19.5 0t-21.5 -2t-32.5 -1q14 27 6 38 t-18.5 18t-14.5 19.5t16 42.5q23 0 25 -16t-4 -39q12 29 39.5 46.5t42.5 45.5q27 0 43 -4t29.5 -8t27.5 -6t39 2q-4 -18 -2 -29.5t7 -20.5t9 -19.5t4 -22.5q25 -12 41.5 -8t29.5 10t24.5 10t25.5 -6q6 10 6 19.5t-2 19.5t-2 21.5t6 25.5h58q-4 -25 4 -36t22.5 -16t29.5 -9.5 t26 -14.5q-4 -29 -17.5 -45t-34 -27.5t-44 -19.5t-44.5 -18q-27 -41 -47 -86t-26 -109q6 -8 18 -9t21 -1q-29 -41 -25 -93.5t14.5 -106.5t14.5 -107.5t-25 -98.5q25 -39 26 -86t-4 -94t-8.5 -90t15.5 -74q-23 -86 -54.5 -156.5t-66.5 -140.5q-20 -14 -48 -20t-52.5 -13.5 t-41 -19.5t-16.5 -39q-55 6 -90 -3t-49 -44q-47 8 -85 25.5t-44 66.5q-14 4 -19.5 -2t-5.5 -15t2.5 -20.5t2.5 -17.5q-14 0 -24.5 5t-22 11t-23.5 10.5t-31 2.5q-14 0 -11 -16.5t3 -31.5q-49 35 -102.5 79t-93.5 96.5t-58 113t2 129.5q-18 31 -27.5 71t-10.5 81t8.5 79 t29.5 66q-8 20 -23.5 36.5t-23.5 37.5q16 8 21.5 22.5t25.5 14.5q-10 31 -6 69.5t7 75.5t0 65.5t-28 39.5v65q14 0 22.5 5t16 11.5t17.5 10.5t26 0q-6 16 -25.5 18t-47.5 2q-6 37 2 64.5t19 49t18.5 40t-2.5 39.5q-6 -4 -17.5 -4t-21 -3t-15.5 -9.5t-2 -20.5q-6 14 -17 22.5 t-23.5 15.5t-24 15t-17.5 23q-12 0 -18 -6.5t-13.5 -12.5t-17.5 -10t-26 0q0 14 -5.5 22.5t-11.5 15.5t-10 17.5t0 26.5q6 8 18.5 9t26.5 1q0 14 -5 23.5t-8 17.5t-2 16.5t15 18.5q18 0 21.5 -2t1 -7t-7.5 -12.5t-5 -17.5q18 18 41 24.5t48.5 8.5t50 2t45.5 4 q8 -16 12 -31.5t24 -15.5q25 2 49.5 20.5t44 30.5t29.5 9t6 -42zM485 1200q35 2 43.5 19.5t2 40t-20.5 47t-25 41.5q4 -20 -1 -40t-9 -38.5t-4 -36t14 -33.5zM1200 217q8 20 18.5 29.5t18.5 17.5q-20 12 -34.5 9t-20.5 -9q10 2 10 -6t-1 -18.5t-1 -18.5t10 -4z" />
<glyph unicode="V" d="M385 1563q12 -14 44 -17.5t71 -2.5t81 2t76 -5q14 0 31 -4t30 -5t22.5 5t9.5 27q29 -29 41 -71t28 -89q-63 -4 -106 -48t-84 -95q2 -14 11 -21.5t20.5 -13.5t20.5 -12.5t15 -20.5q-16 -125 24 -227.5t114 -159.5q2 -16 -5.5 -25.5t-16.5 -17.5t-15 -18.5t0 -28.5 q29 -6 39 -24.5t28 -28.5q14 6 16.5 15t0.5 19.5t-2 21.5t8 19q2 2 11 7.5t18.5 7.5t17.5 -1t12 -14q35 70 52.5 127.5t17.5 130.5q6 12 17 17.5t23.5 10.5t21.5 11t14 21q2 18 -6.5 23t-20.5 7t-21.5 6.5t-7.5 18.5q43 4 51.5 26.5t5.5 50t-4.5 55.5t23.5 42 q-10 27 -27.5 49.5t-68.5 18.5q2 16 -5 24t-15.5 13.5t-15.5 12.5t-3 23q29 6 53.5 15.5t30.5 32.5q6 20 -4 23t-21.5 2t-19.5 1t0 19q53 16 113.5 22t118 -3t107.5 -35.5t85 -76.5q14 6 21 16.5t14.5 19.5t17.5 13.5t29 -1.5q6 -29 -1.5 -48.5t-13.5 -42.5q-14 16 -24 15.5 t-17.5 -11t-13.5 -24.5t-12 -27q-23 -6 -29 10.5t-18 28.5q-10 0 -13.5 -11t-6.5 -23.5t-9 -21.5t-23 -5q-4 -14 0.5 -22.5t8.5 -15.5t9 -15.5t5 -22.5q-49 -16 -75.5 -58t-40 -94.5t-15.5 -106.5t2 -97q-6 -23 -26.5 -36.5t-26.5 -39.5q2 -14 11 -25.5t15 -21.5t7.5 -22.5 t-11.5 -28.5q-2 23 -13 14.5t-23.5 -31t-25 -51.5t-14.5 -45q-12 -35 0.5 -63.5t8.5 -51.5q-6 -23 -25.5 -39t-19.5 -45q0 -10 2 -26.5t1 -33t-6.5 -30.5t-19.5 -22q-4 -14 -2 -23.5t6 -16.5t7 -15.5t3 -20.5q-51 -41 -81.5 -111.5t-24.5 -138.5q-61 6 -118.5 20.5 t-117.5 26.5q14 47 2 86t-31.5 75t-33.5 72.5t-4 81.5q12 0 11 -10l-2 -20t1 -16.5t21 3.5q6 16 8 40t-3 47.5t-18.5 43t-40.5 27.5q4 57 -11 88t-50 47q20 39 13 75t-21.5 73t-25.5 80t3 100q-4 16 -15.5 19.5t-27.5 3.5q4 29 7 59.5t16 52.5q-12 10 -34 12.5t-28 18.5 q-6 35 5.5 50t17.5 34q-16 29 -33.5 52.5t-34.5 45.5q-4 14 0 20.5t10.5 10.5t10.5 9t2 20q-4 23 -20.5 33t-33.5 20q-12 0 -14 -14.5t-2 -30.5h-51q0 35 -5 54t-12 36q-23 12 -32 11t-16 -7t-15 -14.5t-27 -10.5q6 45 16.5 72t22.5 55q29 -6 40 -13t11 -23q12 8 17.5 19 t11.5 24.5t14.5 26t24.5 20.5zM1296 1419q4 16 15.5 23.5t5.5 30.5h-68q-4 -29 13.5 -36.5t33.5 -17.5zM539 1313q-6 14 -4 20t8 8t11 5.5t5 11.5h-43q-12 -35 23 -45zM1108 1040q12 0 19.5 7.5t14.5 13.5t17 8t31 -6q10 25 18.5 57.5t8.5 62t-13.5 53.5t-44.5 32 q-16 -16 -5 -40t28 -36q-16 -16 -28.5 -35.5t-41.5 -26.5q18 -35 18.5 -48t-22.5 -42zM651 752q12 -2 17.5 2t11.5 10t14 9t27 1q0 29 -22.5 40t-41.5 28q-2 -14 -6 -24.5t-7 -20t-2 -20.5t9 -25zM1016 594q-10 0 -13.5 8t-9.5 14q0 -29 3 -54t20 -36q14 55 27.5 126 t48.5 122q-14 -6 -19.5 -1t-8.5 13.5t-8 13.5t-20 -1q-10 -51 -23 -107.5t3 -97.5zM909 283q8 2 12.5 -2.5t7.5 -10.5l6 -12t11 -6q-6 16 -4 27.5t7 20.5t11.5 19.5t8.5 24.5q-18 2 -27.5 -3t-13.5 -15.5t-7.5 -22.5t-11.5 -20z" />
<glyph unicode="W" d="M903 926q23 -16 12.5 -38t-32 -33t-44 -4t-22.5 48q12 -4 26.5 -6t27 -1t21.5 9.5t11 24.5zM428 915q12 0 18.5 -10t8.5 -22.5t-1 -23.5t-10 -13q-16 0 -20 7t-3 17.5t4 22.5t3 22zM1149 846q6 -12 13 -29.5t-5 -32.5q-20 0 -26.5 6.5t-4.5 15.5t9.5 19.5t13.5 20.5z M496 645q-27 -4 -36 5t-16 22q0 12 10.5 16t21.5 0t18.5 -15.5t1.5 -27.5zM418 1360q18 -20 18 -40t-9 -40t-23.5 -39.5t-20.5 -38.5q-27 31 -54.5 66t-52 72.5t-43 75.5t-24.5 73q37 10 57.5 14t40 7t42 5.5t61.5 8.5q-4 -16 2 -21.5t12 -7.5t6 -6t-12 -16q18 -4 28.5 0 t14.5 12t8 18t10 21q27 -12 45.5 -34t22.5 -63q-16 0 -28.5 -9t-26 -21.5t-30.5 -23.5t-44 -13zM887 1489q0 -10 5 -11t11 3t10.5 12t-0.5 14q20 0 31.5 -8t38.5 -2q23 -35 35 -86q-29 -6 -33 -27.5t-2 -45t-2 -43t-33 -23.5q2 -16 11.5 -26.5t19.5 -19.5t21.5 -18.5 t17.5 -21.5q-4 -4 -9 -5t-11.5 -4t-10.5 -11.5t-4 -24.5q10 0 17.5 -13.5t15.5 -32t18 -35t27 -22.5q-6 -59 -4 -122.5t12 -127t25.5 -122t35.5 -107.5q27 16 22 31.5t-17.5 31t-19.5 33t15 35.5q20 0 39 4t15 -22q2 31 19.5 49t34.5 35.5t26.5 39t-2.5 58.5q-6 -4 -9.5 -9 t-7.5 -10.5t-12 -7.5t-23 2q-4 12 0 22.5t9.5 18t4.5 11.5t-14 8q8 10 20.5 14t25 9.5t23.5 15.5t17 33q2 18 -4 26t-14 14.5t-14.5 13.5t-1.5 23q2 14 15 21.5t26.5 11.5t24.5 11.5t11 23.5q-4 16 -12 26.5t-18.5 19.5t-19.5 20.5t-11 29.5q45 16 61.5 43t17.5 58.5 t-7.5 66.5t-10.5 68q23 16 39.5 19t29.5 3t28.5 1t33.5 12q8 -23 4 -41.5t-15 -34t-25.5 -29.5t-24.5 -27q8 -20 15.5 -32.5t27.5 -20.5q2 -23 -8 -33t-22.5 -19t-20.5 -23.5t-2 -45.5q16 -6 24.5 -19t28.5 -13q0 -8 -4 -15.5t-4 -13.5q-6 -25 -28.5 -30t-41.5 -13v-62 q18 -12 33.5 -24t11.5 -51h-71q4 -76 8 -157t0 -160t-21.5 -149.5t-56.5 -125.5q33 -27 30 -51.5t-14.5 -49t-17.5 -53t20 -65.5q-27 -39 -54.5 -71t-41.5 -85q-33 -4 -54.5 5t-36.5 25.5t-26.5 38t-21.5 44.5q-16 -6 -26.5 -4t-18.5 7t-15.5 12t-17.5 11q6 39 7 63.5 t1 57.5q-12 14 -22.5 25.5t-28.5 11.5q0 14 1 43t-1 59.5t-8 60.5t-19 46h-16t-18.5 -2t-12.5 -8t2 -19q-18 23 -27.5 46.5t3.5 49.5h59q10 4 13.5 14.5t5.5 22t5 20.5t13 13q-20 20 -50 25.5t-54 17.5q-6 16 -2 21.5t13 5.5t21.5 -2t18.5 2q-6 12 -9.5 29.5t-7.5 33 t-11 26.5t-23 15q-6 -6 -13.5 -12t-13.5 -6q20 -74 15 -153t-17 -161t-20.5 -168t4.5 -178q-33 -47 -77 -76.5t-90 -32.5t-89 25.5t-74 100.5q27 41 9.5 72.5t-42.5 58.5q12 53 12 95t-39 62q0 25 13.5 37.5t13.5 30.5q-14 16 -22.5 41t-8.5 50.5t7.5 48t23.5 34.5 q-27 31 -34 79t-6 101.5t7 103.5t6 83h95q14 -20 14 -54t-14 -59q2 -10 7 -9t12 5t14.5 7t17.5 -3q-2 -43 3 -73.5t10 -56.5t8 -48.5t-3 -48.5q16 2 25.5 12t18.5 22.5t20.5 21.5t32.5 13q2 18 -7.5 27.5t-21.5 16t-22.5 15.5t-10.5 29q16 6 22.5 3t11.5 -9t10 -11t18 -1 q0 33 13 59.5t46 55.5q-23 2 -27 10t-2 20.5t4 31t-8 40.5q20 20 38.5 31.5t39.5 38.5q-6 20 -12 31.5t-11.5 22.5t-8.5 23.5t-3 34.5q14 8 28.5 12.5t14.5 24.5q-6 27 -18.5 41.5t-34.5 26.5q0 14 6 21l12 14q-10 10 -21 24.5t-19.5 30.5t-11.5 33.5t7 34.5q23 0 57.5 14 t65.5 25.5t52.5 10.5t17.5 -34zM817 899q0 -41 22.5 -48t44 4t32 32.5t-12.5 38.5q-2 -16 -11 -24.5t-21.5 -9.5t-27 1t-26.5 6zM444 846q6 2 9.5 13t1.5 23.5t-8.5 22.5t-18.5 10q0 -10 -3 -22t-4 -22.5t3 -17.5t20 -7zM444 672q6 -12 15.5 -21.5t36.5 -5.5q6 16 -1.5 27.5 t-18.5 15.5t-21.5 0t-10.5 -16z" />
<glyph unicode="X" d="M1430 1397q-14 -23 -33 -35t-49 4q0 23 16 31t25 30q-16 -16 -23.5 -14t-12.5 8t-13.5 13.5t-22.5 3.5q-16 -12 -25.5 -27.5t-18.5 -30t-22.5 -24.5t-36.5 -10q0 -16 3.5 -34t25.5 -18q-10 -4 -26.5 -15t-26.5 -26.5t-10 -35t22 -37.5q-10 -16 -30.5 -25.5t-36 -20 t-19.5 -25.5t17 -42q-16 4 -24.5 2t-17 -6t-17.5 -7t-25 1q0 -31 -1 -59.5t-10 -45.5q-31 0 -46 -13t-25.5 -32.5t-18.5 -41t-24 -36.5q16 -29 26.5 -65.5t26.5 -67.5q8 0 11 6.5t7 12.5t11.5 8t21.5 -4q4 -25 4 -35t-2 -17.5t-5 -17.5t-7 -35q16 -16 30.5 -29.5t30.5 -19.5 q0 -49 11.5 -71.5t19.5 -53.5q8 -4 14 1t11.5 10.5t8.5 4.5t7 -16q4 -12 1 -15t-8 -2t-11.5 4t-10.5 3q8 -41 35 -64.5t57 -39.5q-10 -70 19 -89.5t84 -3.5q0 -23 15.5 -33t38 -12t47 0t42.5 2q25 -20 36 -49.5t-3 -70.5q-31 8 -47 -5.5t-16 -35.5q-78 -4 -148 -12.5 t-137.5 -10.5t-134 6t-136.5 37q6 23 2 35t-10 23.5t-11 23.5t-1 33q14 6 21.5 7t13.5 0t16 -4t29 -3q31 27 37 53.5t-1 56t-19.5 63.5t-16.5 73q-14 23 -32.5 15.5t-47.5 -7.5q-10 47 -7 68.5t27 45.5q-12 0 -21 -5t-17.5 -8t-13.5 -1t-9 14q-12 -16 -26.5 -34.5t-24.5 -39 t-9 -41t19 -40.5q-8 -8 -15 -11.5t-7 -19.5q-10 0 -15.5 5t-8.5 10.5t-6 10.5t-11 5q-16 0 -24.5 -6t-14.5 -15.5t-10.5 -17.5t-12.5 -12q0 -10 3 -17.5t7.5 -13.5t7.5 -15.5t3 -23.5q-29 6 -40.5 -5t-11.5 -28q23 -31 63 -45t71 -37q-14 -25 -4 -47t26 -45 q-8 -18 -27.5 -25.5t-41 -13.5t-40 -17t-26.5 -38q-18 31 -52 41t-71 12t-71.5 3t-53.5 18q-8 0 -10 -6.5t-4 -13.5t-4 -11t-11 0q-31 4 -59.5 18.5t-53 26.5t-48 16t-45.5 -10q0 14 6 23.5t14 16.5t14.5 14.5t6.5 19.5q25 -16 48 -23.5t64 0.5q10 6 16.5 15.5t16.5 15.5 q-8 12 -19.5 12t-23.5 -4t-25.5 -10t-25.5 -6q6 31 36.5 46t77.5 21q20 33 37 66t58 49q6 23 -4.5 36t-10.5 36q14 -6 22.5 -1t13.5 11t10.5 9t17.5 -7q-4 39 7 62.5t24.5 44t25.5 45t12 63.5q39 18 59.5 48t30 66t13.5 74.5t12 77.5q-8 41 -35.5 75t-64.5 81 q-20 39 -35.5 85t-32 85t-37 61.5t-51.5 14.5q12 27 6 49t-21.5 38.5t-37 28t-39.5 19.5q6 31 13 70t7 53q14 -4 16.5 -12.5t1.5 -18.5t0 -21.5t11 -19.5q39 -8 55.5 3.5t36.5 19.5q10 -16 1 -25.5t-9 -17.5q23 4 26 18t-3.5 30.5t-14.5 34t-8 27.5h72q-8 -18 -6 -34.5 t11 -25.5t21.5 -10t24.5 11q0 8 -11.5 13t-11.5 28q16 6 25.5 9t18 4t16.5 1t24 4q8 -20 18.5 -36.5t33.5 -30.5q0 14 6 21t47 -3q4 -23 -1 -39t-13.5 -28.5t-19.5 -22.5t-19 -23q-31 -8 -42.5 2.5t-19.5 18.5q-6 -4 -5 -13.5t0 -18.5t-10 -13t-36 4q14 -31 27.5 -63.5 t30 -62.5t39 -51.5t57.5 -27.5v-44t1 -25.5t4 -20.5t7 -24h61q0 12 10.5 23t23.5 17.5t29.5 7.5t28.5 -8q2 39 16.5 67t34 51.5t42 44t41.5 44.5q-8 18 -7.5 35t1.5 30t2.5 24.5t-7.5 23.5q-37 0 -67.5 9t-46.5 32q-12 18 2 31.5t30.5 21.5t24.5 15.5t-14 13.5q39 25 85 33 t99 8v-41q31 4 52.5 -4t39 -14.5t34.5 -5.5t40 24q12 4 16 -1t5 -13.5t0 -18.5t-1 -16q14 -4 20.5 0t10.5 10t9 9t22 -1q0 -31 -1 -46t1 -24.5t8.5 -14.5t22.5 -17zM997 418q8 -6 21.5 -7t30.5 -1q0 12 3 18t6 13.5t4 15.5t-3 24q-16 0 -24.5 1t-16.5 10q0 -25 -13.5 -37 t-7.5 -37zM588 367q-6 8 -4 22t3 26.5t-3 20.5t-19 4q-8 -8 -10 -22.5t1 -26.5t11.5 -20t20.5 -4zM573 141q35 -51 105 -51q8 12 14 25.5t6 24t-8 17.5t-33 7q-4 -25 -10 -31t-15 -4t-24 7t-35 5z" />
<glyph unicode="Y" d="M776 1268q8 -12 11.5 -30.5t1 -36t-10.5 -31t-24 -13.5q8 -4 18 -8t16.5 -9t5.5 -11.5t-18 -14.5q4 -10 18.5 -11t24.5 -1q10 27 23.5 43t28 29.5t27.5 31t24 47.5q-16 8 -19.5 2t-4.5 -14t-3 -15t-16 -1q-29 10 -42.5 34.5t-17.5 59.5q23 10 40.5 20.5t39.5 16.5 q2 18 0 30.5t-7 22.5t-9 20.5t-4 26.5q23 0 50 10.5t66 20.5q4 16 -4 21t-4 22q16 -8 33.5 -13.5t33 -11.5t27 -17t17.5 -32q-16 0 -24.5 -6t-18.5 -6q16 -35 37.5 -58.5t25.5 -66.5q20 14 38 20.5t31 16.5t22.5 27.5t11.5 52.5q14 -16 32.5 -17.5t31.5 9t18.5 31t-9.5 44.5 q12 -8 17.5 -3t5.5 9q18 -2 20 -21.5t2 -43t5.5 -42t29.5 -18.5q12 35 28.5 57.5t16.5 45.5q18 -18 64 -8q-4 -10 -7 -16.5t7 -6.5q-16 -27 -28.5 -48.5t-29.5 -43.5q6 -14 20.5 -18.5t29 -7.5t23.5 -11t7 -31q-27 14 -36 9t-12 -12t-4 -12t-13 9q-10 10 -23.5 6t-42.5 0 q-6 23 3 30t26 7q-10 18 -30.5 20.5t-40 -6t-37 -22.5t-21.5 -29q0 -16 9 -26t3 -39q-23 23 -46 21.5t-40.5 -16.5t-24 -42t8.5 -57q-33 8 -53.5 -9.5t-33 -49t-17.5 -70.5t-5 -76q-43 -14 -73.5 -56t-48 -94.5t-23.5 -108t-2 -93.5q6 -27 -2 -38.5t-19 -27.5 q14 -16 17.5 -38.5t2.5 -47.5t-2 -48.5t3 -39.5q14 -16 31.5 -19.5t34 -5.5t27.5 -7t11 -27q23 2 37 5t28.5 3t29 -1t36.5 -7q18 23 21.5 41t2.5 38.5t-1 43t14 53.5q16 -4 32.5 -15.5t53.5 -7.5q-12 -33 -15 -58.5t1 -50t10 -51t12 -59.5q10 -2 36 7t50.5 12.5t43 -8 t16.5 -54.5q33 -10 39 8.5t14 34.5q10 -10 23.5 -18.5t26.5 -17.5t23.5 -20.5t12.5 -29.5q-4 0 -5 -9t-1 -14q-45 0 -80 1.5t-47 33.5q-47 -12 -91 -30.5t-81 -41t-64.5 -51t-38.5 -65.5q-25 35 -67 65q-33 -29 -80 -22.5t-80 22.5q-6 -23 -10 -27.5t-8 -4.5h-8.5t-10.5 -11 q-10 0 -16 6.5t-11.5 13.5t-10.5 14t-13 9q-49 -23 -95 -23.5t-93 5.5t-98.5 13t-114.5 5q-18 29 -37 61t-31 71q14 -6 17.5 -1t5.5 12t5 12t15 -1q27 -23 0 -43q25 -4 32 5t6 23.5t-7 31t-6 26.5q12 -2 19 3t12.5 11.5t12.5 10.5t21 -2q-6 -16 1 -19.5t16.5 -3.5t16.5 -2 t3 -18q33 4 43 31.5t0 54.5q59 -16 78.5 16.5t23 83.5t5.5 103.5t26 74.5q-18 35 -14 61.5t4 69.5q-6 45 -32.5 96.5t-55.5 98.5t-48.5 87t-8.5 62q-66 59 -111 136t-100 149q-18 -8 -39 -5t-38.5 12t-31.5 20.5t-22 17.5q-6 0 -8.5 -6t-6.5 -17q-12 10 -29.5 18.5 t-23.5 24.5q6 6 7 2t1 -10q-6 25 4 41.5t26.5 28.5t35 24.5t28.5 32.5q10 -18 12.5 -39.5t18.5 -27.5q10 18 20.5 13t19.5 -15.5t20.5 -18.5t25.5 6q6 -14 8 -27.5t6.5 -22.5t16.5 -12t37 5q0 16 -6.5 24.5t-2.5 18.5q12 2 24.5 -1t24 -4t18.5 5t7 29q31 -2 58.5 -10.5 t51 -9.5t41 11.5t25.5 51.5q53 -27 66.5 -69t13.5 -91q-29 -6 -39 5t-28 17q-10 -6 -16.5 -17t-6.5 -34q14 -20 23.5 -23t18.5 -1t20.5 5t27.5 -3zM467 106q23 0 22 -30q18 -4 24.5 5t27.5 5q-6 18 0 24.5t15 9.5t16.5 8t5.5 22q-23 0 -35.5 2t-22.5 14q-6 -4 -7 -13.5 t-2 -19.5t-3 -18.5t-10 -8.5v35h-21q0 -10 -7 -17.5t-3 -17.5zM965 1407q0 8 6 8t16 -3t21.5 -6t23.5 1v49q-14 -4 -21 -5t-14.5 0t-16.5 3t-28 2q4 -16 3.5 -30.5t9.5 -18.5zM1055 1253q0 -16 -3 -27.5t-5.5 -21.5t1 -19t13.5 -20q2 10 7 26.5t8 33t4 29t-5 14.5 q0 -15 -20 -15zM623 1077q20 -10 35.5 -3t15.5 40q-18 12 -31.5 31.5t-25 41t-25.5 40t-35 26.5q2 -27 14.5 -44t25.5 -34.5t22.5 -39t3.5 -58.5zM606 172q-2 -29 6.5 -38t23.5 -11t34.5 2t38.5 4q-4 29 -22.5 39t-37.5 27q12 -23 -7.5 -23h-35.5zM1008 150q8 -8 15 -8.5 t14 2.5t15.5 5.5t22.5 0.5q-6 23 -17 34t-40 11q4 -16 -3 -22.5t-7 -22.5zM797 172h-43q-4 -16 4 -24.5t17 -8.5t16.5 8.5t5.5 24.5zM879 166v-37h86q2 18 -7.5 29.5t-24.5 15.5t-30.5 2t-23.5 -10z" />
<glyph unicode="Z" d="M938 772q0 -14 10 -27.5t17 -27.5q10 18 21 25.5t21.5 11.5t16.5 9t6 17q14 0 13 -13t14 -13q-29 -20 -68 -37t-82 -37q-6 -23 -1 -30t14.5 -10t17.5 -7t8 -19q-29 -4 -53.5 -10t-40.5 -17.5t-22.5 -31.5t4.5 -51q-31 -16 -50.5 -43t-30 -58.5t-17.5 -65.5t-13 -65 q18 -14 34.5 -13t34 9t33 17.5t29.5 13.5t19.5 -1t7.5 -12t5 -14.5t13 -7.5q27 6 30 12.5t-5.5 14.5t-18.5 21.5t-6 33.5q14 0 21.5 1t17.5 7q10 -4 14 -11t8.5 -16.5t8.5 -19.5t14 -16q18 6 35.5 17t29 25.5t15.5 34t-6 44.5q29 2 39 22.5t18 44t20.5 42t43.5 18.5 q-8 37 -19.5 61.5t-17.5 52.5q20 20 33.5 39t21.5 53q29 6 44 -4t30 -24q0 -23 -9.5 -29t-9.5 -26q0 -6 13.5 -5.5t13.5 -13.5q20 10 26.5 19.5t4.5 19.5t-7.5 22.5t-5.5 30.5q8 -10 12.5 -10t9.5 4t10 10t15 6q23 -84 41.5 -166.5t61.5 -132.5q-6 -14 -15.5 -24t-29.5 -10 q6 -14 13 -28.5t13 -37.5h-55q14 -35 18.5 -84t-2 -100t-26 -99.5t-53.5 -78.5q-25 14 -51.5 10t-52 -11.5t-48 -8.5t-37.5 22q-14 2 -20 0t-8 -8t-3.5 -12.5t-5.5 -10.5q-109 12 -192.5 16.5t-164.5 4.5t-168 -4.5t-198 -6.5q0 23 -9 38.5t-44 9.5q-14 20 -21 42.5 t-12.5 44t-11.5 38t-20 24.5q0 20 8 30.5t0 33.5q8 6 20.5 11t28.5 5q20 29 31.5 69.5t27 80.5t42 73t75.5 47q6 35 15.5 56.5t37.5 35.5q-6 23 -6 30t6 36q20 -8 31.5 -3t26.5 11q2 25 4 40t6 24.5t13 15.5t30 12q4 18 2 28.5t-7 19t-9 16.5t-4 20q18 -4 29.5 2t23.5 12.5 t27.5 11.5t39.5 3q14 59 41 102t54.5 81t51 77t30.5 92q8 20 -8.5 32.5t-40 15.5t-46 -2t-26.5 -19q-6 6 -27.5 15t-28.5 24q-8 -14 -17 -25.5t-9 -32.5q-6 -10 -10.5 -5t-4.5 14.5t4.5 19.5t10.5 10q-53 10 -79 -3t-43.5 -36.5t-31.5 -47t-41 -36.5q10 -20 6 -41.5t-13 -43 t-20.5 -42t-17.5 -36.5q12 -4 17.5 -18.5t4.5 -29t-10.5 -25.5t-23.5 -11q-47 33 -77 55t-42 63q-8 8 -22.5 5t-14.5 6q-10 27 -9 57.5t4 62t5 62.5t-8 59q0 20 10 34.5t25 29.5q-27 41 -17.5 85t43.5 72q43 -10 97.5 -1.5t109 16.5t100.5 9t74 -24q49 16 105.5 17.5 t115 -1.5t116 -5t108.5 8q20 -29 50 -52.5t73 -58.5q-12 -39 -12.5 -66.5t4 -53t7.5 -52t1 -61.5q-10 0 -17.5 -4t-21.5 -4q2 -39 -11.5 -59.5t-34 -38t-40 -39t-25.5 -58.5q-20 0 -35.5 -1t-29.5 -9q6 -12 5 -24.5t-5 -21.5t-5.5 -14.5t5.5 -5.5q0 -10 -7.5 -12t-17.5 -2 h-21.5t-17.5 -2q-8 -14 -7 -22.5t4 -15.5t7 -15.5t4 -22.5q-6 -10 -16 -23.5t-23.5 -22.5t-29 -11t-31.5 12zM946 160q29 -6 55.5 -8t55.5 20q-29 12 -50.5 21.5t-41.5 23.5q6 -14 3 -19t-9.5 -8.5t-11.5 -9.5t-1 -20zM528 172q0 -29 17.5 -29t40.5 9q0 31 -31 47 q0 -27 -27 -27zM854 152q20 0 42 -1t22 21q-6 0 -19.5 2t-25 2t-17.5 -5t-2 -19z" />
<glyph unicode="\" />
<glyph unicode="_" d="M86 168q59 0 119.5 -1t126.5 28q4 -8 19.5 -18.5t19.5 -18.5q41 27 70.5 27.5t56 -2.5t52 0t60.5 32q37 -12 72 -16t70.5 -1t74.5 11t86 18q47 -16 101.5 -12t111.5 39q18 -31 42 -38t48.5 -1t50 23.5t48.5 35.5q8 -6 15 -14t15.5 -15t16.5 -10.5t20 5.5q8 4 -2 15t-8 26 q23 2 32 -4.5t23 -8.5q-2 -4 -6 -6q-4 -4 -8 -5t-8 -5q14 4 31.5 2t33 -2t29.5 6t27 25q6 -10 13 -19.5t11 2.5q8 -16 4 -19t7 -22q12 -4 27.5 -4t31.5 10q16 -27 21.5 -47t15.5 -37q-37 -35 -73 -51t-75 -23t-82 -13.5t-92 -18.5q-47 39 -90 29.5t-112 -29.5 q-35 23 -80 20.5t-101 -24.5q-43 25 -94 25.5t-104.5 -2.5t-104.5 -3t-96 25q-23 -18 -54.5 -20.5t-65.5 3t-69.5 11.5t-68.5 2q-10 6 -10 10t2 7l4 6t0 8q-23 -2 -19 -15.5t0 -30.5q-29 6 -65.5 6.5t-67 6.5t-48 25.5t-5.5 66.5zM465 76q27 16 39 22t33 8q-2 14 -7.5 18.5 t-11.5 2.5l-12 -4t-8 2l20 12q0 12 -5 14.5t-11 2.5t-11.5 1t-5.5 11q-6 -8 -16 -16.5t-19.5 -17.5t-13.5 -19.5t4 -22.5q8 4 11.5 3t13.5 -17zM1110 133q-10 6 -25.5 10t-31 3t-28.5 -8t-17 -21q25 4 49 13t53 3z" />
<glyph unicode="a" d="M1106 965q10 -16 22.5 -34t16.5 -44q10 -2 15 1t10.5 5t9.5 2t10 -8q6 -18 2 -39t-6 -39t4 -31.5t31 -19.5q-23 -49 -22 -95.5t22 -105.5q18 -2 26 0t13.5 7t11.5 12.5t18 15.5q-2 -31 -14 -51.5t-27.5 -36t-30 -32.5t-20.5 -42q-2 -12 4 -37.5t15.5 -55.5t19.5 -57.5 t18 -43.5h76q-2 -10 3 -14.5t9.5 -8.5t7.5 -11t-3 -24h-58q-20 -37 -56 -66.5t-80 -47t-92 -17.5t-93 23q-47 -18 -90 -37t-86 -39q-18 6 -29.5 15t-22.5 26q-10 -10 -24.5 -23.5t-26.5 2.5q-16 14 -7 14.5t17 14.5q-16 12 -30.5 10t-26.5 -9t-22.5 -17.5t-22.5 -12.5 q-35 27 -78 58.5t-77.5 70.5t-54 83t-7.5 96q-8 10 -16.5 15t-10.5 21q0 27 9.5 42.5t18.5 30.5t15 33.5t0 51.5q23 6 39.5 19.5t30.5 28t28.5 26.5t34.5 18q0 20 -9 33.5t-9 32.5q-53 16 -71.5 55t-11.5 82t35 81t66 52q10 4 10.5 14.5t0.5 20.5q74 14 141.5 21.5t135 7.5 t138 -10t150.5 -33zM715 965q-2 6 -2 10t-6 4q-16 -16 0 -35q23 6 35 13.5t30 -13.5q16 16 8 30.5t-28 14.5q-8 -8 -17.5 -13t-19.5 -11zM1014 918q2 14 -3 20t-13.5 9t-17.5 6t-11 12q-4 -29 12.5 -34t32.5 -13zM827 795q29 6 39.5 -7.5t10.5 -37.5q-10 -10 -25.5 -10.5 t-32.5 3.5q-8 6 -8 9.5t2 6.5t2 7t-6 12h-57q0 -23 11 -32t19 -27q-12 -2 -22 -11.5t-19 -21.5q20 0 24.5 -2t-3.5 -18q16 12 38.5 14t46 2t43 1t30.5 9q-18 12 -19 51q12 0 29.5 -2t31 -1t21.5 9.5t4 28.5q-47 4 -87 20.5t-73 37.5v-41zM733 758q-6 0 -6 10q2 10 14 10 q0 33 -34 37q2 -4 4 -18.5t4 -26.5t6 -17t12 5zM707 657q6 6 7 15.5t-1 18.5t-8.5 15.5t-14.5 4.5q0 -18 -1.5 -36t18.5 -18z" />
<glyph unicode="b" d="M698 1157q6 0 5 -5t-5 -5q0 -35 12.5 -57.5t31 -39t39 -28.5t38.5 -29q31 0 37 37q8 -6 22.5 -12t29 -12.5t23.5 -14.5t5 -16q14 8 35.5 7t44 -9t43 -22.5t35.5 -30.5q18 2 29.5 6t20.5 6t18 0t26 -12q4 -18 12 -47t21.5 -57t32 -48t46.5 -27q-4 -49 2.5 -83.5 t34.5 -51.5q-12 -37 -10 -87t2 -99t-12 -92t-53 -64q2 -10 6 -16t9 -12.5t7 -13.5t0 -21q-14 -10 -35.5 -10.5t-29.5 -12.5q-6 -23 2 -31t19 -12t21.5 -11t10.5 -26q-12 -10 -28.5 -14t-34 -8t-35 -9.5t-29.5 -15.5q4 20 -5 25.5t-5 21.5q-16 -23 -31.5 -46t-48.5 -27 q-2 -4 2 -9.5t8 -10.5t4 -9t-8 -6q-8 0 -12 -1t-4 -12q-16 0 -12.5 19.5t-0.5 28.5q-18 -4 -34.5 -14.5t-26.5 -20.5q-27 18 -49.5 17t-46 -3t-46 2t-49.5 31q-16 -14 -34.5 -25.5t-49.5 -21.5q-12 14 -35.5 29.5t-51 22.5t-53.5 5t-42 -22q-12 6 -12 17v22.5t-3 20.5 t-22 13q6 18 6 36t1 33t6.5 27.5t23.5 20.5q2 12 0 19.5t-5 13.5t-5 13t0 20q-27 6 -27 -17q-10 14 -6 26.5t14.5 23t21.5 20.5t17 20q-8 25 -21 39.5t-7 48.5q10 -4 13 1.5t5 11.5t4 10t12 0q-23 35 -24.5 66.5t24.5 70.5q0 16 -9 22.5t-18 12.5t-15.5 14t-0.5 31 q12 12 19.5 6t23.5 -6q-2 27 -7 43t-12 28.5t-15.5 25t-18.5 32.5q16 -4 22.5 4t9.5 18.5t5 21.5t10 17q-2 14 -6 19.5t-10 7.5t-12 2t-9 4q-4 10 0.5 13.5t11.5 3.5t16 -2t15 0q0 6 -3 16t-5 21.5t-1 20.5t9 15q-8 23 -16 23t-37 -4q4 35 -5 62.5t-42 31.5q-10 0 -15 -6 t-9.5 -12.5t-10.5 -11.5t-16 -3q-16 16 -6 29.5t14 30.5q-6 8 -19.5 11t-17.5 13q-14 2 -21 -5t-13.5 -14.5t-12.5 -11.5t-16 7q-8 27 0 52t0 75q31 20 67.5 35.5t75.5 27.5q6 -14 14.5 -22.5t16.5 -17.5t13 -20.5t3 -29.5q12 6 14.5 13t0.5 16.5t-2 18.5t6 19q10 -6 28 -26 q4 -10 3 -14.5t-6 -7.5l-10 -6t-7 -9q10 -6 10 -25q39 8 63.5 -4t42 -29.5t33.5 -27.5t43 6zM893 920q25 4 33 -3.5t20 -11.5q2 2 5 11.5t5 20.5t-2 17.5t-18 1.5q4 -14 -3 -17t-16.5 -3t-17.5 -2t-6 -14zM829 936q-4 12 -17 11t-19 -1q-8 -12 -3 -19t14 -9.5t18 2t7 16.5z M993 883h64q-4 18 -9.5 24t-12.5 8.5t-17 1t-25 3.5v-37zM760 682q16 0 19 -7t3 -18q-43 -23 -60 -67.5t-16 -95t16 -99.5t38 -78q29 0 45 -1t24 -5q-16 -16 -10 -47q18 -8 26.5 -10t14.5 -2t13.5 -1t25.5 -9q0 27 17.5 34t37 12t33.5 13t10 35q20 -4 28.5 -15.5t37.5 -3.5 q12 20 14 50t5 60t11.5 54.5t28.5 36.5q-18 2 -21 10.5t2 19.5t12 23.5t7 20.5q-16 33 -39.5 55.5t-35.5 57.5q-14 -8 -19.5 -8.5t-8.5 2.5t-7 9.5t-15 10.5q6 -16 -1 -20.5t-23 -4.5q0 23 -8.5 39.5t-3.5 40.5q-10 -4 -13.5 0t-5.5 9t-7 9.5t-17 0.5q-18 -14 -42 -23.5 t-46.5 -20t-41 -25.5t-28.5 -42zM926 135q47 -10 89 12.5t56 63.5q-31 -25 -70.5 -39t-74.5 -37z" />
<glyph unicode="c" d="M823 1020q6 10 12.5 4t12.5 -14q18 12 34.5 20t57.5 21q0 -23 -4 -43.5t-27 -20.5q6 -16 31 -19t47 -3q6 14 2 18t-10 5t-10 4t2 18q18 -4 19 8t14 22q10 -16 34.5 -25t65.5 -5q23 -47 61.5 -74t79.5 -49q-6 -35 1 -52.5t18.5 -32t19.5 -32.5t6 -55q-41 -10 -56 -48 t-22 -92q-23 12 -50 20.5t-56 17t-55.5 19.5t-46.5 27q2 25 -3.5 39.5t-12.5 27.5t-13 28.5t-4 38.5q-16 16 -45 20t-64 10q-10 -10 -14 -29.5t-17 -31.5q-10 14 -20 17t-22.5 1t-26.5 -4t-31 2q-6 -18 3 -24t5 -23q-6 -12 -18 -13t-12 -18q-12 -6 -16.5 -2t-5.5 9.5t-4 9.5 t-15 -2q-16 -23 -34 -56.5t-59 -44.5q6 -29 5.5 -48t-4 -37.5t-6.5 -38t-3 -48.5q0 -10 13.5 -10t25.5 -4q-18 -18 -14 -33.5t15 -31t21.5 -34t8.5 -42.5q53 0 71.5 -13.5t30.5 -48.5q6 20 20.5 30.5t32 17t35 12.5t29.5 18q12 -4 17.5 -13t9.5 -19.5t9 -21.5t17 -18 q6 0 13.5 6.5t12.5 15.5t4 18.5t-13 15.5q12 12 21 8t17.5 -15.5t12.5 -26.5t4 -28q14 2 20.5 14.5t12.5 26t17 22.5t34 7q-4 29 -10 68.5t10 64.5q23 -10 24 -23.5t-5.5 -31t-13.5 -39t3 -47.5q23 2 35 16t21.5 31.5t20.5 32t32 20.5q27 -16 43 -16t30.5 8t31 18.5 t42.5 14.5q-29 -35 -19.5 -77t27.5 -71q-23 -53 -53.5 -92t-65 -71.5t-73.5 -60.5t-80 -56q-23 12 -47.5 10t-47 -5t-42 -3t-33.5 14q-12 -12 -19.5 -23.5t-19.5 -23.5q-84 41 -157.5 65.5t-161.5 59.5q6 29 -15.5 65.5t-54.5 42.5q-6 37 -20.5 62.5t-32 46t-32.5 42 t-24 50.5q12 37 12.5 79t3.5 85t14 82t46 67q0 16 -9 22.5t-5 22.5q51 41 84 90.5t69.5 90.5t92 65.5t151.5 18.5q-8 -4 -12 -14.5t-4 -16.5q23 -16 49.5 -16t36.5 16q0 12 -9.5 15t-19.5 4t-21.5 5.5t-13.5 16.5zM1126 901q0 23 -14 36t-33 19q-10 -18 1 -39.5t46 -15.5z M637 893q-4 6 -6 21.5t-25 9.5q0 -14 -6 -21.5t-14 -12.5t-16.5 -10.5t-10.5 -17.5q8 0 8 -22q12 0 23.5 -1t15.5 -8q14 27 33.5 42.5t41 27.5t42 22.5t39.5 24.5q-53 6 -77.5 -13t-47.5 -42zM1198 823q0 25 -14.5 33t-26.5 14q0 -23 5 -38t36 -9zM1073 164q0 -41 23 -41v18 l3 -6t9 -12t18 0q6 8 19.5 20.5t24 23.5t12.5 22.5t-15 21.5q-24 -47 -94 -47zM698 133q12 -6 27.5 -21.5t29 -24.5t23.5 -4t15 40q-18 -2 -26.5 0t-16 8t-16.5 14.5t-25 18.5q7 -21 -11 -31z" />
<glyph unicode="d" d="M1049 1405q-6 -6 -9.5 -10t-13.5 -4q2 -25 16.5 -36.5t32 -18.5t31.5 -15t20 -25q23 6 19 30t-10 48q33 -20 49 -56t19 -78t-7 -85t-31 -78q4 -16 14.5 -21t18.5 -16q-20 -41 -19 -86t5 -92t4 -95t-23 -93q10 -31 25.5 -49.5t21.5 -53.5q-27 -27 -21.5 -53t17 -54 t15.5 -56.5t-25 -61.5q10 -16 20.5 -22.5t32.5 6.5q-10 -29 -4 -39t16.5 -18.5t17.5 -22.5t1 -53q41 -12 78 -29.5t63.5 -42.5t41 -56.5t12.5 -72.5q-41 4 -76 -6t-41 -58q-55 35 -108.5 42.5t-109 6.5t-113.5 -2.5t-122 17.5q-23 0 -30 -18.5t-23 -30.5q-8 18 -20.5 21 t-12.5 28q-37 -10 -62.5 -11t-48 -1t-47 -2t-59.5 -11q-27 8 -44 24.5t-35.5 31t-41 23.5t-57.5 5q-55 68 -96 161t-55.5 191.5t2 191.5t71.5 161q0 14 -4 19t-7 10.5t-3 11.5t6 20q10 10 25.5 10t27.5 15q-12 37 6.5 58.5t47 39t57 34.5t37.5 46h102q8 33 31.5 40t52.5 7 t57.5 1t44.5 22q20 -27 39 -32t38.5 -3t40 2t46.5 -14q33 27 32 58.5t-19.5 62t-49 56t-57.5 40.5q-14 4 -24.5 -6.5t-19.5 -21.5t-17.5 -18.5t-16.5 1.5q-8 25 -25.5 39t-35 29.5t-31.5 34.5t-16 52q14 -2 35.5 -8t48 -11t56.5 -8.5t62 3.5q2 18 -4 24t-15 11.5t-16.5 11.5 t-2.5 24q53 18 104 11t98 4q6 -16 15.5 -26.5t17.5 -27.5q-6 2 -13 1t-14.5 -1t-15.5 4.5t-20 18.5zM682 985q35 6 65.5 0t59.5 -14t55.5 -11.5t52.5 9.5q-27 14 -58.5 30.5t-62 23.5t-60 0t-52.5 -38zM557 932q16 10 36.5 20.5t27.5 32.5q-23 -6 -30 3t-26 3q6 -12 0 -20 t-13 -15.5t-8 -12.5t13 -11zM621 868q-6 -18 -2 -24t10 -9.5t11 -6.5t3 -15q-12 0 -15 -11t-7 -11q-47 16 -71 3.5t-40 -36t-32.5 -47t-51.5 -29.5q-6 -16 -2 -34.5t8 -33t3 -21.5t-17 3q-4 -55 4 -99t23.5 -82t35 -72t37.5 -69q29 0 45.5 -11t40.5 -11q-4 -14 1 -21.5 t10.5 -12.5t9.5 -11t2 -17h55q0 10 1 23.5t7 13.5q23 -16 53.5 -26.5t71.5 -10.5q0 6 -2 16.5t-3 21t1 17.5t10 7q0 -20 7.5 -13t16.5 19t20.5 16.5t19.5 -22.5q6 35 32.5 63.5t51 59.5t37 67.5t-12.5 89.5q27 20 27 52t-15.5 64t-42 56.5t-55.5 30.5q25 35 3.5 64.5 t-56.5 36.5q12 -45 -33 -45q12 29 -3 54t-50 32q-14 -20 -33.5 -20.5t-40 6.5t-40 12t-33.5 -7zM963 190q0 25 30 15v47h-39q2 -14 -1 -24.5t-6 -18.5t-0.5 -12.5t16.5 -6.5zM682 55q23 -6 45.5 1t35.5 19.5t16 25t-11 18.5q0 -12 -15.5 -8t-34 4t-30.5 -10.5t-6 -49.5z M1188 104q8 -29 44 -42t66 12q-12 35 -32 45q-4 -14 -10.5 -16.5t-16.5 -0.5t-23.5 5t-27.5 -3zM1352 74q12 -4 19 -2t12.5 4t10.5 3t13 -5q0 23 -15.5 26.5t-39.5 3.5v-30z" />
<glyph unicode="e" d="M772 973q6 -4 35 -8t57 8q0 39 -22 39q23 14 43 9t38.5 -11t36 -6t33.5 22q20 -8 41 -20.5t41.5 -23.5t40 -16t39.5 1q10 -27 22.5 -41.5t23.5 -27.5t21.5 -29.5t16.5 -47.5q8 2 11 8.5t5 11.5t8.5 7t20.5 -4q6 -29 -3 -42.5t-5 -41.5q14 18 23.5 9t12.5 -35.5t2 -62.5 t-6 -71t-13.5 -61.5t-18.5 -32.5q0 -29 16.5 -40t22.5 -28q-12 -29 -10 -55.5t4 -52t-1 -48t-24 -42.5q12 -2 14 -14.5t4.5 -25t8.5 -22.5t26 -6q0 -18 2 -37.5t-10 -32.5q-35 0 -76 -25.5t-75 -41.5q-23 6 -40.5 16t-52.5 -2q-23 -10 -15.5 -21.5t7.5 -37.5q-31 6 -52 9 t-39.5 2t-35 -7t-39.5 -21q-18 0 -29.5 13.5t-17.5 25.5q-23 -23 -46 -22.5t-51 8.5t-59.5 15t-72.5 -1q-6 31 -34 49.5t-57.5 35t-52 35t-16.5 48.5q-31 2 -41 27.5t-15 55.5t-13.5 55.5t-36.5 29.5q12 16 17 37t22 33q-6 29 -15.5 49t-17.5 49q18 6 28.5 21.5t11.5 32 t-6.5 31.5t-23.5 20q6 25 20.5 39t29 29.5t23.5 35.5t3 57h28q6 70 47.5 107t98.5 53q12 6 17 16.5t5 20.5q27 -4 56.5 6t51 17.5t27 4.5t-19.5 -34zM1085 889q8 2 19.5 -2t22 -10.5t17.5 -8.5t11 6q-6 6 -16.5 18.5t-21.5 20t-20.5 4.5t-11.5 -28zM506 766q29 8 44 20.5 t15 40.5q-29 0 -47 -13t-12 -48zM811 354q6 -29 27.5 -44t33.5 -40q37 37 91 45q0 12 -1 25.5t-6 13.5q-8 0 -21 -2t-27.5 -2t-26 2t-17.5 10q6 12 15.5 18.5t19.5 13.5t17.5 17.5t7.5 26.5q-23 20 -42.5 17.5t-33.5 -18t-24.5 -39.5t-12.5 -44zM743 332q16 0 23.5 10 t13.5 20q-12 -4 -17 1.5t-7 11.5l-4 12t-9 6q-12 -23 -6 -27.5t6 -33.5zM582 203q0 59 -29 67q-8 -23 -1 -42t30 -25zM1049 135q-14 -6 -20.5 -7t-10.5 1t-10.5 4t-20.5 2q0 -12 10.5 -20.5t22.5 -9.5t21.5 5.5t7.5 24.5zM901 111q-2 -14 5 -21.5t15.5 -7.5t14.5 7t4 22 q-12 10 -13 5t-26 -5z" />
<glyph unicode="f" d="M1157 1329h-80q6 -25 25.5 -38t42 -17t43 1t29.5 19q-6 14 -28 12.5t-32 2.5q-4 23 14.5 22.5t30.5 5.5q10 -23 37 -27.5t64 -0.5q23 -18 33 -50t13 -67t3 -72t2 -65q-18 -2 -27.5 -15.5t-15.5 -29t-13.5 -28.5t-23.5 -15q-23 0 -46.5 2t-33.5 12q-10 -16 -17.5 -35.5 t-17.5 -37t-27.5 -30t-48.5 -12.5q8 4 9.5 10.5t1.5 16.5q-8 -12 -23.5 -26.5t-34 -23.5t-40 -12.5t-42.5 5.5q-16 -4 -23 -19.5t-13 -38.5q-29 0 -43.5 -4t-36.5 -4q-6 -111 -5 -209t33 -176q-16 -12 -18 -25.5t1 -28t8 -30.5t3 -31h58q2 -14 4 -21t3 -13.5t1 -14.5v-24 q16 -6 24 -15.5t25 -15.5q10 16 8 29.5t16 29.5q8 -18 28 -26.5t47.5 -10.5t58 -1t61.5 1q10 -55 -4 -103t-70 -65q8 -10 13.5 -17t7.5 -13t0 -15.5t-6 -25.5q-8 31 -39 48t-67 21.5t-69.5 -5t-48.5 -33.5q-41 10 -101 19t-127 13t-131.5 0t-113.5 -20q-39 10 -62.5 32.5 t-39.5 55.5q0 20 20.5 22t30.5 13q2 8 -4 12t-14.5 4t-15.5 -4t-3 -12q-6 16 4.5 32.5t23.5 33t25.5 33.5t12.5 40q12 -8 20 -6t15.5 7t17.5 10t27 5q0 -18 -6.5 -23t-2.5 -22q8 16 15.5 16.5t14.5 -6t17.5 -11.5t26.5 1q23 27 48.5 45.5t54.5 40.5q-16 16 -20.5 32.5 t-2.5 34t9 36t14 37.5q-2 14 -9.5 22t-15.5 14.5t-16.5 14.5t-10.5 22q0 20 16.5 25.5t28.5 17.5q0 18 -7 28.5t-15 19t-15.5 18.5t-7.5 29q10 10 24.5 14t27.5 14q-23 29 -46.5 55.5t-27.5 69.5q-16 2 -25.5 -2t-18.5 -9t-20.5 -8t-29.5 3q-10 12 -15.5 26.5t-12.5 26.5 t-20.5 19.5t-39.5 0.5q6 23 15 30t-7 28q23 0 34 9t17 22.5t12 26.5t17 24q27 2 43 -1t28.5 -6.5t24.5 -3.5t35 11q4 20 -5.5 30.5t-9.5 26.5h45q4 18 7.5 42t8.5 44.5t15 34.5t33 16q0 20 -11.5 28.5t-11.5 31.5q25 14 43.5 23t36 16.5t38 12.5t50.5 11q-16 -8 -21 -20.5 t-8 -23.5t-9.5 -18t-24.5 -1q4 -6 5 -16.5t1 -20.5q23 0 26 13t3 24q59 0 112.5 16t98.5 27q-4 10 -13.5 13t-19.5 4t-18.5 4t-8.5 16q-20 -6 -35.5 -13.5t-15.5 -23.5q-12 33 6.5 40t49 5t64.5 -3t50 15q16 -4 32.5 -9t16.5 -28zM969 944q4 0 4 -8t-4 -12q23 -6 46 -13.5 t34 -23.5q-6 20 1 24t16 1t18.5 -5t9.5 8q-6 16 -18.5 21.5t-27 8.5t-25.5 8t-17 22q0 -8 -6.5 -10t-14.5 -2t-13 -3.5t-3 -15.5zM989 131q12 0 32.5 -5t27.5 11q-16 0 -15.5 14.5t-13.5 14.5q6 -12 0 -15.5t-15.5 -3.5t-15.5 -2t0 -14z" />
<glyph unicode="g" d="M1063 209q25 -41 61.5 -61.5t80.5 -38t89 -36t86 -55.5q8 0 11.5 5.5t7.5 10.5t11 7t24 -2q-16 -31 5 -69t68 -46q0 -59 4.5 -109.5t3 -99.5t-11.5 -100t-39 -115q-18 -29 -50 -44t-65.5 -29.5t-64.5 -31t-51 -44.5q-55 -4 -94 -5t-71 -2t-62.5 -3.5t-69.5 -10.5 q-43 16 -76 24.5t-61.5 8.5t-58 -8t-68.5 -25q-176 25 -279.5 123t-144.5 258q25 25 33 59.5t11 75.5t5 88.5t14 94.5q-43 43 -43 92t14.5 100t27 102.5t-8.5 98.5q35 25 38 61.5t-1 76.5t-2 79t39 68q4 12 1 19t-6 14.5t-6.5 15.5t1.5 24q35 20 71.5 50t76.5 61t84 58.5 t95 43.5q20 -20 35.5 -19t29 8t24 16.5t18.5 5.5q12 -20 11 -21.5t-5 1.5t-10.5 3t-6.5 -16q18 -16 25.5 -11t11.5 17t10.5 24.5t26.5 12.5q-8 -41 8.5 -56.5t44 -22.5t59.5 -12t56 -26q33 16 64.5 33.5t64.5 40.5q23 -8 16.5 -18.5t-6.5 -32.5q14 0 20.5 10t9.5 22.5 t7 24.5t17 16q12 -4 11 -10t-5 -13t-7 -14.5t1 -15.5q12 25 14 24t3 -10.5t4 -21.5t20 -12q20 12 19 20t-10 15.5t-19.5 16.5t-10.5 21h94q-4 -16 2.5 -22t13.5 -10.5t11 -10.5t-4 -20q25 4 39 -3t28.5 -16.5t35 -15.5t55.5 2q-20 -31 -14.5 -50.5t18 -35.5t25 -36.5 t3.5 -57.5q-47 -47 -89 -61.5t-84 -7.5t-87 33t-100 58q-16 -16 -17.5 -36.5t6 -42t19.5 -40t25 -30.5q-16 -29 -34 -56.5t-30 -57.5t-14 -61.5t14 -68.5q-29 -18 -59.5 -35.5t-59 -36t-53 -42t-41.5 -54.5q8 -16 36 -19t60 -3q8 0 9.5 7t1.5 16t1 17.5t9 12.5zM766 897h74 q-8 16 -19.5 29.5t-44.5 13.5q0 -16 -5 -21.5t-5 -21.5zM512 834q16 0 30.5 1t22.5 9q0 -20 10 -21q-8 12 -4 23.5t9.5 22t6.5 17.5t-12 11q0 -16 -8 -23.5t-19 -11.5t-21.5 -10t-14.5 -18zM1083 844q20 -4 31.5 4t13.5 18.5t-6 20.5t-28 10q0 -16 -5.5 -22t-5.5 -31z M608 793q-16 -25 -25.5 -54.5t-17.5 -52.5q-16 -8 -23 -11t-13.5 -1t-14.5 5t-22 7q8 -25 4 -36t-12.5 -19t-16.5 -16.5t-8 -24.5q16 -23 46 -27t70 -4q0 -12 5.5 -21.5t10.5 -19.5t7 -22.5t-2 -32.5q20 -12 40.5 -11t36 0t25 -10.5t4.5 -42.5h170q0 16 11.5 25.5t19.5 17.5 q55 -8 81 14.5t34 57.5t5 77t-3 73q-16 16 -32.5 19t-41.5 3q-23 41 -35 62.5t-28 54.5q-20 4 -31.5 1t-19 -10.5t-14.5 -16.5t-19 -17q-16 16 -28.5 29.5t-35.5 13.5q-8 -33 -34.5 -36t-51.5 13q-8 -12 -4 -21t9 -15.5t6.5 -10.5t-11.5 -4q-8 4 -11 14.5t-6 21.5t-7.5 19.5 t-16.5 8.5zM1083 526q8 -16 12.5 -35.5t20.5 -27.5q-4 12 3 22.5t14.5 19.5t8.5 16t-16 16q-4 -8 -8 -7.5t-9 3t-11.5 2t-14.5 -8.5zM618 -522q16 -35 39 -39t48.5 -1t52 1t51.5 -35q4 12 11 16.5t14.5 5.5t12.5 5t5 16q-57 23 -114 35t-120 -4zM852 -543q31 -20 63.5 -24 t69.5 -1t79 9t95 6q0 16 -8 23.5t-19.5 11.5t-22.5 7t-15 11q33 35 71.5 61.5t74.5 55.5t62.5 65.5t34.5 92.5q-35 27 -63.5 57.5t-61 56t-75.5 44t-107 22.5q-8 -8 -20.5 -15.5t-20.5 -15.5q-72 25 -139.5 21t-131 -22.5t-122.5 -48.5t-115 -56q-16 -88 13.5 -156 t101.5 -98q33 0 46 10t30 10q16 -8 20 -26.5t21 -26.5q10 8 25.5 15.5t37.5 7.5q-12 -12 -3 -27.5t24.5 -29t33 -25t21.5 -15.5zM438 -446q0 31 -10 57.5t-43 26.5q-8 -41 10 -54.5t43 -29.5zM1200 -446q-8 -8 -9 -23.5t1 -31t5 -30t3 -22.5q27 0 50.5 12.5t41 29.5 t26.5 37.5t9 37.5q-8 0 -14 -11.5t-13.5 -20.5t-15.5 -13t-20 12q0 8 15 12t7 21q-12 -4 -22.5 -13.5t-20.5 -15.5t-20.5 -3.5t-22.5 22.5zM555 -522q8 0 16.5 -5t24.5 -5q0 25 -7 35t-24 18q0 -16 -5 -24.5t-5 -18.5z" />
<glyph unicode="h" d="M651 1255q12 -45 11.5 -82.5t-5 -72.5t-6.5 -67t11 -64q29 -12 65.5 -6t77.5 20t85 30.5t87 22.5q0 -14 4 -15t11 0t13.5 -1t10.5 -14q10 0 13 5t5 12t5 11t16 2q35 -43 71.5 -80.5t90.5 -62.5q25 -45 34 -99.5t15 -108.5t14 -102t31 -81q0 -12 -5.5 -19.5t-9.5 -15.5 t-6 -17.5t2 -25.5q4 -14 7.5 -27.5t21.5 -9.5q-4 -25 -4 -34t-14 -34q18 -12 28 -30.5t22.5 -37t31 -30.5t51.5 -8q4 -18 6 -39.5t33 -17.5q-6 -29 -5.5 -54.5t-15.5 -58.5q-70 -27 -152.5 -31t-165.5 4.5t-160 21.5t-132 23q-41 -29 -106.5 -38t-140.5 -8t-148.5 10.5 t-129.5 17.5q-2 23 -13 36t-17 30q6 35 31.5 57t53 44.5t47 49.5t13.5 70q8 0 14.5 -3t10.5 -4t9 0t13 7q2 125 1 218t-2 175t0 165t9 185q-12 35 -43.5 57.5t-59.5 47t-39 57.5t20 88q82 31 156.5 6t127.5 -74zM567 1227q18 -2 21.5 10t7.5 29h-39q-2 -16 5 -21.5t5 -17.5z M977 692q-10 4 -8 8q2 43 -7.5 76t-50.5 31q-12 -6 -21 -17.5t-19.5 -21.5t-25 -16.5t-38.5 -1.5q-23 -41 -54.5 -80t-57 -81t-38 -89t4.5 -103q-4 -16 -17 -10q10 -35 23.5 -66.5t23.5 -66.5q41 12 72 -4.5t59 -36.5q16 16 36 23.5t22 33.5q10 -10 9 -22t-4 -26.5t-2 -27 t17 -18.5q14 31 41 46.5t55 31.5q-2 8 -13 23.5t-19.5 30t-5 26.5t27.5 14q0 -18 -7 -25.5t7 -21.5q10 -10 32.5 -10h45.5q-16 43 -10 81t15 73.5t10 68.5t-25 66h37q-4 25 -6.5 51t-6.5 50t-14 42t-31 27q-14 0 -20 -8.5t-10.5 -17.5t-9.5 -19.5t-17 -12.5zM434 166 q0 -20 -2 -43t21 -25q-2 12 5 16.5t16 6.5t19.5 3t16.5 5q-6 37 -29 47q-4 -23 -17.5 -17.5t-29.5 7.5zM786 119q45 -6 37 37h-47q-2 -12 4 -17.5t6 -19.5zM987 156q6 -14 -1 -16.5t-18.5 -1.5t-20.5 1t-7 -10q16 -6 38.5 -9t43 0t33 11t10.5 25q-23 -16 -37 -13t-41 13z M1350 139q4 -12 18 -18t28.5 -6t27 6t12.5 18q-12 8 -20.5 6t-17.5 -6t-20.5 -6t-27.5 6z" />
<glyph unicode="i" d="M731 1477q8 0 11 -7.5t2 -16.5t-2 -19.5t3 -18.5q-57 0 -49 47q10 0 22.5 2.5t12.5 12.5zM510 1120q14 0 21.5 -8t11.5 -18.5t6 -23.5t6 -21q-29 0 -47 23t2 48zM631 780q2 -10 11 -13t17.5 -5t13.5 -5t3 -16h-51q-6 14 0 21.5t6 17.5zM442 193q4 -16 -3 -24.5t-1 -25.5 q-27 6 -50 9.5t-19 40.5q20 0 20 -15q14 20 19 17.5t34 -2.5zM690 1536q35 0 61.5 -8t51 -16.5t48 -9.5t54.5 14q47 -61 46 -117t-31.5 -97.5t-82 -66.5t-106.5 -27q-8 0 -6 -6t4 -14t-1 -14.5t-17 -6.5q-8 -10 -9 -10l4 5q3 5 7 12.5t4 13.5q-45 27 -70.5 71t-31 93t13 98 t61.5 86zM696 1462q-8 -47 49 -47q-4 8 -3 18.5t2 19.5t-2 16.5t-11 7.5q0 -10 -12.5 -12.5t-22.5 -2.5zM403 893q8 33 -2 50.5t-24.5 32.5t-24.5 35.5t-4 61.5q53 4 83 28.5t46 65.5q8 -2 18.5 -8t20.5 -10t18.5 -4t10.5 10q6 0 8 -6t2 -14.5t1 -16.5t7 -10q18 -4 25.5 0 t12.5 10t11 11.5t19 5.5q0 -27 14 -31t31 -4q-4 -8 -13.5 -10.5t-17.5 -4.5t-14 -5t-6 -13q6 -18 20 -22.5t30.5 -2.5t32 10.5t23.5 14.5q0 16 -12 20.5t-29 -0.5q27 51 74 59.5t106 -11.5q-4 -31 6.5 -42.5t41.5 -5.5q2 -31 14 -51t24.5 -40.5t21.5 -44t7 -58.5 q-25 4 -32 -9.5t-21 -17.5q6 -57 -3 -117.5t-12.5 -114.5t11 -99.5t63.5 -69.5q-4 -20 -20.5 -28.5t-32.5 -16.5q35 -27 57.5 -65t42.5 -76q12 2 12.5 8t-4 15t-8.5 19.5t0 22.5h47q10 -18 10.5 -45t10.5 -49q29 -4 47 1t31.5 10t25 4t29.5 -15q2 20 -4 26.5t-12 8.5t-8.5 8 t10.5 26q25 -16 38 -38.5t27.5 -46t37 -43t65.5 -27.5q10 -23 9 -39t-8.5 -30.5t-16.5 -29t-17 -28.5q-61 10 -89 -10.5t-32 -55.5q-18 0 -26.5 2t-12.5 3t-9 0t-17 -5q-18 33 -35 36t-34.5 0t-36.5 -2t-42 32q-16 -10 -28.5 -25.5t-12.5 -40.5q-8 -6 -15 -2t-13.5 9.5 t-11.5 5.5t-7 -13q-16 0 -18 16.5t-2 35.5q-70 -29 -143 -41.5t-144 28.5q-47 -6 -101.5 -9t-103.5 6t-87 36t-56 80q8 51 35.5 72.5t64.5 34t75 24.5t66 45q16 4 18.5 -3t2.5 -17q23 4 16.5 18t-6.5 33q45 0 55 -17q31 18 50.5 50t33 71t21.5 83t16 89q-8 20 -35 21 q18 14 19.5 33.5t0.5 38t3 31.5t26 15q-10 27 -24 42.5t-10 46.5q-49 -20 -73 6t-28 73h-55q-4 -8 0 -15t9 -13t4 -11.5t-13 -7.5q6 18 -12.5 29.5t-44 17t-53.5 0t-42 -19.5zM555 1049q-4 8 -6 21t-6 23.5t-11.5 18.5t-21.5 8q-20 -25 -2 -48t47 -23zM389 178q0 14 -20 15 q-4 -37 19.5 -40t49.5 -10q-6 16 1 24.5t3 25.5q-29 0 -34 2.5t-19 -17.5z" />
<glyph unicode="j" d="M1282 1356q-12 -6 -19.5 -17.5t-14.5 -21.5t-16 -18.5t-26 -8.5q-4 -31 2 -40t6 -33q-55 -4 -106 16t-84 57t-41 85t23 98q16 6 20 -1.5t4 -17.5v-20.5t10 -10.5q8 0 11.5 8.5t3.5 19.5v24.5t2 23.5q41 33 81 35t72.5 -19.5t52 -63.5t19.5 -95zM1165 1423q18 0 33.5 2 t15.5 15q-10 0 -13 6t-6 13t-9 12.5t-21 1.5v-50zM1165 1473q14 4 20.5 -1.5t9.5 -12.5t6 -13t13 -6q0 -12 -15 -14.5t-34 -2.5v50zM676 1083q6 0 6 -16q4 -10 14.5 -11t22.5 1t25.5 3t23.5 -1q0 -12 -7 -18.5t-15.5 -9.5t-17.5 -8t-11 -13q-27 0 -34 21t-7 52zM526 164 q4 -8 5 -18.5t1 -16.5q0 -12 15.5 -14t19.5 -2q0 -18 -8 -26.5t-18.5 -14.5t-19.5 -14.5t-11 -26.5q-16 2 -17 12t3 24.5t7 33t-3 36.5q12 -6 19 4.5t7 22.5zM799 88q35 6 41 -9.5t10 -31.5q-61 -14 -51 41zM592 203q6 -25 -1 -35t-7 -31q33 8 30.5 24.5t-14.5 41.5 q31 6 51.5 4t34.5 -10.5t26.5 -17.5t28.5 -15q6 -35 -3 -50.5t-21 -33.5q6 -16 17 -28.5t21.5 -25t16.5 -27.5t4 -36q-6 -8 -11 -7t-9 4t-8.5 4t-6.5 -7q2 -16 13.5 -23.5t22.5 -12.5t18.5 -13t3.5 -27q20 6 27.5 17.5t31.5 5.5q2 -16 -1 -23.5t-8 -11.5t-10 -10t-5 -19 q-18 4 -29.5 14.5t-28.5 18.5q-12 -10 -13 -21.5t4 -21.5t13 -21.5t13 -19.5q14 14 25 20.5t21.5 4.5t21.5 -9.5t28 -15.5q16 14 20 37.5t17 36.5h73q27 53 39.5 113.5t15.5 125t-2 129t-12 123.5q31 125 30 258t-38 265q-43 18 -93 33.5t-100.5 20.5t-99.5 -3t-90 -35 q6 20 3 33.5t-9 22.5t-14 18.5t-13 25.5q37 12 41.5 38t-8.5 69q37 4 78 12t77 7t63.5 -17.5t41.5 -59.5q-18 2 -27.5 4.5t-15.5 4.5t-14 3t-27 5q29 -23 57.5 -20t57.5 18.5t56.5 35t53 26.5t51 -4t48.5 -56q6 0 8 5t5 10t9.5 8t18.5 1q0 -35 21.5 -60.5t40 -51t23.5 -52 t-26 -59.5q6 -25 14.5 -44t13.5 -37.5t5 -40t-10 -52.5q-23 27 -49 0q0 -25 19.5 -28t29.5 -15q0 -18 1 -37.5t-1 -35t-9.5 -24.5t-23.5 -9q23 -35 29 -66t6 -63.5t-1 -70.5t9 -83q-6 -4 -9 -10t-6 -11.5t-9.5 -7.5t-18.5 4q37 -43 42 -97t2 -110.5t-1 -110.5t35 -97 q-39 -10 -69.5 -39t-59.5 -67t-56.5 -77t-58.5 -67q-55 0 -83.5 -17.5t-49.5 -56.5q-29 27 -63.5 37t-73.5 9t-76 -9t-68 -14q-25 27 -56.5 51t-92.5 16q-27 72 -51.5 134.5t-81.5 99.5q-6 72 -3 130t18.5 107t41 93t66.5 85q67 13 92 -26zM717 1010q2 8 11 13t17.5 8 t15.5 9.5t7 18.5q-10 2 -23.5 1t-25.5 -3t-22.5 -1t-14.5 11q0 16 -6 16q0 -31 7 -52t34 -21zM999 1059q0 -33 31 -39t60 -10q14 37 0 49q-4 -6 -13.5 -6t-23 3t-28 4t-26.5 -1zM500 137q6 -18 3 -36.5t-7 -33t-3 -24.5t17 -12q2 18 11 26.5t19.5 14.5t18.5 14t8 27 q-4 0 -19.5 2t-15.5 14q0 6 -1 16.5t-5 18.5q0 -12 -7 -22.5t-19 -4.5zM1090 1059q14 -12 0 -49q-29 4 -60 10t-31 39q12 2 26.5 1t28 -4t23 -3t13.5 6z" />
<glyph unicode="k" d="M1391 121q-4 -12 4 -23.5t18 -19.5t20.5 -11.5t10.5 1.5q8 -10 1 -16.5t-20.5 -14.5t-27 -16.5t-17.5 -20.5q-86 -4 -154.5 -8t-131 -1t-122 14t-124.5 38q-33 -33 -87 -40t-111.5 -7t-107.5 -3t-77 -30q-47 12 -100.5 26.5t-94.5 26.5q-6 23 -3 35t9.5 20.5t11.5 18.5 t1 31q6 0 14 5t15.5 8t13.5 1t10 -14q41 35 59.5 86t42.5 96q-10 55 -6 108.5t8.5 103.5t3.5 97t-22 95q23 10 37 34q-20 27 -15 60t12 61.5t5 51t-39 28.5q-4 14 0 20.5t10 10.5t11.5 8t5.5 14q-6 37 -6 62.5t3 49t5 46.5t-2 53q-16 23 -38 35t-44.5 24.5t-42 29 t-31.5 48.5q-14 6 -18.5 2t-5.5 -10t-5 -10t-16 2q8 23 27.5 36t43 23.5t47 19.5t40.5 26q8 -6 25.5 -14.5t36 -12.5t34.5 -5t27 5q45 -6 65.5 -37t28.5 -72t11 -85t15 -76q-29 -20 -29.5 -44t6.5 -50.5t10 -53t-19 -53.5q2 -10 9 -14.5t14 -7.5t12.5 -8t5.5 -13 q-12 -29 -18.5 -51.5t-9.5 -45t-2 -49t5 -65.5q39 -4 79 7t72.5 33.5t55 54.5t28.5 71q-6 20 -31.5 38.5t-37.5 6.5q-12 18 -17.5 47t9.5 49q23 -4 38 0t27 11.5t23.5 16.5t23.5 15q61 -16 134 -10t142.5 9t130 -8t101.5 -60q2 -20 -3 -34t-13 -25t-17.5 -20.5t-11.5 -19.5 q-27 -4 -54.5 -1t-51 2t-41 -11t-19.5 -39q-29 -14 -58.5 -25.5t-55 -27t-44 -38t-24.5 -58.5q-8 -12 -28.5 -12.5t-32.5 -14.5q0 -76 27.5 -124t66.5 -88t79 -81t62 -100q6 -10 16.5 -13.5t20.5 -6.5t17.5 -10t7.5 -24q27 -6 51 -1.5t45 10.5q6 -6 7 -17.5t1 -25.5 q10 -4 16 -2t10.5 6t10.5 6t16 0q6 -8 9.5 -23.5t17.5 -21.5q-8 -6 -24.5 -3t-28.5 3zM752 145q0 -31 25.5 -41t43.5 -18q6 20 -1 30.5t-7 28.5q-12 0 -18.5 1t-11.5 2.5t-11 1t-20 -4.5zM866 104q6 8 8.5 21.5t5.5 25t11 16.5t27 -1q2 43 -8.5 76.5t-29 65.5t-39 65 t-36.5 71q-37 2 -55.5 -10t-31.5 -28.5t-26.5 -34t-36.5 -23.5q10 -16 9.5 -27.5t-7 -19.5t-16.5 -15t-18 -16q12 -39 44.5 -56t71.5 -29.5t75 -29t52 -51.5zM1233 104q27 -4 48.5 -9t39.5 -6t32.5 5t26.5 27q-27 -4 -49 4t-40.5 13t-33 0t-24.5 -34zM909 86q23 0 35 4 t21.5 6t19.5 1t29 -11q0 14 -4 18.5t-4 16.5q-16 2 -25.5 2t-17 -2t-15.5 -3t-22 3q8 -12 5 -16.5t-9.5 -4.5t-11.5 -2t-1 -12z" />
<glyph unicode="l" d="M1044 246q2 -20 13.5 -29.5t23 -18t18.5 -20.5t-1 -39q14 0 21 -2t13.5 -3t12.5 -1t18 6q0 14 -6 22.5t-6 22.5q0 10 -3 9.5t-8 -6t-12.5 -7.5t-17.5 4q12 35 42 41t65.5 -2t74.5 -22.5t72 -16.5q-10 -23 -12 -43t-3 -38.5t-6.5 -36t-19.5 -33.5q-53 10 -86 -3.5 t-53 -37.5q-57 25 -108.5 21.5t-97.5 -11.5t-88 -9t-85 32q-45 -25 -98.5 -25t-109.5 6t-113.5 12.5t-112.5 -6.5q-20 4 -31.5 17.5t-28.5 29.5q4 35 14.5 59.5t6.5 65.5q29 31 75 48.5t91 31.5q25 -20 55.5 -34.5t83.5 -4.5q33 20 46 58.5t15 83.5t-5 91t-15 81q12 2 18 11 t10.5 19.5t9.5 20.5t15 14q0 14 -6 23.5t-13 17.5t-12.5 16.5t-1.5 22.5q14 10 22.5 23.5t22.5 23.5q-6 14 -10 25.5t-5 23t0 24.5t3 34q-10 0 -11 -9.5t-1 -19.5t-3 -16.5t-18 -1.5q4 31 14.5 55t30.5 45q-16 6 -25 23.5t-9 38t9 39t25 26.5q-12 39 -20 72.5t-17.5 64.5 t-25.5 60.5t-43 62.5q-59 10 -94 -5.5t-66 -35.5q14 14 12 28.5t-15 24.5t-32.5 17.5t-35.5 9.5q0 27 -2.5 45t14.5 29q25 4 30 -13.5t11 -34.5q80 31 159.5 31t165.5 -10q33 10 33 59q23 -12 37 -32.5t24.5 -43t18.5 -46t21 -44.5h-27q2 -47 -2 -82.5t-8 -65.5t-3 -57.5 t13 -60.5q10 -6 15 2t9.5 17.5t7.5 14.5t9 -7q4 -18 -2 -25.5t-15.5 -11.5t-20.5 -6t-15 -10q2 -16 11 -37t15 -41.5t2 -38t-28 -23.5q10 -10 16 -31.5t7 -44t-6 -41t-26 -24.5q27 -31 29 -96.5t3 -138t15.5 -136t67.5 -88.5q12 -2 18.5 2t11.5 10.5t11 9.5t18 -1 q8 23 5.5 35t-10 21t-14.5 16.5t-7 19.5q14 4 21.5 -6t31.5 0q0 -16 -3 -33.5t24 -13.5q0 -20 -19 -24.5t-29 -14.5zM997 158q10 -10 31 -17.5t49 -1.5q2 14 -9 25.5t-26.5 15.5t-29 0t-15.5 -22zM498 119v39h-33q4 -14 8.5 -26.5t24.5 -12.5z" />
<glyph unicode="m" d="M1112 1016q-10 -47 10.5 -66.5t55.5 -31.5q14 4 16 20t2 35q33 -4 50.5 -28.5t41.5 -35.5q0 -84 -2 -168t1 -161.5t15.5 -147.5t38.5 -123q6 -12 4 -19t-6 -10.5t-9 -5.5t-7 -8q25 -10 36 -31.5t22.5 -42t30 -35t56.5 -7.5q8 -41 -1 -68t-9 -62q-109 -29 -206 -32.5 t-190 0.5t-187.5 6t-194.5 -17q-35 20 -76 21.5t-84 -4.5t-86 -13.5t-81 -4t-68.5 22.5t-48.5 67q8 18 21 25t27.5 8t31 1t32.5 4q-18 78 -15 167t8 177.5t4 169t-26 146.5q6 16 24.5 45t18.5 47q-4 10 -19 19.5t-15 13.5q12 37 38.5 55.5t61.5 27.5t73 13t70 10 q18 4 34 9.5t29 5.5t26.5 -7.5t27.5 -29.5q12 -2 19.5 3t11.5 12t9 15.5t13 12.5q51 -25 99.5 -21t94.5 15.5t90 18.5t87 -13zM934 918q-23 0 -28 9t-27 7q4 -23 21.5 -30t33.5 -15q10 18 20.5 39.5t18.5 44.5q-23 -4 -34 2t-30 6q0 -10 6.5 -15t12.5 -10.5t9 -13.5t-3 -24z M897 391q-14 -31 -3 -49t28.5 -35.5t32 -39t8.5 -56.5q25 -2 41 3t28 9t24.5 3t30.5 -15q12 14 15.5 34.5t6.5 43t9 45t25 39.5q-4 2 -10.5 3t-12.5 3t-9 7t1 15q10 14 13 26.5t18 -1.5q-10 51 -16.5 93t-6.5 82t6.5 81t24.5 90q-23 37 -57.5 51.5t-70.5 9t-67.5 -29 t-46.5 -60.5q2 -47 -10 -89t-21.5 -83t-8.5 -85t28 -95zM719 553q-10 33 -26.5 76t-12.5 80q-25 4 -30 22.5t-9 40t-12 39.5t-39 25q-6 -10 -8 -20.5t-7.5 -20t-15.5 -13.5t-31 0q-6 -6 -7 -21.5t-1 -31.5t-1 -29.5t-9 -19.5q-12 -2 -20.5 3t-14.5 9t-10 3t-10 -15 q20 -6 29.5 -14.5t14.5 -19.5t7 -22.5t12 -21.5q-12 2 -15 -6t-3 -17.5t-1 -17.5t-10 -8q18 -57 15.5 -122.5t-2.5 -129t16.5 -121t71.5 -96.5q4 12 2 17t-7 8.5t-9.5 6.5t-4.5 13q14 -4 23.5 1t18 10t15.5 7.5t17 -10.5q4 27 9 44.5t10.5 30.5t7.5 27.5t-2 34.5q29 0 36 26 t3 62q-39 -6 -29 39q14 -10 20.5 -0.5t8.5 27.5t1 42t-1 40q-10 4 -17.5 1t-11.5 -7t-7 -5t-3 11q18 10 28.5 26.5t20.5 16.5zM401 680q-2 10 4.5 22.5t11.5 22.5t6 20.5t-11 18.5q-16 -16 -18.5 -38.5t7.5 -45.5zM817 616q-4 10 -1 15.5t8 8.5t9.5 8t2.5 18q-4 2 -5.5 9 t-3.5 13t-6 9t-16 1q-20 -23 -14 -47.5t26 -34.5zM797 266q6 -4 15 -9t24 -1q0 14 1 31.5t-20 7.5q2 -16 -7 -19.5t-13 -9.5zM391 168q10 -18 16.5 -29.5t12.5 -19.5t14 -15.5t21 -19.5q20 49 6.5 76.5t-70.5 7.5zM1395 104q16 6 19 -2t3 -18t3 -18.5t20 0.5q4 14 0 28.5 t-12.5 22.5t-17.5 6.5t-15 -19.5zM889 94q27 -10 40 -13t34 3q0 16 -8.5 23.5t-20.5 6.5t-24.5 -6.5t-20.5 -13.5zM709 66q6 45 -39 38q-6 -14 -2 -20t11 -8t15.5 -3t14.5 -7z" />
<glyph unicode="n" d="M752 1012q4 -4 0 -11.5t-10.5 -17.5t-10.5 -21.5t0 -23.5q86 47 172 53t164 -10q12 0 12 3t-4 9t-8 13.5t0 15.5q84 0 84 -64h-51q8 -31 28.5 -53t42.5 -39q8 2 9.5 12.5t1.5 22.5t2 22.5t10 14.5q31 -18 36 -54t5 -74t6 -69.5t37 -44.5q-47 -135 -36 -266t99 -227 q14 16 29.5 15t31 -7t34 -11t43.5 3q18 -31 20 -58.5t-5 -53t-21.5 -49.5t-26.5 -48q-92 8 -182 6t-181.5 -5t-181.5 -4t-180 11q-35 4 -74 -2t-78 -10t-74.5 1t-66.5 34q-20 -16 -44 -19.5t-46.5 -3.5t-43 -2t-36.5 -18q-4 20 -16.5 31.5t-26.5 20.5t-28.5 18t-22.5 26 q8 33 13 54.5t30 27.5q18 -4 19 -7t-5 -9.5t-12 -14.5t-2 -20q23 -16 51.5 -14.5t52.5 26.5q0 -16 -5 -21.5t-5 -21.5q25 8 33 27.5t31 33.5q-4 12 -12.5 12.5t-19.5 -3t-24.5 -4.5t-29.5 8q20 66 94 84q-6 23 3 39t9 32h43q-12 39 -9 84t7 89t5 87t-15 78q0 6 10 8t10 13 q-16 86 -13 179t-7 187q8 4 14 1t11 -7t9.5 -5t8.5 11q8 0 6 -9t-4 -21.5t0 -21.5t18 -9q14 -4 20.5 2t8.5 15t3 19.5t9 14.5q33 -8 45.5 -25.5t28.5 -25.5q20 0 33.5 5t24 12t21.5 16.5t27 17.5q12 0 17.5 -6t8.5 -10.5t8.5 -5t17.5 11.5zM866 823q-14 0 -32.5 -12 t-36 -24.5t-32.5 -17.5t-24 11q-8 -39 -32.5 -66.5t-38.5 -60.5q27 0 27.5 -14t-4.5 -32.5t-6 -33t22 -14.5q0 -25 -14.5 -23.5t-30 6.5t-25.5 4t-2 -28q14 -8 21.5 1t29.5 9q0 -20 7 -29.5t14.5 -17.5t14.5 -17t7 -30q-20 4 -29.5 -1t-13.5 -15t-5 -22.5t-5 -24.5 q16 -8 28.5 -20.5t45.5 -12.5q10 25 13 45t19 31q23 -16 36.5 -41t6.5 -66q27 -4 59 5.5t62.5 27.5t56 46t42.5 58q-8 16 -16.5 9t-14.5 4q8 18 12 31.5t10 22.5t15.5 18.5t25.5 21.5q-20 8 -23 24.5t1 37t9 43t1 40.5q-23 8 -32 21.5t-13 29t-11 30t-26 26.5q0 -8 -4 -6 t-11 6t-17.5 8t-22.5 0q-4 -14 1 -19.5t11 -8.5t10 -7t0 -16q-12 4 -27.5 3t-30.5 -3t-25.5 -3t-10.5 3q14 0 11 23.5t-3 39.5zM1130 307h54q0 16 5 21.5t5 21.5q-16 0 -21.5 5t-21.5 5q-8 -16 -14.5 -23t-6.5 -30zM752 307q25 0 36 12.5t27 18.5q-8 0 -17.5 10t-25.5 2 q4 -12 0 -16t-10 -6t-10 -5.5t0 -15.5zM1100 139v-51q8 0 19 1t11 -23q14 0 25.5 8t19 13t14.5 2t13 -23q0 25 11.5 38t11.5 35q-23 0 -31 23.5t0 40.5h-43q-12 -12 -15 -24.5t-6.5 -23t-9.5 -15.5t-20 -1zM963 88h94q8 39 -10.5 52.5t-40.5 19.5q0 -14 -5.5 -21.5 t-12.5 -13.5t-14 -14.5t-11 -22.5zM594 88q-8 39 -24.5 39t-49.5 -6q0 6 -2 12t-18 6q16 -39 35.5 -45t58.5 -6zM721 109q0 23 -14.5 26.5t-36.5 3.5q-10 -31 8 -34.5t43 4.5z" />
<glyph unicode="o" d="M893 1018q10 -6 21.5 -10t27.5 2q0 -10 -8 -14.5t-12 -14.5q16 -10 28.5 -18.5t34.5 -8.5q0 18 10.5 23.5t26.5 8.5t34.5 7t35.5 17q37 -33 58 -81t48 -98h64q0 -16 3 -30.5t25 -3.5q2 -25 2 -50.5t2 -49t11.5 -39t33.5 -17.5q-16 -10 -23 -34.5t-5 -50.5t14 -46.5 t37 -26.5q-25 -45 -42 -97t-38.5 -100t-52.5 -89t-82 -62q0 -16 7 -25.5t1 -31.5q-63 -10 -104 -24.5t-88 -53.5q-16 12 -28.5 17.5t-27 6.5t-33 0t-45.5 -1q-66 14 -136 39.5t-128.5 66.5t-95.5 99.5t-33 142.5q-4 10 -9 29.5t-5 38t7 31.5t30 13q2 10 -1 16.5t-8.5 12.5 t-9.5 12t-4 17q16 6 20.5 -1.5t14.5 -7.5q6 0 7 7.5t1 16.5t1 17.5t7 10.5q-4 10 -8 9t-8 -4t-9 -5t-9 6q-4 25 -11.5 51.5t-8.5 49t8.5 40t37.5 23.5v77q33 10 49.5 34t16.5 67q18 -2 29.5 7t21.5 18.5t20.5 12.5t26.5 -9q-18 -12 -31.5 -34t-16.5 -43.5t8 -40t40 -26.5 q12 6 12 11.5t-5 12.5t-11 15t-2 18q47 43 106.5 62.5t149.5 30.5q0 20 -6 27.5t6 23.5zM991 291q47 16 71.5 52t57.5 63q0 12 -4 19t-10 11t-10 8.5t-4 12.5q43 49 42 99t-24 96t-57.5 88t-61.5 77q-8 -6 -24.5 -6t-32.5 3t-32.5 7t-24.5 10q-18 -10 -39 -18t-42.5 -15 t-41 -17.5t-33.5 -26.5q10 -41 -1 -62.5t-26.5 -41t-27 -43t-0.5 -66.5q27 10 38 -5.5t11 -37.5q-10 -23 -26.5 -33t-16.5 -37q27 -6 37 -29.5t20 -50.5q10 23 29 23q8 -18 24.5 -31.5t29.5 -26t16 -26t-15 -31.5q23 -16 45.5 -21.5t54.5 1.5q16 27 22.5 35t33.5 14 q8 10 5 18t-8 13.5t-8.5 8.5t5.5 3q16 0 20 -13.5t8 -23.5zM1071 932q0 -23 16.5 -28t32.5 -15q10 23 -6 41t-43 2zM1198 362q10 10 -1 35t-34 31q0 -29 12.5 -39.5t22.5 -26.5zM637 213q0 33 -9.5 55.5t-41.5 22.5q2 -10 5 -23.5t7 -26t13.5 -20.5t25.5 -8z" />
<glyph unicode="p" d="M524 926q18 -4 25.5 -15.5t12.5 -25t10.5 -23.5t19.5 -10q6 10 3 12t-9 3t-11.5 4t-1.5 18q14 6 35 12t21 35q43 -6 79.5 5t72.5 22.5t74 13.5t85 -23q-16 -8 -19 -19t-10 -17q8 -18 15.5 -24.5t16.5 -8.5t19.5 -2t22.5 -4q0 14 -10 18t-17 21q10 14 29 14t37 -9.5 t32.5 -23.5t14.5 -29q10 14 22.5 11.5t23.5 -15t21.5 -28t16.5 -25.5q6 2 10 8t8.5 10.5t8.5 3.5t12 -14q43 -96 67.5 -186t25.5 -177t-25.5 -175t-87.5 -177q-27 8 -33 -1t-21 -15q-12 -33 -40.5 -48t-60.5 -24.5t-62.5 -17.5t-45.5 -25q-23 4 -36 0t-23 -11t-19.5 -15 t-23.5 -12q0 -10 4 -9.5t8 3.5t6 2t0 -15q-23 -6 -43 -2t-41 12q-4 -6 -1 -19t5.5 -27.5t0 -28t-16.5 -21.5q8 -16 23.5 -25.5t32 -16.5t28.5 -18.5t12 -31.5q-23 14 -49 11t-26 -38q6 -14 19 -15t26.5 2t23.5 6t15 -5q-23 -27 -68 -46.5t-99.5 -31.5t-111.5 -13t-106.5 11 t-83 39t-39.5 72q10 6 16 15t15.5 17.5t22.5 12.5t38 2q0 41 12 85t22.5 92t10.5 99t-25 109q18 31 28.5 80t15.5 107.5t7.5 122t6.5 124.5q14 6 17 2t9 -14q-18 25 -15 33t8 12t2 9t-30 24q12 14 12.5 36.5t-8 46t-20.5 44t-22 30.5q0 39 8 48.5t19 11.5t23.5 7t22.5 38z M854 918q-6 -10 -12 -6.5t-14.5 11t-19.5 13.5t-30 0q0 -18 -4 -24.5t-11 -8.5t-15.5 -2t-16.5 -4q12 -10 25.5 -9t26 4t21.5 2t13 -15q4 4 13.5 9t16.5 11t11 10.5t-4 8.5zM657 840q35 -6 53.5 8t12.5 49q-29 -6 -47.5 -17t-18.5 -40zM778 51q25 -4 54.5 -6t57.5 1 t50.5 12.5t36.5 31.5q-53 10 -94 7t-74 -1t-58.5 16.5t-45.5 61.5q27 2 53 -5t51 -13t48.5 -5t43.5 23q8 -8 8 -22.5t23 -8.5q0 14 9 21.5t22.5 10.5t30 6t30.5 9v39q37 4 54.5 24.5t28.5 46.5t22.5 50.5t35.5 38.5q-8 16 -11 35.5t32 19.5q-8 43 -19.5 88.5t-30 85 t-46 73.5t-66.5 57q0 43 -30.5 45t-73.5 2q0 20 -8.5 28t-0.5 37q-14 -4 -23 -10t-19.5 -10t-25 -5t-34.5 5q-59 -49 -122.5 -113.5t-86.5 -128.5q0 14 -5 17t-13 10q10 -43 8 -79t-3 -68t4 -60.5t30 -55.5q-23 -14 -37.5 -25t-28.5 -32q35 20 61.5 13t47 -28.5t37 -50 t30.5 -49.5q-14 0 -22.5 -4t-14.5 -8t-14 -6t-23 2q0 -23 5.5 -38t15.5 -30q41 8 67.5 -6t32.5 -49zM535 756q-8 -20 0 -29.5t8 -26.5q12 -4 18 0.5t11.5 9.5t11.5 9t16 2q6 27 18.5 49.5t20.5 42.5q-14 -6 -22.5 -19.5t-17.5 -23.5t-23 -15t-41 1zM686 -260q-10 2 -25.5 9 t-31 11t-28.5 1t-19 -21q29 6 38 -2t9 -37q14 0 31.5 -2t35 -2t30.5 5t17 19q-23 14 -25.5 31t5.5 45h-29q-4 -6 -3 -16t2 -19.5t0 -15.5t-7 -6zM412 -317q10 4 25.5 7t28.5 8t22.5 14t9.5 28q-14 2 -25.5 -2t-21 -9t-16.5 -4t-15 15q0 -10 -5 -17.5t-9.5 -14.5t-4 -13 t10.5 -12z" />
<glyph unicode="q" d="M1110 1001q12 -18 17.5 -21t-1.5 -28q20 -2 34 -11t23 -22.5t16 -27.5t18 -27q0 -25 -13.5 -33t-19.5 -32q2 -10 10 -13.5t17.5 -6.5t15.5 -9t6 -20q-31 -6 -31 -22.5t6 -35t6 -33t-30 -16.5q2 -41 14 -74.5t21.5 -67.5t7.5 -67t-27 -69q6 -16 20.5 -22.5t20.5 -25.5 q-4 -29 -8 -50t-7 -42.5t0 -42t15 -45.5q-25 -43 -39 -99t-6 -108.5t42 -91.5t108 -45q2 -18 18 -24.5t32.5 -12.5t28 -20.5t5.5 -46.5q-41 -31 -92.5 -45.5t-110 -19.5t-123 -6t-131.5 -3q-23 0 -46.5 -2t-45 1t-41 14.5t-31.5 35.5q-6 -12 -11 -15t-12.5 -2t-17.5 2 t-25 -1q14 12 14.5 20t-2.5 15.5t-3 13.5t16 16q14 0 15 -3t-2 -8t-7 -13t2 -17q14 -6 24.5 -4t18.5 6t14.5 9.5t16.5 5.5q0 18 -16.5 21t-40.5 3q8 8 10 12.5t-1 7.5t-6 7t-3 12q37 12 55 2t43 -16q0 -18 -12.5 -21.5t-12.5 -27.5q25 -18 58.5 -16.5t64.5 8.5q0 25 -8 41 t-33 16q18 12 29.5 31.5t22 42t22.5 46t31 42.5q2 43 -10.5 73.5t-32 43t-42 7t-36.5 -31.5q-37 18 -75 7t-81 -24q0 2 -4 19q-2 6 -4 14h-67.5t-66.5 8.5t-61.5 25.5t-50.5 54q-6 12 -2 15.5t10.5 5.5t10.5 5t-2 15q-18 -10 -39 -1t-39.5 28.5t-32.5 45.5t-20 50 q6 20 16 26.5t20.5 9.5t20.5 7t16 23q2 -6 14.5 -13.5t21.5 -16.5t13.5 -18.5t-8.5 -17.5q18 -18 44 -39.5t56.5 -40t63.5 -31t66 -12.5q20 0 49.5 5t57.5 17.5t48.5 33t24.5 51.5q53 31 79.5 84t57.5 102q0 31 -8 44t-8 38q18 6 26 22.5t15 34.5q-6 25 -20.5 36t-20.5 30 q0 12 5 18t10 13.5t8 15.5t1 25q0 20 -19.5 19t-37.5 -1q-18 37 -52 69.5t-77 20.5q-31 51 -67 65.5t-76.5 5.5t-85 -35t-91.5 -52q-12 0 -20 6t-15.5 11t-14.5 6t-15 -7q6 -37 -1 -94t-16.5 -119.5t-12.5 -125t13 -111.5q-43 6 -48 0.5t8 -39.5q-25 12 -25 39 q-43 4 -62.5 23.5t-24.5 48t-1 63.5t9 71.5t7 71.5t-8 64q37 45 69.5 96t75.5 94q12 0 16.5 -8t6.5 -18.5t3 -21.5t7 -18q18 25 39 52.5t51 46.5q0 12 -14 10t-27 -2q2 18 12.5 28.5t21.5 18.5t20.5 16.5t13.5 24.5q76 25 135.5 16.5t112.5 -23.5t106.5 -25.5t116.5 7.5z M899 1001q0 -12 -1 -19t-7 -13q12 0 22.5 -7.5t19.5 -14.5t17 -11t15 2q-18 0 -20.5 18.5t3.5 36.5q-18 -6 -24.5 1t-24.5 7zM639 961q0 6 6 5t15.5 -2t16.5 0t11 13q-6 6 -7 12t-1 12q-6 0 -16.5 -5t-17.5 -12t-10 -14t3 -9zM1053 203v41h-33q-12 -53 33 -41zM752 33 q12 12 23 18t18 12q-6 -23 7 -27.5t25 -10.5q6 12 18.5 22t6.5 33q-10 6 -29.5 8t-38 -2t-29.5 -16t-1 -37zM1110 -141q20 0 27.5 16t8.5 37.5t0 44.5t5 35q-25 6 -27 -6.5t-14 -20.5q2 -35 5 -46t4 -16t-1 -12t-8 -32z" />
<glyph unicode="r" d="M494 92q-16 6 -32 14.5t-33 13.5t-35.5 5t-41.5 -10q8 25 26.5 35t42 12t49.5 3t48.5 8t38.5 26.5t21 60.5q14 0 17 -7t3 -16.5t2 -17.5t18 -12q0 12 -8 32.5t-18 42t-19.5 41t-13.5 29.5q20 18 24.5 42t1.5 48.5t-9.5 49t-6.5 45.5q6 12 16.5 17t19.5 10t14.5 14.5 t-1.5 31.5q0 14 -13 11t-27 -3q18 25 28 60t12.5 70.5t-4 70.5t-18.5 60q-20 -6 -32.5 0t-19.5 12t-12.5 6t-11.5 -18q-16 29 -37.5 35t-45 -0.5t-48 -17.5t-47.5 -17q-6 23 -2 38t11 29.5t17.5 29.5t16.5 38q20 -8 27.5 -11.5t31.5 1.5q0 -12 -3 -27.5t10 -15.5q12 4 13 9 t-3 10t-8 11t-2 13q23 10 45 12t42.5 3t36 6t21.5 22q12 -12 30.5 -18.5t37 -14.5t32 -19.5t15.5 -33.5q49 -8 97 1t96 24t94 30.5t90.5 18.5t84 -10t74.5 -54q10 0 14.5 4t8.5 8t9 6t17 -2q0 -37 6.5 -54.5t-12.5 -37.5q4 8 10.5 3t6.5 -11q12 0 11 11t5 24 q18 -10 25.5 -27.5t12.5 -35t12 -31t26 -15.5q-20 -70 -51 -127t-101 -76q0 -6 6.5 -13t10.5 -11q-18 0 -37 21.5t-38.5 48t-40 47t-42.5 18.5q-8 55 10.5 87t54.5 44q-2 16 -15 20.5t-29.5 5.5t-32 3t-21.5 14q-8 0 -10 -8t-6 -8q-90 12 -139.5 -11.5t-80 -65.5t-53 -92.5 t-57.5 -91.5q4 -59 2 -121.5t2 -124t19.5 -118.5t52.5 -104q12 12 43 19t64.5 6t63.5 -9t40 -25q4 0 5 9.5t1 17.5q29 -14 57.5 -30.5t61.5 -28.5q0 -20 -7.5 -30.5t-1.5 -39.5q-18 -2 -32.5 -10.5t-25.5 -18.5t-23.5 -20t-28.5 -17q-49 18 -96 22.5t-94.5 3.5t-95.5 -3 t-99 4v33q-37 -8 -57.5 -29.5t-57.5 -30.5q-27 16 -52.5 20.5t-49 8.5t-41 13.5t-25.5 33.5q-12 -12 -15 -13t-28 3q25 6 46.5 8t43 5t44 11.5t51.5 28.5zM889 82q-10 0 -10 27q-18 -10 -36 -9.5t-34 5t-32.5 7.5t-33.5 -3q4 -33 16.5 -38t29 -3t32 0t25.5 -29q0 33 11.5 38 t31.5 5z" />
<glyph unicode="s" d="M602 1055q2 -10 -5 -11.5t-16.5 -2.5t-15.5 -5t2 -22q18 -4 40 2t50.5 13t64.5 12.5t81 0.5q14 6 13 12.5t-7 12.5l-11 11t5 12q33 -16 56.5 -19.5t45 0.5t47 15.5t64.5 23.5q-16 -20 -14 -40.5t14 -36t32.5 -21.5t45.5 2q2 18 -5.5 27.5t-13.5 16.5t-7 14t11 18 q72 31 123 17.5t98 -79.5q-16 -37 -1.5 -77t34.5 -62q-31 -31 -53.5 -66t-28.5 -94q-8 18 -22.5 21.5t-31.5 1.5t-33.5 -2t-28.5 16q0 41 -8.5 70.5t-32.5 40.5q-14 -6 -24.5 -12.5t-21 -10.5t-22.5 -7t-31 1q0 31 19.5 50.5t36.5 -3.5q-10 33 -39 44t-51 34 q-8 -4 -11.5 -10.5t-7.5 -12.5t-10 -8t-19 2q-23 -10 -21.5 -21.5t7.5 -33.5q-16 6 -25.5 17.5t-18.5 25.5t-17.5 26.5t-20.5 20.5q-37 -23 -87 -39t-92 -39.5t-65.5 -59.5t-5.5 -98q6 -16 18.5 -23t26 -14.5t24.5 -16.5t15 -27q12 -2 21.5 1t17.5 6t15.5 3t15.5 -10 q14 6 13 19t-1 30q12 -4 19.5 -9.5t13.5 -9.5t13 -4t24 8q-20 -12 -15 -18t20 -11t32.5 -10.5t23.5 -15.5q6 8 16.5 19.5t22.5 17.5t24.5 4t18.5 -20q23 0 31 12t18 22q-4 10 -15 14.5t-11 18.5q14 -2 24.5 1t18.5 7t17 6t22 0q41 -37 47 -102q29 23 74 23t73 -23 q-8 -41 1 -70.5t27.5 -54t43 -45t45.5 -45.5q-2 -31 -8 -55.5t-8.5 -45t3 -40t25.5 -39.5q2 -18 -2 -26.5t-10 -14.5t-11 -14.5t-3 -26.5q-10 0 -15.5 3t-9.5 5t-8 1t-15 -9q0 -16 8.5 -22.5t18.5 -10.5q-68 -94 -148.5 -143t-195.5 -60q-27 27 -70 26t-88 -5t-86 -1t-61 36 q-10 -4 -25.5 -7.5t-38.5 0.5q0 20 -14 28.5t-31.5 13t-34 8.5t-22.5 20q-37 -27 -76 -48.5t-90 -0.5q-10 51 -12 93t2 82t12 83t19 100q27 -10 37 1.5t26 21.5q20 0 32.5 -8.5t24 -18.5t24.5 -17t36 -5q-4 -25 6 -39.5t14 -30.5q47 6 72 -10.5t46.5 -38t46 -37.5t71.5 -10 q-4 -18 1 -27.5t13 -16.5t17.5 -12.5t15.5 -13.5q23 10 31 34t18 50q23 -10 28 -27.5t19 -33.5q20 -4 36.5 -1t30 6t27 3t25.5 -8q8 27 30.5 51.5t46 51t40 57t14.5 67.5q-6 39 -27.5 57.5t-51.5 29.5t-62.5 23.5t-59.5 41.5q-18 -6 -29.5 -19.5t-21.5 -27t-25.5 -21.5 t-39.5 -2q-10 6 -12.5 19.5t-2.5 29.5q-39 -4 -68.5 -4t-55 -2t-50 -6t-53.5 -14q-29 4 -46.5 20t-35.5 33.5t-42 31t-62 11.5q-8 37 -22.5 64.5t-30 55t-28 58.5t-18.5 70q10 31 24.5 57.5t28 53t22.5 56t9 68.5q37 -6 61.5 0t43 13.5t32 13.5t29.5 0zM1217 895 q0 16 9 21.5t5 15.5q-16 0 -26.5 14.5t-22 29.5t-22.5 22.5t-25 -5.5q12 -8 18 -23.5t13.5 -30.5t19 -28.5t31.5 -15.5zM1135 545q6 -12 11 -12.5t11 3t12.5 4.5t12.5 -10q10 31 -6.5 35t-40.5 0v-20zM721 82q-25 -6 -32 5t-11 25.5t-11.5 26t-29.5 4.5q0 -16 9 -31.5 t22.5 -25.5t28 -12t24.5 8zM1135 68q18 -6 25 -1t10.5 14t4.5 19.5t7 16.5h-33q0 -16 -7 -24.5t-7 -24.5zM1051 47h61q0 23 -2 40t-16 22q-8 -8 -17.5 -12.5t-16.5 -9.5t-10 -13.5t1 -26.5zM913 27q0 14 -9 20t-20.5 8t-22.5 3t-17 10q-4 -16 3 -23.5t18.5 -10.5t24.5 -4 t23 -3z" />
<glyph unicode="t" d="M653 1255q8 4 7 14.5t4 33.5q12 2 13 -7.5t-1 -20.5t-2 -21.5t10 -8.5q14 2 16 9.5t-1 17.5t-6 22.5t1 28.5q20 -2 30.5 -14.5t14.5 -29.5t3 -37.5t-5 -39.5q16 -59 47 -106t84 -68q-23 -20 -48 -34.5t-62 -2.5q12 -31 28.5 -39t37 -6t44 8.5t50.5 3.5q-4 20 -14.5 36 t-22.5 24q12 10 26.5 7t42.5 -7q-12 -45 16.5 -58.5t57.5 -1.5q0 29 -16.5 40.5t-36.5 19.5q8 14 24.5 14t36 -4t39 -5t31.5 15q8 -16 14 -34.5t21 -34.5q8 4 18 8t27 4q10 -10 13 -27.5t6 -34t9.5 -29.5t24.5 -16q-25 -6 -51.5 -16t-53 -14t-53 -1t-47.5 25 q-8 -25 -33.5 -27.5t-56.5 1.5t-61.5 8t-51.5 -4q-31 -12 -43 -29.5t-18 -41t-13.5 -54.5t-25.5 -70q16 -35 21.5 -80t10.5 -92t14 -93t34 -79q27 0 33 4t28 -4q-10 -20 -5 -33.5t15.5 -24.5t21.5 -22.5t18 -25.5q33 29 46 63.5t-14 63.5q45 -14 65.5 7t36 52t37 58.5 t68.5 25.5q0 -16 -2 -29.5t6 -13.5q18 0 27.5 10.5t15.5 23.5t12.5 27.5t18.5 20.5q16 4 22.5 -4t9.5 -20.5t6 -22.5t15 -12q-8 -16 -18 -28.5t-23 -25.5q20 -33 21.5 -59.5t-6 -54t-17.5 -59t-10 -70.5q-25 -10 -40 -31t-31.5 -39t-40 -31.5t-62.5 -9.5 q-10 -10 -17.5 -22.5t-15.5 -22.5t-21.5 -16.5t-35.5 -4.5q-12 -4 -16.5 0.5t-5.5 10.5t-5 10t-16 0q-18 4 -25.5 -1t-12.5 -14.5t-11.5 -17.5t-20.5 -8q-4 20 -19.5 31.5t-37 15.5t-44 7t-40.5 9q-12 41 -44 71t-60.5 60.5t-44 66.5t4.5 89q0 27 -15 39t-15 41 q18 25 19 51.5t0 53t3 52t29 48.5q0 12 -6 17t-14.5 9.5t-14.5 8.5t-6 14q0 29 9 43t22 31q-20 25 -27.5 58.5t-24.5 62.5q-31 -12 -49 -2t-34.5 23t-37 22.5t-55.5 -5.5q4 20 -6 28.5t-10 25.5q2 12 9 22.5t13.5 20.5t11.5 23.5t3 33.5q27 -10 50.5 -4t45 18.5t43 23.5 t47.5 13q18 25 25.5 58.5t11.5 69.5t7 72t14 67q25 -4 28.5 -16.5t0.5 -27t-5 -28t8 -19.5zM1051 969q16 -8 29.5 -12.5t31.5 -8.5q0 8 6 13.5t6 19.5q-8 -2 -20 -1t-23.5 1t-19.5 -2t-10 -10zM487 969q29 -12 57.5 -17.5t59.5 -13.5q4 18 2 39.5t-22 30.5 q-6 -14 -21.5 -17.5t-33 -4.5t-30 -3t-12.5 -14z" />
<glyph unicode="u" d="M563 969q-31 -6 -41 4t-26 16q6 -12 2 -16t-11 -4q0 -16 9.5 -21.5t20.5 -8.5t18.5 -9t1.5 -25q10 6 16 15.5t10 13.5q33 -31 45.5 -94.5t13.5 -136t-6.5 -141t-11.5 -107.5q-4 -12 -1 -17.5t8 -7.5t11.5 -3t8.5 -7q-20 -33 -16.5 -68t22 -66.5t47.5 -56t59.5 -34t58 1 t44.5 47.5h76q31 31 62.5 78t53 100t25.5 108.5t-21 104.5q6 27 22.5 41t27.5 35q-16 31 -36 59.5t-20 75.5q-31 4 -43 -5.5t-39 -9.5q-10 37 -27.5 55.5t-58.5 18.5q0 41 18.5 64.5t67.5 19.5v-41q10 0 14.5 2t14.5 2q6 6 4 12.5t-5 12.5t-5 13t6 18q25 0 43 4t36.5 8t41 7 t55.5 1q49 -37 66.5 -88t22.5 -109.5t6 -124t18 -131.5q-16 -4 -19.5 -20t-13.5 -33q20 -25 22.5 -61.5t4.5 -74.5t9 -70.5t38 -51.5q-10 -41 9 -64.5t47 -39t57.5 -27.5t41.5 -31q-20 -51 -49.5 -70.5t-64.5 -24.5t-75 -4t-81 -9q-20 31 -44 36t-49.5 3t-53 -1t-56.5 23 q-72 -41 -156.5 -57t-164.5 0t-144.5 67.5t-95.5 145.5q10 78 5 145.5t-31 124.5q35 31 33.5 72t-25.5 82q14 16 18 33.5t21 27.5q-2 14 -10.5 34t-13.5 39t-3 35.5t21 26.5q-25 41 -70 52.5t-80 -19.5q0 12 4 20.5t8 14.5t7.5 14.5t0.5 20.5q0 10 -7 12t-16 2t-19.5 -2 t-18.5 2q0 20 -4 21q-4 16 5 25.5t22.5 13.5t28 8t24.5 12q0 -20 6 -20q33 25 61.5 29.5t55 -4.5t52 -26.5t54.5 -37.5zM1192 928v41h-62q6 -23 18.5 -35t43.5 -6zM786 88q18 -2 41 4t39.5 16.5t22.5 24.5t-8 31q0 -20 -12.5 -29.5t-28 -14.5t-32 -11.5t-22.5 -20.5z" />
<glyph unicode="v" d="M1055 967q-12 -4 -33 0t-21 -11q4 -8 12.5 -8t17.5 4t18.5 9.5t15.5 5.5q0 27 -21 30q29 25 72 26t88 -5t83 -9t56 17q20 -47 17.5 -84t-17 -69.5t-37 -63.5t-41 -63.5t-27.5 -70.5t1 -85q-25 0 -35 -15.5t-22 -31.5q0 -37 16 -45q-4 -20 -22.5 -31.5t-28.5 -28.5 q-6 -31 -10 -64.5t-11.5 -64t-24 -57.5t-46.5 -41q2 -37 -6.5 -61.5t-20.5 -45t-26.5 -40t-22.5 -46.5q-78 -41 -131 -9t-87 94.5t-53.5 134t-29.5 112.5q-37 25 -46 72t-14.5 98t-18.5 97.5t-56 70.5q18 45 3.5 74t-39 51.5t-50 47t-29.5 61.5q-23 -8 -40 -5t-32.5 10 t-32 16t-36.5 13q16 10 31.5 14.5t28.5 8.5t24.5 14.5t19.5 32.5q31 -4 53.5 -6t45 -2h47t59.5 2q10 -12 14 -28.5t21 -24.5q12 6 10 11t-8 11t-12.5 13.5t-2.5 17.5q25 4 44.5 16.5t48.5 12.5q29 -16 58.5 -38t78.5 -22q-29 -41 -59.5 -79t-88.5 -48q-6 -25 -2 -40 t13.5 -25.5t19.5 -18.5t19 -18q-8 -33 -4 -65.5t18 -60.5t35.5 -49.5t48.5 -31.5v-86q43 2 84 20.5t70.5 52t45 79t7.5 98.5q25 -4 30 8t9 23q-8 41 -23.5 65.5t-31 46t-30 47t-20.5 70.5q8 4 19.5 10t21.5 7t17.5 -4t7.5 -23zM1229 944q4 14 -7.5 20.5t-27.5 6.5t-30.5 -4 t-16.5 -11q12 -14 35.5 -13t46.5 1zM723 580q-14 -4 -18.5 -19.5t1 -32t16.5 -29t28 -12.5q-4 25 -7.5 48.5t-9.5 44t-19.5 35t-35.5 20.5q0 -12 6 -17.5t14.5 -10.5t15.5 -10t9 -17z" />
<glyph unicode="w" d="M537 1004q-8 -10 -11.5 -28t0.5 -33t15.5 -22.5t33.5 3.5q12 -4 15.5 3t4.5 17t3 18.5t12 8.5q27 -10 25 -30.5t-16.5 -45.5t-33 -48.5t-22.5 -37.5q12 -20 14.5 -32.5t0 -25t-7.5 -26.5t-7 -37q4 -4 15.5 -7t11.5 -19q10 -4 15 4t5 18q14 -47 23.5 -90t50.5 -78 q33 25 45 66t20.5 86t16.5 88t31 73q-6 25 -14.5 36.5t-17.5 18.5t-20.5 14t-21.5 26q-4 29 15.5 40t37.5 27q35 -16 66.5 -7t61.5 18.5t56.5 7.5t51.5 -39q10 18 19 19t19.5 -4t22.5 -12t31 -3v-47q-37 -4 -47 -24.5t-12.5 -48.5t-5.5 -54.5t-27 -40.5q27 -27 38 -59.5 t18 -65.5t17.5 -62.5t38.5 -52.5q-20 -18 -18 -35.5t10 -36t14.5 -38t-6.5 -39.5q68 0 86 47q-4 10 -10 3t-20 -3q35 31 46 81t18 103t22.5 101.5t58.5 76.5q2 14 -6 18.5t-19.5 6.5t-20.5 6t-7 22q49 0 61 -20q10 6 16.5 18.5t8.5 26.5t0 26.5t-6 16.5q-6 -4 -20.5 -1 t-33 9t-37 16.5t-30.5 22.5q-2 12 4 16.5t13 6.5t11.5 7t-2.5 17q35 -16 73 -26.5t89 -14.5q4 -6 5 -16t3.5 -20.5t5.5 -17.5t13 -7q-16 -12 -33.5 -27.5t-29 -33t-9.5 -36t25 -36.5q-23 -53 -32 -111.5t-17.5 -117t-19.5 -115t-38 -105.5q4 -20 10.5 -34.5t22.5 -24.5 q-10 -16 -21.5 -27.5t-31.5 -11.5q14 -35 10 -73t-23.5 -68.5t-54.5 -50t-80 -17.5q-18 61 -80 80q12 37 0 64.5t-28.5 52t-29.5 50t-3 60.5q-10 6 -17.5 3t-13.5 -7t-10 -5t-6 9q-10 18 -5 26.5t13 15.5t14.5 18.5t-2.5 33.5q0 8 -5 10.5t-12 4.5t-13 5t-8 13 q-20 -12 -29.5 -32.5t-15 -47t-6.5 -57.5t-3 -64q-18 6 -21 -3t-4 -20t-4.5 -21.5t-17.5 -8.5q-4 -29 1 -46t5 -46q-20 -20 -39.5 -32.5t-39 -24t-38 -23.5t-36.5 -35q-59 41 -96 103.5t-59.5 135.5t-35 152.5t-21.5 156.5t-19.5 147.5t-28.5 126.5q-41 35 -81 70.5 t-61 84.5q25 18 58.5 34.5t70.5 27t73 10.5t67 -18zM422 950q10 -2 13 -12t5 -20.5t5.5 -19.5t15.5 -9q-6 70 43 43q0 20 12 31q-10 0 -14 6t-21 2q2 -20 -6 -21.5t-20.5 2.5t-22.5 7t-10 -9z" />
<glyph unicode="x" d="M752 98q-10 -4 -16.5 -8t-16.5 -4q-12 2 -12 -8v-22.5t-2.5 -20.5t-16.5 -2q0 -12 15.5 -11t15.5 -12q-25 -29 -58.5 -34t-71.5 1.5t-77 15.5t-74 11q-25 0 -47 -5t-41.5 -7t-38 0t-32.5 18q4 23 14 30t23.5 10t27.5 5t29 15q4 12 -1 16t-14.5 4t-17.5 1t-10 7 q4 12 14 19.5t19.5 14.5t15.5 16.5t4 25.5q23 -6 39 -3t29.5 8t23.5 9.5t19 -2.5q14 23 21 49.5t22 49.5q31 -2 48 8t28.5 25.5t15.5 35t6 37.5h65q33 33 32 76t-5 104q-12 6 -19.5 17.5t-14.5 20.5t-16 13.5t-24 -4.5q-2 10 -8 18.5t-12 18t-9 21.5t-1 29q-12 10 -33 9 t-31 9q2 41 -14.5 63.5t-40 37t-48 26.5t-36.5 37q-10 0 -24.5 -7.5t-28 -12.5t-24.5 -3t-13 23q-8 0 -9.5 -11.5t-1.5 -23.5q-31 0 -42 11t-14 27.5t-2 36t-5 38.5q27 27 61.5 39t72.5 15t75 1t72 -4q4 -29 -8.5 -35t-16.5 -16q14 -18 31.5 -34t21.5 -44q18 -4 21.5 8 t3.5 27.5t4 27t29 2.5q0 25 -20.5 29t-43.5 4q18 29 53 37t76 16q-4 -18 6.5 -25t26.5 -11.5t33.5 -9.5t25.5 -17q-6 -6 -7 -17.5t-1 -22.5t-1 -21.5t-7 -14.5q0 -10 8 -12t20.5 -1t25.5 2t22 -1q-6 -10 -16.5 -23.5t-19.5 -26t-13.5 -25.5t2.5 -24q49 -27 90 -23.5 t104 17.5q10 4 12 25.5t9 38.5q-41 49 -26 92t55 64.5t89.5 18.5t75.5 -46q18 33 49 37t67 -2t68.5 -15.5t55.5 -3.5q29 -23 28 -63q-35 -25 -77.5 -41.5t-81.5 -38t-70 -53t-39 -84.5h-65q-25 -47 -38.5 -93.5t-13.5 -97.5q-12 10 -21 8t-17.5 -11t-14.5 -21.5t-12 -18.5 q0 -12 6 -20t6 -27q23 14 50.5 22.5t43.5 -22.5q-16 -25 -12 -47.5t12 -56.5q12 -4 16.5 0t6.5 11t6 12t16 1q18 -37 44 -55.5t73 -32.5q0 -16 -8 -22.5t-17.5 -11.5t-14.5 -13t1 -29q14 -31 41 -30.5t53.5 2.5t48 -6.5t25.5 -53.5q14 6 22.5 6t13.5 -3t11 -8t19 -7 q-4 -10 -11.5 -16.5t-11.5 -11.5t-4 -13t8 -25q-39 8 -83 0t-95 -20t-109.5 -23.5t-125.5 -7.5q-29 18 -52.5 39t-64.5 25q16 41 32.5 65.5t41.5 63.5q-4 31 -14.5 43t-26 12t-35 -7t-41.5 -13q18 33 6 48t-34.5 15t-45 -13.5t-24.5 -37.5q0 -23 15 -32t34.5 -13t38 -6 t22.5 -8q-25 -10 -53.5 -42t-53 -54.5t-37.5 -19.5t-7 64zM981 618q-2 6 1 16.5t5 20t-1 14.5t-17 3q-4 -18 -9.5 -34t21.5 -20zM653 313q-2 -8 -5 -17t-3 -16.5t6 -12.5t25 -5q-2 8 4 15.5t12 15.5t7 15t-11 18q0 -16 -2 -18.5t-7 -0.5t-11.5 5t-14.5 1zM483 111 q-14 -4 -21 -5.5t-11.5 -0.5t-9.5 6.5t-15 11.5q-10 -16 0 -25.5t23.5 -10.5t25.5 5.5t8 18.5z" />
<glyph unicode="y" d="M850 965q-20 10 -39.5 10t-30.5 -10q6 -31 19.5 -38t30 -3t29.5 11t20 3q-6 -27 -33 -41t-58.5 -28.5t-58.5 -36t-33 -64.5q0 -16 6.5 -25.5t15.5 -15.5l18 -12t16 -17q-16 -70 4 -120t52 -92t62.5 -81.5t36.5 -87.5q63 6 103.5 37t60 74t20.5 92t-16 92q20 6 35.5 17.5 t29 26t28 25.5t34.5 17q-10 37 -28.5 77t-45 72t-60.5 50t-77 12v70q10 6 23.5 7t25 2t21.5 5t14 15q20 -10 26.5 -37t16.5 -47q23 10 35 18t23 8q0 23 -3.5 33t-25.5 10q31 27 78 42.5t94 15.5t89 -17.5t62 -54.5q16 0 12.5 7t-10 14.5t-8.5 14.5t21 7q27 0 45 -12.5 t33.5 -28.5t27 -36.5t21.5 -35.5q-84 -43 -146.5 -107.5t-108.5 -149.5t-80 -187.5t-60 -218.5q-33 -14 -47.5 -44t-22.5 -68t-13.5 -81t-16.5 -84t-33.5 -75.5t-63.5 -55.5q0 -16 4 -25.5t8 -17.5t6 -17t-4 -24q-33 -18 -51 -53t-32.5 -80t-27 -93t-29.5 -92t-44 -80 t-70 -52q0 -10 -4 -17.5t-8 -13.5t-6 -15.5t4 -25.5q-37 -37 -116 -55.5t-168 -18.5t-170 18.5t-124 55.5q-27 20 -38 49t-18 57.5t-18.5 56t-37.5 48.5q0 43 7 75.5t17.5 61.5t22.5 57.5t22 59.5q16 -6 29.5 4t24 17.5t18.5 6.5t14 -28q10 0 14.5 9t8.5 19.5t10 19.5t23 9 q37 -10 70.5 -27.5t58 -42t40 -59.5t15.5 -82q10 -16 23.5 -23t29 -11.5t33.5 -8.5t41 -14q-6 31 10.5 56.5t31.5 52t20.5 57.5t-21.5 74q33 10 38 -7.5t5 -50.5q14 6 25.5 20.5t22.5 26t22.5 10.5t27.5 -28q16 20 14.5 43.5t-9 46.5t-11.5 43t6 37h70q0 37 -20.5 63.5 t-40 51t-27.5 53t18 71.5q-23 14 -39 45t-30.5 62t-27.5 53.5t-30 22.5q-63 147 -122.5 283.5t-145.5 252.5h-98q0 27 -6.5 46.5t-14.5 38t-14 38t-6 45.5q14 6 20 1t8 -14t0 -20.5t-2 -21.5q20 14 53 37.5t65 35t58.5 -2t36.5 -70.5h113q0 14 -6 23.5t-13.5 18.5 t-11.5 21.5t2 34.5q31 10 75 12.5t87 -5t76 -26.5t43 -52zM711 909q0 23 8 27t18 14q-10 10 -35.5 12.5t-48.5 2.5q0 -16 7.5 -22.5t16.5 -10.5t18.5 -8.5t15.5 -14.5zM752 -571q0 23 10 25.5t33 2.5q-6 10 -5 25.5t3 30t0 26.5t-13 17q-10 -31 -29.5 -53.5t-39.5 -45.5 q-4 4 -9 6q-6 2 -6 -6q10 0 14.5 -6t8.5 -12t10.5 -10t22.5 0zM555 -739q0 -10 9 -19.5t20 -9.5q0 31 -5.5 42t-17.5 12t-30.5 -1t-45.5 4q0 -27 5.5 -33t14.5 -2.5t21.5 8.5t28.5 -1z" />
<glyph unicode="z" d="M926 999q10 -16 17 2.5t-3 36.5q66 8 122 10.5t97 -14t63.5 -56.5t18.5 -114q-37 -47 -74 -96t-65 -104q-33 0 -53.5 -12.5t-31.5 -34t-17.5 -48t-10.5 -55.5q-104 -49 -169.5 -142t-92.5 -198q27 -14 63.5 -12t74.5 5t77 2t72 -19q37 18 68.5 40.5t51 53t22.5 71.5 t-17 99q18 18 49 29.5t53 33.5q-10 -29 -5 -51.5t5 -50.5q35 0 35 39q37 -25 46 -72t3 -102.5t-18.5 -110.5t-16.5 -92q-18 4 -28.5 1t-17.5 -11.5t-14 -19.5t-18 -19q-18 8 -40.5 5t-44 -7t-42 -1t-34.5 27q-23 -18 -39.5 -21t-33.5 0t-41 4t-60 -7q0 29 -12.5 41t-26 19 t-25.5 17.5t-12 32.5q-18 -4 -32.5 -1t-26 6t-21.5 0t-21 -17q-4 -18 5.5 -24.5t26 -5.5t35.5 4t34 3q4 -16 14 -26t20.5 -19.5t18.5 -19.5t8 -25q-80 29 -146.5 29t-127 -2t-115.5 7t-111 56q14 84 56.5 140.5t91.5 105.5t96 101.5t72 126.5q43 20 75.5 49.5t61.5 63.5 t55.5 70t55.5 68q-8 8 -12.5 23.5t-6.5 31t-5 28t-11 16.5q-16 0 -31.5 -5t-29 -7.5t-21.5 2t-8 22.5q-29 -8 -76 -5t-87 -3t-59.5 -29.5t9.5 -85.5q-23 -10 -32 -29.5t-15 -41t-13.5 -43t-25.5 -35.5q-29 -10 -47.5 -6t-30.5 16t-23.5 26.5t-23.5 24.5q23 37 28 79t8 84 t14 84t48 79q39 0 58.5 4t29.5 31q43 -23 91 -27t96.5 -2t93.5 6t82 0q10 -10 10 -18.5t-10 -8.5zM637 63v35h-49q0 -16 16.5 -30.5t32.5 -4.5zM850 63q20 0 31.5 5.5t21.5 -5.5q0 10 -3 22.5t-23 12.5q6 -12 0.5 -16t-12.5 -5t-13 -3.5t-2 -10.5z" />
<glyph unicode="{" />
<glyph unicode="|" />
<glyph unicode="&#xa1;" d="M852 6q-29 8 -62.5 6t-56.5 15q-10 10 -19 40.5t-15.5 66.5t-10.5 66.5t-4 43.5q0 8 15.5 21.5t15.5 35.5q0 16 -9.5 29.5t-0.5 19.5q8 27 21 49.5t20.5 43t2 39t-33.5 36.5q29 37 38 85t-28 93q20 0 28.5 17.5t7.5 39t-11.5 40t-24.5 22.5q18 25 26.5 47.5t11.5 46t2 48 t-1 55.5q18 -12 29.5 -14.5t21.5 -1.5t22.5 6.5t34.5 9.5q-8 25 -1.5 39t17.5 22t26.5 13.5t25.5 13.5q-25 25 -53.5 24.5t-56 -10.5t-53 -22.5t-44.5 -12.5q-6 18 -5 28.5t6 19t13.5 14.5t16.5 18q-8 2 -14.5 9.5t-14.5 12.5t-20.5 8t-30.5 -1q-37 27 -35 59.5t16.5 66.5 t25.5 63.5t-7 47.5q4 25 21.5 34t36 16.5t31.5 20.5t9 46q18 4 49 3l62 -2t55.5 -3t30.5 2q16 -6 18 -16t2 -33q23 8 38.5 2t29.5 -20q8 0 6 3t-5 8t-5 12t4 15h49q4 -10 2 -16t-6 -12t-6 -12.5t2 -18.5q-8 -8 -12 -9t-10.5 1t-14.5 5t-22 3q0 -59 15 -105t23 -92 q-47 -18 -71.5 -50.5t-37.5 -71.5t-24.5 -80t-31.5 -74q14 0 32.5 -19.5t55.5 -19.5q0 -23 -7.5 -36t-13.5 -24.5t-8 -26.5t8 -40h78q-6 -16 2 -20t8 -21q-23 4 -36 1t-23 -8t-18.5 -11t-20.5 -11v-69q0 -8 5 -11t11 -4.5t12.5 -4.5t10.5 -9q4 -18 -2 -30.5t-15.5 -21.5 t-18.5 -17.5t-11 -20.5q-4 -29 9 -35t32.5 -6t39 -3t25.5 -26q-29 -29 -28.5 -68.5t0.5 -76.5q4 -8 12 -9t17 -1t17.5 -1t12.5 -9q-4 -41 -19.5 -72t-35 -56.5t-40 -49t-34.5 -50.5q-23 0 -42 7.5t-37.5 10.5t-35 -3.5t-30.5 -32.5q-8 0 -9.5 6t-1.5 12h-20q-8 8 -9 11.5 t2 4.5t8 4t9 11q-4 8 -12 9t-14.5 3t-8.5 7.5t4 19.5q-33 -6 -36 -21.5t6.5 -33t21.5 -35t8 -29.5q14 -4 20.5 2t10.5 12.5t9 10.5t20 -4q-6 -8 -3 -11.5t9 -8.5t9 -13.5t-5 -26.5zM881 1227q-14 0 -36 6t-22 -16q14 -14 33 -16.5t25 26.5zM940 1257q-14 -8 -31.5 -17 t-17.5 -32q29 0 43 9t6 40z" />
<glyph unicode="&#xa2;" d="M823 1020q6 10 12.5 4t12.5 -14q18 12 34.5 20t57.5 21q0 -23 -4 -43.5t-27 -20.5q6 -16 31 -19t47 -3q6 14 2 18t-10 5t-10 4t2 18q18 -4 19 8t14 22q10 -16 34.5 -25t65.5 -5q23 -47 61.5 -74t79.5 -49q-6 -35 1 -52.5t18.5 -32t19.5 -32.5t6 -55q-41 -10 -56 -48 t-22 -92q-23 12 -50 20.5t-56 17t-55.5 19.5t-46.5 27q2 25 -3.5 39.5t-12.5 27.5t-13 28.5t-4 38.5q-16 16 -45 20t-64 10q-10 -10 -14 -29.5t-17 -31.5q-10 14 -20 17t-22.5 1t-26.5 -4t-31 2q-6 -18 3 -24t5 -23q-6 -12 -18 -13t-12 -18q-12 -6 -16.5 -2t-5.5 9.5t-4 9.5 t-15 -2q-16 -23 -34 -56.5t-59 -44.5q6 -29 5.5 -48t-4 -37.5t-6.5 -38t-3 -48.5q0 -10 13.5 -10t25.5 -4q-18 -18 -14 -33.5t15 -31t21.5 -34t8.5 -42.5q53 0 71.5 -13.5t30.5 -48.5q6 20 20.5 30.5t32 17t35 12.5t29.5 18q12 -4 17.5 -13t9.5 -19.5t9 -21.5t17 -18 q6 0 13.5 6.5t12.5 15.5t4 18.5t-13 15.5q12 12 21 8t17.5 -15.5t12.5 -26.5t4 -28q14 2 20.5 14.5t12.5 26t17 22.5t34 7q-4 29 -10 68.5t10 64.5q23 -10 24 -23.5t-5.5 -31t-13.5 -39t3 -47.5q23 2 35 16t21.5 31.5t20.5 32t32 20.5q27 -16 43 -16t30.5 8t31 18.5 t42.5 14.5q-29 -35 -19.5 -77t27.5 -71q-23 -53 -53.5 -92t-65 -71.5t-73.5 -60.5t-80 -56q-23 12 -47.5 10t-47 -5t-42 -3t-33.5 14q-12 -12 -19.5 -23.5t-19.5 -23.5q-84 41 -157.5 65.5t-161.5 59.5q6 29 -15.5 65.5t-54.5 42.5q-6 37 -20.5 62.5t-32 46t-32.5 42 t-24 50.5q12 37 12.5 79t3.5 85t14 82t46 67q0 16 -9 22.5t-5 22.5q51 41 84 90.5t69.5 90.5t92 65.5t151.5 18.5q-8 -4 -12 -14.5t-4 -16.5q23 -16 49.5 -16t36.5 16q0 12 -9.5 15t-19.5 4t-21.5 5.5t-13.5 16.5zM1126 901q0 23 -14 36t-33 19q-10 -18 1 -39.5t46 -15.5z M637 893q-4 6 -6 21.5t-25 9.5q0 -14 -6 -21.5t-14 -12.5t-16.5 -10.5t-10.5 -17.5q8 0 8 -22q12 0 23.5 -1t15.5 -8q14 27 33.5 42.5t41 27.5t42 22.5t39.5 24.5q-53 6 -77.5 -13t-47.5 -42zM1198 823q0 25 -14.5 33t-26.5 14q0 -23 5 -38t36 -9zM1073 164q0 -41 23 -41v18 l3 -6t9 -12t18 0q6 8 19.5 20.5t24 23.5t12.5 22.5t-15 21.5q-24 -47 -94 -47zM698 133q12 -6 27.5 -21.5t29 -24.5t23.5 -4t15 40q-18 -2 -26.5 0t-16 8t-16.5 14.5t-25 18.5q7 -21 -11 -31z" />
<glyph unicode="&#xa3;" d="M197 227q0 6 4 6t4 -6q16 -4 20 4.5t4 19.5t1 22.5t12 15.5q33 2 49 13t25.5 25.5t18.5 32t27 33.5q14 0 16.5 -11t2.5 -26q6 10 21.5 11.5t29.5 3.5t21.5 9t-0.5 32q12 -8 22 -16.5t10 -28.5q16 10 18.5 26.5t4.5 30.5t10 23.5t39 5.5q0 -25 -2 -48.5t10 -37.5 q16 20 34.5 20t36 -2t29 4t15.5 39q-20 16 -26.5 37.5t-9.5 44t-9 43t-27 33.5q-10 -4 -17 -12.5t-14.5 -16.5t-15.5 -15t-22 -7q-12 20 -24.5 33.5t-20.5 25.5q-12 -16 -24.5 -15t-26 7t-31 10t-41.5 -2q-4 25 3 37t16 21.5t17.5 19.5t8.5 28q16 -6 32.5 -3t32 12.5 t27.5 21.5t22 23q-6 49 -30.5 70.5t-55 31.5t-64.5 19.5t-61 35.5q0 27 15.5 43.5t27.5 36.5q10 -4 9.5 -10t-3.5 -13t-5.5 -15.5t8.5 -14.5q29 12 41 37.5t41 40.5q-8 27 -4 44t4 46q18 0 27 -7t24 7q-6 29 -3 47t9 34.5t13 35t7 49.5q39 0 57.5 20.5t39.5 38.5 q14 -4 17 -20.5t9 -30.5q20 0 26.5 7t25.5 -7q14 27 28.5 47.5t7.5 67.5q29 16 54.5 17t49 -1t47 0t50.5 19q35 -6 47 -28t31 -34q23 -8 27 6.5t10 28.5q27 6 42 2t27.5 -11.5t24.5 -14.5t29 -3q-10 -6 -12.5 -11t-1.5 -10t3 -14.5t2 -25.5q10 -4 13.5 3t3.5 16t2 19.5 t8 14.5q23 -10 39 -25.5t31.5 -31t33 -29.5t44.5 -20q16 -61 9 -106.5t-33 -73t-65.5 -37t-85.5 -3.5q-4 29 -11 53.5t-16 50t-18.5 55.5t-15.5 71q-16 0 -24.5 -6t-15.5 -12.5t-15 -8.5t-25 8q-10 10 -11 17.5t0 14.5t1 16.5t-6 23.5q-23 -25 -52.5 -23.5t-57 3.5t-49 -5.5 t-28.5 -46.5q-12 6 -26.5 9.5t-14.5 17.5q-14 -10 -25 -13t-21.5 -7.5t-19.5 -13.5t-15 -29q-25 0 -25 28q-16 -27 -36.5 -54.5t-35 -59t-16.5 -66.5t16 -74q29 8 68 13.5t71.5 0t50 -22.5t3.5 -54q33 -6 35 13.5t2 41.5q23 -4 40 -3t32.5 0t31.5 -8t37 -26 q8 -47 -8.5 -65.5t-46 -23.5t-68.5 -1t-75 4t-64.5 -11t-36.5 -44q0 -16 6 -24.5t14.5 -16.5t12.5 -19.5t2 -35.5q20 14 27.5 10t12.5 -13.5t12 -18.5t28 -5q12 6 8 13t-10.5 15.5t-9.5 16.5t12 18q18 -4 29.5 -13t17.5 -21.5t11 -26.5t11 -27q12 0 17.5 6.5t8.5 12.5t8 9 t17 -3q0 29 -7 27t-25 -9q-8 35 6 52.5t53 9.5q10 -16 13 -31.5t5.5 -29t5.5 -26.5t13 -26q-8 -41 -54 -45t-87 17q6 -51 -2.5 -74t-34.5 -49q14 -27 30.5 -40.5t22.5 -37.5q-29 -43 -23.5 -82t30 -73t58 -61.5t60.5 -47.5q27 0 27 26q12 -41 33.5 -53t48 -7t55 21.5 t56.5 29.5t52.5 18.5t42.5 -9.5q35 29 48.5 71t21.5 95q39 2 49 25.5t8 51.5t-9 54.5t-3 36.5q23 -10 32 -27.5t15 -34t11.5 -27.5t19.5 -7q-4 -16 -6 -40t-1 -45.5t9 -40t24 -24.5q-29 -23 -43 -58.5t-27 -69t-36 -58.5t-68 -25q-16 -37 -52 -47t-80 -12t-91 -2t-86 -16 q-41 16 -89 46.5t-98 51t-97.5 17.5t-83.5 -56q-53 -6 -104.5 -18.5t-103 -19.5t-98.5 -4t-90 26q6 16 12.5 15t11.5 -7t12 -13.5t17 -3.5q8 0 9.5 10.5t1.5 24.5q-37 0 -53.5 21.5t-26.5 50.5t-20 58.5t-33 45.5zM434 174q-4 6 -11 7t-14.5 1t-13.5 2t-6 9q6 20 13.5 33.5 t13.5 25.5q-27 20 -49.5 10t-28.5 -35q8 -16 21.5 -33.5t26.5 -27.5t28.5 -12t27.5 10q0 -6 -1 -14.5t0 -15.5t5.5 -11t14.5 0q8 12 24.5 22.5t34 14.5t35.5 -1t35 -22q14 20 8 50t2 57q-72 0 -139 45q-14 -23 -23.5 -48.5t-3.5 -66.5z" />
<glyph unicode="&#xa4;" />
<glyph unicode="&#xa5;" d="M776 1268q8 -12 11.5 -30.5t1 -36t-10.5 -31t-24 -13.5q8 -4 18 -8t16.5 -9t5.5 -11.5t-18 -14.5q4 -10 18.5 -11t24.5 -1q10 27 23.5 43t28 29.5t27.5 31t24 47.5q-16 8 -19.5 2t-4.5 -14t-3 -15t-16 -1q-29 10 -42.5 34.5t-17.5 59.5q23 10 40.5 20.5t39.5 16.5 q2 18 0 30.5t-7 22.5t-9 20.5t-4 26.5q23 0 50 10.5t66 20.5q4 16 -4 21t-4 22q16 -8 33.5 -13.5t33 -11.5t27 -17t17.5 -32q-16 0 -24.5 -6t-18.5 -6q16 -35 37.5 -58.5t25.5 -66.5q20 14 38 20.5t31 16.5t22.5 27.5t11.5 52.5q14 -16 32.5 -17.5t31.5 9t18.5 31t-9.5 44.5 q12 -8 17.5 -3t5.5 9q18 -2 20 -21.5t2 -43t5.5 -42t29.5 -18.5q12 35 28.5 57.5t16.5 45.5q18 -18 64 -8q-4 -10 -7 -16.5t7 -6.5q-16 -27 -28.5 -48.5t-29.5 -43.5q6 -14 20.5 -18.5t29 -7.5t23.5 -11t7 -31q-27 14 -36 9t-12 -12t-4 -12t-13 9q-10 10 -23.5 6t-42.5 0 q-6 23 3 30t26 7q-10 18 -30.5 20.5t-40 -6t-37 -22.5t-21.5 -29q0 -16 9 -26t3 -39q-23 23 -46 21.5t-40.5 -16.5t-24 -42t8.5 -57q-33 8 -53.5 -9.5t-33 -49t-17.5 -70.5t-5 -76q-43 -14 -73.5 -56t-48 -94.5t-23.5 -108t-2 -93.5q6 -27 -2 -38.5t-19 -27.5 q14 -16 17.5 -38.5t2.5 -47.5t-2 -48.5t3 -39.5q14 -16 31.5 -19.5t34 -5.5t27.5 -7t11 -27q23 2 37 5t28.5 3t29 -1t36.5 -7q18 23 21.5 41t2.5 38.5t-1 43t14 53.5q16 -4 32.5 -15.5t53.5 -7.5q-12 -33 -15 -58.5t1 -50t10 -51t12 -59.5q10 -2 36 7t50.5 12.5t43 -8 t16.5 -54.5q33 -10 39 8.5t14 34.5q10 -10 23.5 -18.5t26.5 -17.5t23.5 -20.5t12.5 -29.5q-4 0 -5 -9t-1 -14q-45 0 -80 1.5t-47 33.5q-47 -12 -91 -30.5t-81 -41t-64.5 -51t-38.5 -65.5q-25 35 -67 65q-33 -29 -80 -22.5t-80 22.5q-6 -23 -10 -27.5t-8 -4.5h-8.5t-10.5 -11 q-10 0 -16 6.5t-11.5 13.5t-10.5 14t-13 9q-49 -23 -95 -23.5t-93 5.5t-98.5 13t-114.5 5q-18 29 -37 61t-31 71q14 -6 17.5 -1t5.5 12t5 12t15 -1q27 -23 0 -43q25 -4 32 5t6 23.5t-7 31t-6 26.5q12 -2 19 3t12.5 11.5t12.5 10.5t21 -2q-6 -16 1 -19.5t16.5 -3.5t16.5 -2 t3 -18q33 4 43 31.5t0 54.5q59 -16 78.5 16.5t23 83.5t5.5 103.5t26 74.5q-18 35 -14 61.5t4 69.5q-6 45 -32.5 96.5t-55.5 98.5t-48.5 87t-8.5 62q-66 59 -111 136t-100 149q-18 -8 -39 -5t-38.5 12t-31.5 20.5t-22 17.5q-6 0 -8.5 -6t-6.5 -17q-12 10 -29.5 18.5 t-23.5 24.5q6 6 7 2t1 -10q-6 25 4 41.5t26.5 28.5t35 24.5t28.5 32.5q10 -18 12.5 -39.5t18.5 -27.5q10 18 20.5 13t19.5 -15.5t20.5 -18.5t25.5 6q6 -14 8 -27.5t6.5 -22.5t16.5 -12t37 5q0 16 -6.5 24.5t-2.5 18.5q12 2 24.5 -1t24 -4t18.5 5t7 29q31 -2 58.5 -10.5 t51 -9.5t41 11.5t25.5 51.5q53 -27 66.5 -69t13.5 -91q-29 -6 -39 5t-28 17q-10 -6 -16.5 -17t-6.5 -34q14 -20 23.5 -23t18.5 -1t20.5 5t27.5 -3zM467 106q23 0 22 -30q18 -4 24.5 5t27.5 5q-6 18 0 24.5t15 9.5t16.5 8t5.5 22q-23 0 -35.5 2t-22.5 14q-6 -4 -7 -13.5 t-2 -19.5t-3 -18.5t-10 -8.5v35h-21q0 -10 -7 -17.5t-3 -17.5zM965 1407q0 8 6 8t16 -3t21.5 -6t23.5 1v49q-14 -4 -21 -5t-14.5 0t-16.5 3t-28 2q4 -16 3.5 -30.5t9.5 -18.5zM1055 1253q0 -16 -3 -27.5t-5.5 -21.5t1 -19t13.5 -20q2 10 7 26.5t8 33t4 29t-5 14.5 q0 -15 -20 -15zM623 1077q20 -10 35.5 -3t15.5 40q-18 12 -31.5 31.5t-25 41t-25.5 40t-35 26.5q2 -27 14.5 -44t25.5 -34.5t22.5 -39t3.5 -58.5zM606 172q-2 -29 6.5 -38t23.5 -11t34.5 2t38.5 4q-4 29 -22.5 39t-37.5 27q12 -23 -7.5 -23h-35.5zM1008 150q8 -8 15 -8.5 t14 2.5t15.5 5.5t22.5 0.5q-6 23 -17 34t-40 11q4 -16 -3 -22.5t-7 -22.5zM797 172h-43q-4 -16 4 -24.5t17 -8.5t16.5 8.5t5.5 24.5zM879 166v-37h86q2 18 -7.5 29.5t-24.5 15.5t-30.5 2t-23.5 -10zM922 920q31 -4 44 -21.5t9 -56.5q-14 4 -28.5 6t-28 5t-23.5 12t-18 28 q8 2 18 2h17.5t11.5 5.5t-2 19.5zM1118 881q4 12 17.5 15t30 1t31.5 -4t26 0q-8 -16 -22.5 -20.5t-31 -2.5t-31 6.5t-20.5 4.5zM629 653v-65q-29 0 -49.5 6t-14.5 45q21 14 64 14zM811 881q0 12 -4 20t-7 16.5t-4 17.5t3 23q78 20 140 16.5t117.5 -10t106.5 -6.5t111 27 q10 -20 28.5 -30.5t24.5 -34.5q2 -10 -2 -13.5t-9 -6.5t-10.5 -6t-5.5 -13q-2 -10 6.5 -11.5t17.5 -1.5t15.5 -5t-0.5 -21q10 20 22.5 32.5t16.5 32.5q29 4 43.5 -6t34.5 -20q0 -27 -10 -44.5t-20.5 -33t-18.5 -34.5t-2 -50h-78q14 16 -1 20t-38.5 -2t-45 -18t-19.5 -27 q-74 10 -113 5t-45 -58h-51q2 12 11 16t18.5 9.5t13.5 13.5t-4 27q-35 0 -79 3t-85 -1.5t-71 -21.5t-32 -58q-16 4 -30.5 8t-34.5 4q0 20 9 37.5t30 28.5q-8 0 -29.5 7t-45 11t-44 -1t-25.5 -30q-29 -4 -43 6.5t-8 44.5q-10 -12 -27.5 -15t-35 -5t-29.5 -8t-12 -23 q-10 -4 -18.5 0t-15.5 8.5t-12 4.5t-7 -13q-14 27 -36 47.5t-44.5 39t-43 40t-32.5 49.5q10 12 27.5 17.5t35 11.5t29.5 16.5t12 32.5q25 -4 43.5 -12t38 -17.5t43 -18.5t58.5 -17q2 16 -3.5 24t-13.5 13.5t-18 7.5t-19 8q41 23 101.5 38t134.5 1q0 -25 -1 -44.5t-11 -35.5 q-23 10 -37.5 16t-28.5 11.5t-28.5 7.5t-36.5 6q-10 0 -12.5 -6t-3.5 -15.5t-2 -18.5t-9 -13q2 12 28.5 6t65.5 -13.5t83 -9t83 16.5zM877 893q8 -18 18 -27.5t23.5 -12.5t28 -5t28.5 -6q4 39 -9.5 56t-43.5 22q6 -14 2 -19.5t-11.5 -5.5h-17.5t-18 -2zM1223 893 q-10 -2 -25.5 0t-32 4t-30 -1t-17.5 -15q6 0 20.5 -4.5t31 -6.5t31 2.5t22.5 20.5zM629 510q14 -2 19 6t7 20.5t4.5 27t8.5 24.5q35 4 51 -8.5t41 -18.5q2 14 12 22.5t22.5 16.5t24.5 16.5t19 22.5q20 -10 38.5 -19.5t32.5 -19.5q-14 -12 -22 -29.5t-14.5 -36t-13.5 -36 t-21 -27.5q2 -10 8 -14t10 -6t4 -6.5t-10 -12.5h72q-4 25 0 59.5t14 69.5q31 -10 56.5 -7t49 8t48 7t55.5 -8q12 0 11 4t-5 10.5t-8 16.5t2 22q6 -14 12 -18t13.5 -3t19.5 4t33 3q4 -12 5 -24.5t5 -21.5t16.5 -15.5t38.5 -1.5q-10 -39 -3 -68t23.5 -46t38 -25.5t44.5 -4.5 q0 -18 -9.5 -24.5t-24 -8.5t-29.5 -2t-28 -4q0 -20 8.5 -26t4.5 -27q-12 -4 -18.5 -1t-10.5 9t-8 12.5t-14 6.5q-41 -39 -88.5 -40t-98.5 8t-104 14t-107 -21q-23 18 -56.5 28.5t-70.5 10.5t-69.5 -10.5t-51.5 -28.5q-41 18 -81.5 24t-80.5 9.5t-81 8.5t-82 23v43t4 41.5 t15.5 30.5t33.5 14q0 -25 8 -31t20.5 -7t29 -1t32.5 -12q25 -4 33 9.5t18 29.5q-10 4 -29.5 9t-41 7t-39 2t-19.5 -6q0 8 8.5 25.5t20.5 38t28.5 39t32.5 28.5q25 -6 36.5 -21t22.5 -27.5t26.5 -16.5t46.5 12q-10 -25 -19.5 -50.5t6.5 -39.5q18 -4 27.5 2t23.5 10 q2 10 -2 14.5t-9 7.5t-10 7t-5 10q-4 12 -1 18.5t9 10.5t12 9t6 15q12 2 9.5 -7t-8 -21t-5 -23.5t16.5 -13.5z" />
<glyph unicode="&#xa6;" />
<glyph unicode="&#xa7;" />
<glyph unicode="&#xa8;" d="M1286 1450q14 -4 23.5 1t15.5 11t10 8.5t13 -10.5q0 -41 -2.5 -71.5t-3.5 -59.5t-3 -59.5t-2 -71.5q-27 8 -58.5 -5t-65 -26.5t-69.5 -16.5t-69 28q-16 0 -21 -14.5t-28 -14.5q0 23 -17.5 31t-33.5 8q-18 66 -8 123t37.5 101t66.5 72.5t79 36t76.5 -9t59.5 -61.5z M551 1149q-68 8 -114 35.5t-77 75.5q0 43 31 59q0 14 -15.5 21.5t-15.5 29.5q39 37 69 78t83 63q23 0 32 -11t17 -19q14 8 25.5 17t23 17.5t25.5 10.5t37 -4q72 -43 86 -98.5t-10.5 -108.5t-79 -98t-117.5 -68z" />
<glyph unicode="&#xa9;" />
<glyph unicode="&#xaa;" d="M1106 965q10 -16 22.5 -34t16.5 -44q10 -2 15 1t10.5 5t9.5 2t10 -8q6 -18 2 -39t-6 -39t4 -31.5t31 -19.5q-23 -49 -22 -95.5t22 -105.5q18 -2 26 0t13.5 7t11.5 12.5t18 15.5q-2 -31 -14 -51.5t-27.5 -36t-30 -32.5t-20.5 -42q-2 -12 4 -37.5t15.5 -55.5t19.5 -57.5 t18 -43.5h76q-2 -10 3 -14.5t9.5 -8.5t7.5 -11t-3 -24h-58q-20 -37 -56 -66.5t-80 -47t-92 -17.5t-93 23q-47 -18 -90 -37t-86 -39q-18 6 -29.5 15t-22.5 26q-10 -10 -24.5 -23.5t-26.5 2.5q-16 14 -7 14.5t17 14.5q-16 12 -30.5 10t-26.5 -9t-22.5 -17.5t-22.5 -12.5 q-35 27 -78 58.5t-77.5 70.5t-54 83t-7.5 96q-8 10 -16.5 15t-10.5 21q0 27 9.5 42.5t18.5 30.5t15 33.5t0 51.5q23 6 39.5 19.5t30.5 28t28.5 26.5t34.5 18q0 20 -9 33.5t-9 32.5q-53 16 -71.5 55t-11.5 82t35 81t66 52q10 4 10.5 14.5t0.5 20.5q74 14 141.5 21.5t135 7.5 t138 -10t150.5 -33zM715 965q-2 6 -2 10t-6 4q-16 -16 0 -35q23 6 35 13.5t30 -13.5q16 16 8 30.5t-28 14.5q-8 -8 -17.5 -13t-19.5 -11zM1014 918q2 14 -3 20t-13.5 9t-17.5 6t-11 12q-4 -29 12.5 -34t32.5 -13zM827 795q29 6 39.5 -7.5t10.5 -37.5q-10 -10 -25.5 -10.5 t-32.5 3.5q-8 6 -8 9.5t2 6.5t2 7t-6 12h-57q0 -23 11 -32t19 -27q-12 -2 -22 -11.5t-19 -21.5q20 0 24.5 -2t-3.5 -18q16 12 38.5 14t46 2t43 1t30.5 9q-18 12 -19 51q12 0 29.5 -2t31 -1t21.5 9.5t4 28.5q-47 4 -87 20.5t-73 37.5v-41zM733 758q-6 0 -6 10q2 10 14 10 q0 33 -34 37q2 -4 4 -18.5t4 -26.5t6 -17t12 5zM707 657q6 6 7 15.5t-1 18.5t-8.5 15.5t-14.5 4.5q0 -18 -1.5 -36t18.5 -18z" />
<glyph unicode="&#xab;" />
<glyph unicode="&#xac;" />
<glyph unicode="&#xad;" d="M276 625h85.5t91.5 24q4 -8 13 -17t13 -16q31 23 52.5 24t40 -1t37 0t42.5 29q53 -25 101.5 -18t113.5 28q35 -16 73 -12t79 36q14 -27 30.5 -33.5t35 -1.5t36 20t33.5 32q6 -4 11 -12.5t10.5 -14.5t11.5 -8t16 4q4 4 -3 14.5t-5 22.5q16 2 22.5 -3t16.5 -7l-4 -4 q-2 -2 -5 -5.5t-7 -5.5q12 4 23 2t22.5 -2t21.5 5.5t19 21.5q4 -8 10 -16.5t8 2.5q6 -14 3 -17.5t5 -19.5q20 -8 41 6q10 -23 14.5 -41t12.5 -35q-27 -31 -52.5 -45t-53 -21.5t-58.5 -11.5t-66 -16q-16 18 -31.5 23.5t-32 3.5t-35.5 -10.5t-44 -16.5q-27 20 -57.5 18 t-71.5 -22q-31 23 -67.5 23.5t-74.5 -2.5t-75 -3t-68 23q-16 -18 -38.5 -19.5t-47 3t-50 9.5t-48.5 3q-12 12 -5 15t3 11q-16 -2 -13 -13t-1 -26q-18 6 -45 5.5t-48.5 4.5t-35 22.5t-5.5 60.5zM547 543q18 16 27.5 21t23.5 5q0 14 -4 17.5t-8 2.5t-8.5 -4t-6.5 1q6 6 15 12 q0 10 -4 12t-8.5 2t-8.5 1t-4 10q-8 -16 -24.5 -30.5t-6.5 -37.5q4 4 6.5 3t10.5 -15zM1008 594q-14 10 -41 11t-33 -25q16 4 33.5 12t40.5 2z" />
<glyph unicode="&#xae;" />
<glyph unicode="&#xb0;" />
<glyph unicode="&#xb1;" />
<glyph unicode="&#xb2;" d="M788 625v-39q-23 4 -40 -2t-35 -11q14 23 27 37.5t48 14.5zM575 76q-43 -4 -75.5 -2t-69.5 2q6 14 27.5 25.5t45 14.5t44 -5t28.5 -35zM506 1284q2 0 2 -11t-4 -25.5t-11.5 -25t-19.5 -8.5q0 -4 3 -9t3 -9q18 4 26.5 14.5t12.5 19.5t11.5 16t25.5 7q-16 0 -17 15.5t8 36 t26.5 41t39.5 32.5q18 0 19.5 -10t5.5 -20q41 47 106 69q0 -16 -5 -20t-1 -19q12 -4 17.5 -2t5.5 9.5t-1 15.5t-1 16q31 -2 57.5 1t50 4t46 -2t46.5 -17q14 -23 0 -41.5t-18 -46.5q-18 -2 -45 -2t-51.5 -5t-44 -16.5t-23.5 -38.5q-53 8 -90 -8t-64.5 -45t-50 -64.5 t-47.5 -64.5q-43 10 -74.5 3t-70.5 -23q0 43 8 74.5t22.5 58t31 53.5t32.5 59q6 2 10 -4t9.5 -11t8.5 -7t5 10zM606 190q10 0 7 -7t-7 -7q-4 -14 -2 -21.5t6 -11.5t9.5 -9t5.5 -13q-18 0 -22.5 -13.5t-14.5 -19.5q29 -10 58.5 -22.5t47.5 10.5q-6 14 -8 22t-3 16.5t-2 17.5 t-5 26q25 2 51.5 7t52 5t49 -10t41.5 -39q-23 0 -55.5 5t-71.5 -5v-33q12 -6 28.5 -12t32 -6t28 7t14.5 25q14 -16 31.5 -20t37 -2t42 3t44.5 -7q-2 20 -10 26.5t-18 5t-24.5 -4.5t-28.5 -1q2 12 -3.5 17.5t-12.5 10.5t-12 10t-3 18q25 -12 42 -11.5t36.5 5t44 7.5t65.5 -1 q4 -18 9.5 -26.5t-9.5 -22.5q10 -16 26.5 -19.5t31.5 -13.5q12 8 9 14t-10.5 13.5t-12.5 15.5t1 20q37 16 85 20.5t85 -9t53.5 -45t-10.5 -85.5q-29 -4 -52 -7t-46 -7t-47.5 -11t-54.5 -20q-47 18 -107.5 18.5t-107.5 -18.5q-12 0 -36 9.5t-49.5 15.5t-48 3t-28.5 -28 q-20 29 -49 20t-54 -20q-29 25 -58.5 26t-60 -6t-59 -15.5t-53.5 -4.5q-31 6 -48.5 22.5t-31.5 38t-27.5 44t-37.5 41.5q-4 35 11 63.5t32.5 57t28.5 59.5t-3 72q43 23 75 55.5t61.5 67t60 68.5t67.5 61q115 10 208 48t188 77q18 29 47.5 47t57.5 38.5t48.5 49t22.5 78.5 q2 6 9 7t13 1t11.5 2t5.5 10q-2 8 -9.5 7t-14.5 -5t-15 -5t-13 9q16 53 -2 97t-53 82t-76 71t-69 64q4 8 14 10t20.5 5t17.5 9t5 21q-4 4 -13 6t-18.5 6t-15.5 12t-4 25q25 6 39 -1t25.5 -14.5t21.5 -11.5t27 8q0 -41 -19 -49q12 -6 19.5 -15t13.5 -19.5t14 -18.5t23 -10 q14 2 16 6t1 9t-4 13.5t-1 20.5q14 0 23.5 -5t17.5 -9.5t18.5 -6.5t28.5 2q-10 -41 11.5 -77.5t64.5 -47.5q12 -33 14 -70.5t4 -74.5t8.5 -69.5t24.5 -55.5q-37 -8 -52.5 -25.5t-21.5 -44t-9 -58.5t-13 -68q-23 0 -35 -11.5t-45 -7.5q-8 -37 -29.5 -52.5t-48.5 -24.5 t-50.5 -21.5t-35.5 -44.5q-20 -4 -17 12t-3 31q-43 -18 -76 -37t-67 -34t-71.5 -28.5t-86.5 -19.5q-12 -6 -17.5 -19.5t-8.5 -29t-7 -30.5t-10 -28q-29 14 -45.5 4t-27.5 -29.5t-21.5 -42t-26.5 -34.5q4 -10 9 -25.5t12 -30t17.5 -19.5t24.5 7zM713 573q18 4 35.5 10.5 t39.5 2.5v39q-35 0 -48 -14.5t-27 -37.5zM1210 121q0 -45 43 -45q2 12 7.5 20t8.5 13.5t2 9.5t-11 8q2 -6 -3.5 -7t-12.5 0t-17.5 2t-16.5 -1zM430 76q37 0 69.5 -2t75.5 2q-8 27 -28.5 35t-44 5t-45 -14.5t-27.5 -25.5zM1260 127q10 -4 11 -8t-2 -9.5t-8.5 -13.5t-7.5 -20 q-43 0 -43 45q6 2 16.5 1t17.5 -2t12.5 0t3.5 7z" />
<glyph unicode="&#xb3;" d="M932 1405q0 10 6 14t6 15q41 -23 81 -39.5t89 -26.5q-25 18 -16.5 33.5t27 19.5t35 -8t5.5 -45q6 14 11.5 11t11.5 -12t12 -21.5t17 -16.5q-10 -20 -24.5 -33.5t-30 -27t-26 -28.5t-10.5 -40q-49 -10 -90 -55t-51 -115q-20 0 -33.5 -6t-23.5 -14.5t-21.5 -16.5t-25.5 -12 q18 -41 34.5 -66.5t16.5 -64.5q29 0 50.5 19.5t2.5 58.5q96 0 117 -51q-20 0 -26.5 5t-26.5 -5q-10 -16 0 -24.5t22 -11.5t17.5 -4t-13.5 -1q0 -10 8.5 -11.5t18.5 -1.5t16 13.5t-4 13.5q14 14 26.5 12t25 -12t24.5 -22.5t27 -16.5q-4 -10 -17.5 -12t-27 -2t-23.5 -1 t-10 -12q41 -37 78 -77q0 2 2 6l4 4t8 2q0 14 -7 23.5t-13.5 17.5t-7.5 16t14 23q57 -39 79.5 -112t17.5 -155.5t-32 -164.5t-65 -140h-25q0 -29 -31 -51t-59 -51q-10 0 -7 -14.5t-8 -24.5q-10 -10 -32.5 -7t-32.5 -5q-18 -10 -24.5 -33t-26.5 -33q-68 -29 -131.5 -71.5 t-141.5 -71.5q-47 -18 -94 -48t-86 -30q-10 -4 -13 -3t-3 5t4 10h-30.5t-46.5 3t-53.5 8.5t-51.5 15.5q10 41 17 68.5t48 48.5q-10 -20 -8 -37t-19 -27q14 -14 31 -15t34 0t33.5 -2t31.5 -22q10 18 26.5 24.5t26.5 26.5q-10 14 -22.5 16.5t-25 2.5t-23.5 3t-21 17 q-10 -10 -11.5 -21t-1.5 -30q-4 0 -9 5t-10 10.5t-10 5.5t-10 -9q-10 4 -9 11.5t5 14.5t10.5 14.5t6.5 11.5q49 10 89 18t73.5 22.5t63.5 35t58 55.5q10 -10 21.5 -24.5t32.5 -4.5q29 23 54 44.5t36 60.5q20 0 44.5 -3.5t45.5 15.5q-10 10 -11 22.5t-1 30.5q33 4 66.5 20.5 t61 37t48 43t30.5 40.5q0 10 2 11.5t5.5 -0.5t8.5 -6.5t9 -4.5q-10 20 -11 36t2 31t6 30.5t3 33.5q10 0 20.5 6.5t20.5 6.5q10 41 -4 66.5t-37 35.5q14 20 13 35.5t-10 32t-18.5 35t-9.5 43.5q-25 0 -45 9t-39.5 18t-39 14.5t-44.5 -5.5q-49 31 -88 23t-74.5 -29.5 t-73.5 -42t-87 -16.5q-4 -14 -13.5 -24.5t-16.5 -18.5t-11 -16.5t0 -16.5q-18 18 -42 28.5t-73 10.5q10 18 10 30.5t-10 35.5q39 49 83 91t88 85t84 88t69 98q33 0 51 16.5t31.5 37t29 39t43.5 24.5q0 18 -8 29.5t-18 20.5t-18.5 20.5t-8.5 31.5q-78 10 -127 5t-80 -44 q-10 14 -25.5 22.5t-31.5 14.5t-32.5 12.5t-26.5 16.5q0 10 16 11t37 1q-18 57 -90 37q-6 -14 -3 -20.5t9 -9.5t12 -7t6 -12q-18 4 -33.5 -5.5t-28.5 -19.5t-26.5 -17t-27.5 3q0 8 4 14t7 13.5t5 18.5t-4 30q31 -10 42 4t11 37q39 -10 71 -7t57.5 6t45 0t33.5 -28 q29 20 44 19t26.5 -8t23.5 -14t37 3q14 -25 25.5 -36t21.5 -17t17.5 -13.5t11.5 -21.5q20 18 15 38.5t-15 49.5zM1049 1251q14 4 21 5t11 0t11.5 -3t21.5 -2q4 8 -7 13.5t-25.5 5.5t-25.5 -5.5t-7 -13.5zM997 1174q-20 10 -28 26.5t-37 26.5q0 -16 8 -27.5t19.5 -20 t22.5 -10t15 4.5zM686 901h53v39h-41q4 -10 3 -13t-4 -6t-7 -6.5t-4 -13.5zM1049 227q0 -29 18 -38t47 1q8 39 -18.5 48t-46.5 -11zM932 150q10 -10 7 -19.5t-7 -18t-7 -15.5t7 -11q10 18 21.5 21.5t31.5 3.5q-6 14 -3 20t9 10t12.5 7.5t6.5 13.5q-10 0 -15.5 -4t-12.5 -7.5 t-18.5 -4t-31.5 3.5zM791 20q18 -4 31.5 -0.5t23.5 10.5t17 15t18 14q-14 10 -28.5 9.5t-27 -9t-21.5 -20t-13 -19.5z" />
<glyph unicode="&#xb4;" d="M842 1542q33 -6 64.5 -9t66.5 1q0 -33 13 -64.5t38 -50.5q2 -8 0 -10t-6 -4t-7 -4t-1 -10q-35 -10 -59.5 -32t-47 -46.5t-45 -47t-55.5 -36.5q-16 -10 -22.5 -32.5t-16.5 -43.5q-6 10 -18.5 12t-28 1t-29.5 -3t-26 2q0 41 -5.5 72t-25.5 59q-4 23 4 32t14 24 q4 -4 13.5 -4t7.5 -15q18 20 30.5 45t25.5 47.5t32.5 40t52.5 23.5q6 16 15.5 26.5t15.5 26.5z" />
<glyph unicode="&#xb9;" d="M676 1393q14 16 23.5 11t19.5 -15.5t23.5 -18.5t33.5 2q-4 -10 -7 -24.5t-2 -26.5t9 -21.5t29 -9.5q10 0 13 10.5t2 23.5t-3 27.5t-2 20.5q10 -10 23.5 -15t27 -7t27.5 -5.5t25 -9.5q6 -25 1.5 -40t-10.5 -27.5t-13 -24.5t-7 -29q8 -18 13 -23t11.5 -6t13.5 -1t17 -6 q16 -98 -26 -160q20 8 30 -16.5t9 -58.5t-12 -66.5t-36 -42.5q27 -31 34 -82.5t7 -110.5t-1 -121.5t14 -113.5q18 -4 26 1t15.5 13t16.5 15t26 7q-14 -18 -11.5 -33.5t12 -29.5t20.5 -28.5t15 -28.5q31 4 46.5 11t20.5 17t5 24.5t4 31.5q20 -14 25.5 -29t5.5 -32t3 -38.5 t21 -48.5q25 0 42.5 9t32 19.5t29.5 20.5t36 15q59 -14 92 -55.5t40 -91.5t-12.5 -101t-64.5 -86q-63 2 -117.5 -3t-106.5 -14.5t-104.5 -20.5t-107.5 -18q-14 14 -24.5 41t-30.5 43q-27 -25 -60 -28.5t-69.5 1.5t-74.5 13t-73 10t-62.5 -8t-43.5 -43q-35 31 -78 42 t-92.5 18.5t-100.5 15.5t-100 33q0 39 12 64.5t28.5 45t34 39t27.5 47.5q12 -6 25.5 -20.5t50.5 -7.5q-4 -10 -2 -18.5t6 -16.5t6 -19.5t-2 -29.5q25 0 31 5t4 16t-7 26.5t-1 36.5q18 8 28.5 11t17.5 3t15 -3t23 -11q6 -16 5 -25.5t-7 -16t-13.5 -11.5t-11.5 -11 q20 -8 46 -14t48.5 -5t36 12t8.5 36q-10 0 -18 4t-17.5 7t-20.5 3t-28 -8q4 14 12.5 25.5t12.5 20.5t0 16.5t-25 13.5q29 14 56.5 19t62.5 -11q20 49 29.5 102.5t14.5 111.5t9.5 122.5t14.5 138.5q-8 6 -19.5 18.5t-19.5 18.5q10 14 23.5 46t16.5 65.5t-8.5 61.5t-50.5 32 q25 49 24 80.5t-20.5 52t-53 32t-71.5 20.5t-77 17.5t-70 22.5q20 33 14 60.5t-14 68.5q4 2 13.5 3t17.5 4t13 9t1 19q14 4 18.5 -3t5.5 -17.5t3 -20.5t12 -15q10 8 8 20.5t-2 23t9.5 15.5t39.5 -3q6 -16 4.5 -24.5t-8 -13.5t-13.5 -10t-11 -16q35 -14 72.5 -16t73.5 -1 t68 1t56 -10q10 4 8 16t-11 25.5t-23.5 26t-28.5 16.5zM786 1018q0 8 6.5 14t12.5 6q-4 -8 -4 -22.5t2 -25.5t5 -13t7 16q0 16 4 26.5t8 20t6.5 21.5t0.5 33q-23 6 -34.5 -4.5t-15.5 -26.5t-3 -30.5t5 -14.5zM1141 238q0 -14 -10.5 -26.5t-18.5 -29.5q18 0 26.5 -7t14.5 -15 t13.5 -13.5t19.5 -1.5q0 14 7 19.5t21 -10.5q0 8 2.5 18t18.5 10q-8 29 -20.5 41.5t-28.5 34.5q0 -16 -12.5 -18t-32.5 -2zM1354 174q18 0 29.5 -8t20.5 -15.5t19.5 -8.5t24.5 12q0 29 -20.5 36t-26.5 19q0 -10 -6 -14.5t-13.5 -6.5t-15.5 -5t-12 -9z" />
<glyph unicode="&#xba;" d="M893 1018q10 -6 21.5 -10t27.5 2q0 -10 -8 -14.5t-12 -14.5q16 -10 28.5 -18.5t34.5 -8.5q0 18 10.5 23.5t26.5 8.5t34.5 7t35.5 17q37 -33 58 -81t48 -98h64q0 -16 3 -30.5t25 -3.5q2 -25 2 -50.5t2 -49t11.5 -39t33.5 -17.5q-16 -10 -23 -34.5t-5 -50.5t14 -46.5 t37 -26.5q-25 -45 -42 -97t-38.5 -100t-52.5 -89t-82 -62q0 -16 7 -25.5t1 -31.5q-63 -10 -104 -24.5t-88 -53.5q-16 12 -28.5 17.5t-27 6.5t-33 0t-45.5 -1q-66 14 -136 39.5t-128.5 66.5t-95.5 99.5t-33 142.5q-4 10 -9 29.5t-5 38t7 31.5t30 13q2 10 -1 16.5t-8.5 12.5 t-9.5 12t-4 17q16 6 20.5 -1.5t14.5 -7.5q6 0 7 7.5t1 16.5t1 17.5t7 10.5q-4 10 -8 9t-8 -4t-9 -5t-9 6q-4 25 -11.5 51.5t-8.5 49t8.5 40t37.5 23.5v77q33 10 49.5 34t16.5 67q18 -2 29.5 7t21.5 18.5t20.5 12.5t26.5 -9q-18 -12 -31.5 -34t-16.5 -43.5t8 -40t40 -26.5 q12 6 12 11.5t-5 12.5t-11 15t-2 18q47 43 106.5 62.5t149.5 30.5q0 20 -6 27.5t6 23.5zM991 291q47 16 71.5 52t57.5 63q0 12 -4 19t-10 11t-10 8.5t-4 12.5q43 49 42 99t-24 96t-57.5 88t-61.5 77q-8 -6 -24.5 -6t-32.5 3t-32.5 7t-24.5 10q-18 -10 -39 -18t-42.5 -15 t-41 -17.5t-33.5 -26.5q10 -41 -1 -62.5t-26.5 -41t-27 -43t-0.5 -66.5q27 10 38 -5.5t11 -37.5q-10 -23 -26.5 -33t-16.5 -37q27 -6 37 -29.5t20 -50.5q10 23 29 23q8 -18 24.5 -31.5t29.5 -26t16 -26t-15 -31.5q23 -16 45.5 -21.5t54.5 1.5q16 27 22.5 35t33.5 14 q8 10 5 18t-8 13.5t-8.5 8.5t5.5 3q16 0 20 -13.5t8 -23.5zM1071 932q0 -23 16.5 -28t32.5 -15q10 23 -6 41t-43 2zM1198 362q10 10 -1 35t-34 31q0 -29 12.5 -39.5t22.5 -26.5zM637 213q0 33 -9.5 55.5t-41.5 22.5q2 -10 5 -23.5t7 -26t13.5 -20.5t25.5 -8z" />
<glyph unicode="&#xbb;" />
<glyph unicode="&#xbc;" horiz-adv-x="1701" d="M844 782q45 -18 106.5 -19t125 4t120.5 9t92 -2q-4 -29 1 -40t-1 -34q-47 -35 -91 -53t-103 -14q-33 2 -68 11t-69.5 14.5t-69.5 2t-68 -27.5q-43 14 -98 13t-114.5 -5t-118 -4t-109.5 18q4 39 16.5 66t26.5 53q41 -2 100.5 -8t119.5 -6t115.5 11t86.5 48q8 51 5 88 t-10.5 71t-16.5 68.5t-15 81.5q-25 18 -48.5 15.5t-47 -12t-46 -14.5t-44.5 11q12 41 36.5 80t55 72t66.5 58.5t73 39.5q41 18 63.5 6t31.5 -42.5t9 -73.5t-2 -86t-4 -82t4 -60q-16 -33 -17 -75.5t-6 -82.5t-22.5 -69t-64.5 -31zM801 303q10 27 13 59.5t9 63.5t19.5 53.5 t44.5 28.5q27 -6 38 -25.5t16 -46t6 -57.5t7 -57q14 -8 37 -9.5t47.5 -4.5t47 -10t32.5 -28q-8 -37 -38.5 -50t-63.5 -27.5t-53.5 -39t-8.5 -81.5q-20 -12 -41.5 -24.5t-33.5 -35.5q-27 6 -43.5 20.5t-16.5 47.5q2 12 6 13t9.5 0t9.5 0t8 11q-6 20 -7 44t-18 34 q-45 0 -85 -9t-76.5 -14t-69.5 0t-61 31q33 45 57 101.5l48 113t50.5 110.5t65.5 97q35 -14 40 -39.5t-4.5 -55.5t-25.5 -61.5t-23.5 -61t3 -53.5t55.5 -38z" />
<glyph unicode="&#xbd;" horiz-adv-x="1763" d="M1399 758q-10 -29 -19.5 -54.5t-23.5 -44.5q-59 -12 -128 -8t-142.5 12.5t-148.5 12.5t-144 -10q-33 16 -65 10t-62.5 -16.5t-60.5 -17.5t-56 5q-23 0 -31 -12t-29 0q-4 14 -12 28.5t-12 32.5q41 43 102.5 58.5t133 15.5t148.5 -8t150 -10q53 -2 106.5 8t104 17t98.5 6.5 t91 -25.5zM1130 479q-31 -33 -47 -76t-30 -94q-31 4 -38 -15.5t-22 -33.5q-70 -4 -111.5 -35.5t-64.5 -85.5q39 -18 86 -15t92 6t79 -8t44 -56q-6 -18 -26.5 -22.5t-42 -7.5t-42 -7t-26.5 -23q-23 -4 -28 8.5t-15 22.5q-23 6 -50.5 4t-56 -4t-56 -1t-50.5 11 q-10 10 -10 27.5t-15 21.5q20 37 37 77t37.5 75t50 60.5t76.5 31.5q6 4 6 11t-3 14.5t-3 14.5t6 13q18 -8 28.5 -5t19 11.5t14.5 19.5t18 17q-18 0 -28.5 7.5t-17.5 14.5t-17.5 14t-28.5 7q-2 12 1 17.5t7 10.5t6 12t-2 22q-43 8 -67.5 -15.5t-44 -49t-40 -38t-55.5 22.5 q-10 57 5.5 87t43 45t61.5 23.5t60 24.5q18 4 18.5 -5t18.5 -5q49 10 84 -2.5t59.5 -37t43 -55t36.5 -57.5zM895 461q2 -14 -5 -21.5t-19.5 -9.5t-26 0t-21.5 6q10 29 29.5 34t42.5 -9zM842 1376q8 -4 24.5 -1t35 12.5t34.5 21.5t27 27q23 0 30.5 -5.5t18.5 5.5 q16 -41 29.5 -90.5t17.5 -120.5q2 -31 -2 -59.5t-9.5 -56.5t-8.5 -50.5t1 -40.5q0 -6 9 -19q4 -6 10 -12q0 -4 -9.5 -13t-9.5 -28q-4 -23 -2 -48.5t1 -46t-10 -33.5t-36 -13q-41 -4 -55 38t-18.5 97t-4.5 108.5t-14 71.5q-18 10 -39.5 15.5t-38.5 15.5q-18 -10 -39.5 -19.5 t-58.5 1.5q-31 43 -23.5 73.5t33 57t58 49t53.5 51.5v11t-4 1z" />
</font>
</defs>
</svg>
